<?xml version="1.0" encoding="utf-8"?>
<!-- Generator: Adobe Illustrator 19.0.0, SVG Export Plug-In . SVG Version: 6.00 Build 0)  -->
<svg version="1.1" id="图层_1" xmlns="http://www.w3.org/2000/svg" xmlns:xlink="http://www.w3.org/1999/xlink" x="0px" y="0px"
	 viewBox="0 0 60 60" style="enable-background:new 0 0 60 60;" xml:space="preserve">
<style type="text/css">
	.st0{fill-rule:evenodd;clip-rule:evenodd;fill:#EA6390;}
</style>
<path id="XMLID_4_" class="st0" d="M47.1571693,42.8095322c0,8.2035561-7.7922974,14.8564568-17.402874,14.8564568
	c-2.0964165,0-4.1133614-0.3180237-5.9782467-0.8994484c-1.5644131-0.9488678-3.0110264-1.6014786-4.3534565-2.0045891
	c-4.2876053-2.7094307-7.068224-7.0533409-7.068224-11.9524193c0-12.0443859,10.8349209-29.3346558,15.8245621-41.15411
	c8.4147243,14.1174946-29.735096,43.7030563-7.1630001,53.0502281l-0.8268566-0.7650795
	c-13.2961092-12.2856026,16.4732418-38.90802,9.4748001-51.0278015c-0.3317814-0.5758088-0.7500553-1.1914982-1.2518692-1.8167251
	c0.0630436-0.150797,0.1234188-0.2962586,0.1823883-0.4442474c0.9213505,2.0045843,2.2911606,4.1641884,3.4224186,6.6665201
	C34.9003487,13.6955976,47.1571693,35.3023911,47.1571693,42.8095322L47.1571693,42.8095322z"/>
<g id="XMLID_1_">
</g>
<g id="XMLID_2_">
</g>
<g id="XMLID_3_">
</g>
<g id="XMLID_5_">
</g>
<g id="XMLID_6_">
</g>
<g id="XMLID_7_">
</g>
</svg>
