<?xml version="1.0" encoding="utf-8"?>
<!-- Generator: Adobe Illustrator 19.0.0, SVG Export Plug-In . SVG Version: 6.00 Build 0)  -->
<svg version="1.1" id="图层_1" xmlns="http://www.w3.org/2000/svg" xmlns:xlink="http://www.w3.org/1999/xlink" x="0px" y="0px"
	 viewBox="-226.8 371.2 334.7 99.4" style="enable-background:new -226.8 371.2 334.7 99.4;" xml:space="preserve">
<style type="text/css">
	.st0{fill:#2E9FCE;}
	.st1{fill:#C71721;}
</style>
<g id="XMLID_1_">
	<path id="XMLID_9_" class="st0" d="M-128.3,418c0,0-7.8,15.6-13.7,18.8c0,0,1.9-33.3,0.6-44.4l-12.1,4.1l-0.2,4.1
		c0,0-8.7,15.2-16.2,11.9c0,0,2.3-10.4-1.6-12.6c0,0-6.2,1.6-3.9,11.2c0,0,0.4,2.8,2.5,4.8c0,0-3.9,10.8-7.7,2.2l0.4-15.8l-6.6,3.4
		c0,0-1,11.9,0.7,14.9c0,0-2.8,7.6-6,2.4c0,0-1.4-5.7-0.1-17.4l-6.5,3.2c0,0-1,11.8,0.3,14.9c0,0-2.7,2.4-12,0.9c0,0-4-0.3-6,0.9
		c0,0,4.9-5.3,2.5-19.6c0,0-3.3-14.2,4.4-13.6c0,0,5,0.3,4.2,8.4c0,0-0.8,6.5-5,4.3c0,0-0.5,5.1,3.8,4.8c4.3-0.3,6.7-5.6,6.8-7.7
		c0.1-2.1,0.8-7.5-4.5-11.2c-5.3-3.6-15.2,2.9-16.4,9.4c-1.2,6.6-1.9,9.3,0.5,18.2c0,0,1.1,3.8-0.3,8.2c0,0-9.1,3.6-5.7,9.3
		c0,0,3,3.4,7.8-5.2c0,0-0.2-1.1,7.8,1.1c0,0,8.1,1.3,13.2-4.9c0,0,5.4,7,12.3-3.6c0,0,6.6,8.8,13.8-6.1c0,0,8.5,3.2,15.8-6.9
		c0,0-2,19.8-4.2,30.7c0,0-5.6,0.2-15.8-14.6c0,0,7.1,43.5,19.2,44.4c0,0,9.8,1.3,13-27.3c0,0,10.4-7.6,15.8-18.9L-128.3,418z
		 M-161.3,456.2c-1,4.2-3.1,1.5-3.1,1.5c-2.8-2.2-6.1-15.2-6.1-15.2c-1.2-6.3,1.6-3.4,1.6-3.4c3.1,3.3,9.4,6.8,9.4,6.8L-161.3,456.2
		z"/>
	<circle id="XMLID_2_" class="st1" cx="-148.5" cy="380.1" r="8.9"/>
</g>
<g id="XMLID_3_">
</g>
<g id="XMLID_4_">
</g>
<g id="XMLID_5_">
</g>
<g id="XMLID_6_">
</g>
<g id="XMLID_10_">
</g>
<g id="XMLID_11_">
</g>
<g>
	<path d="M-114.5,421c0.1-0.5,0.1-1,0.2-1.5c-0.8,0.3-1.6,0.5-2.4,0.8c-0.3,0.1-0.7,0.2-1,0.2h-0.2c-0.5-0.2-0.7-0.6-0.7-1.1
		c0-0.3,0.2-0.5,0.4-0.7c0.2-0.1,0.5-0.1,0.9-0.2c1.1-0.3,2.2-0.6,3.3-1c0.1-0.6,0.1-1.2,0.1-1.7c0-0.7,0-1.5,0-2.2
		c0-0.9-0.1-1.8-0.1-2.7c0-0.4,0-0.8,0-1.1c0.1-0.6,0.3-0.9,0.8-0.9c0.4,0,0.7,0.5,0.9,1.5c0.1,0.8,0.2,1.8,0.2,2.9
		c0,1.2-0.1,2.4-0.2,3.7c0.9-0.3,1.7-0.6,2.5-1c0.2-0.1,0.4-0.1,0.5-0.2c-0.1-0.4-0.2-0.7-0.2-0.9c0-0.3,0.1-0.5,0.3-0.7
		c0.1-0.1,0.3-0.2,0.5-0.2c0.4,0,0.7,0.3,0.9,0.8c0.6,1.5,0.9,3,0.9,4.6c0,2.9-0.7,5.9-2,9.2c-0.3,0.7-0.7,1.4-1,2
		c0.9,0.6,1.7,1,2.4,1.4c0.2,0.1,0.4,0.3,0.4,0.5c-0.1,0.5-0.4,0.8-0.9,0.8c-0.6,0-1.3-0.3-2.2-0.7c-0.3-0.1-0.5-0.2-0.7-0.3
		c-0.2,0.3-0.4,0.5-0.6,0.7c-0.8,0.9-1.5,1.6-2.3,2.1c-0.2,0.1-0.5,0.1-0.8,0.1c-0.5,0-0.8-0.2-0.8-0.6c0-0.2,0.1-0.4,0.3-0.5
		c0.8-0.5,1.5-1.1,2.2-1.9c0.2-0.3,0.4-0.5,0.6-0.8c-0.1,0-0.1,0-0.1-0.1c-1.7-1.1-2.6-2.6-2.6-4.5
		C-115.1,425.9-114.9,423.9-114.5,421z M-110.4,418.1c-0.7,0.3-1.5,0.6-2.1,0.8c-0.1,0.4-0.1,0.9-0.2,1.3c-0.3,1.9-0.5,3.4-0.6,4.5
		c-0.1,1-0.2,1.8-0.2,2.3c0,0.6,0.3,1.1,0.8,1.7c0.4,0.4,0.9,0.7,1.4,1.1c0.2-0.3,0.3-0.6,0.5-0.9c0.9-1.9,1.5-4.4,1.9-7.4
		c0.1-0.7,0.1-1.3,0.1-2c0-0.8-0.1-1.5-0.2-2.2C-109.3,417.6-109.8,417.8-110.4,418.1z M-96.2,419.6c0.6,0.6,1.1,1.3,1.5,2.1
		c0.2,0.7,0.3,1.5,0.4,2.3c1.7-0.2,3.1-0.4,4.1-0.6c0.5-0.1,1-0.2,1.3-0.3c0.6-0.2,1.1-0.3,1.3-0.4c0.2,0,0.4,0.1,0.5,0.3
		c0.2,0.3,0.3,0.5,0.4,0.8c0,0.3-0.2,0.4-0.5,0.6c-0.3,0.1-0.8,0.3-1.5,0.4c-0.4,0.1-1.1,0.2-2,0.3c-1.3,0.2-2.4,0.3-3.4,0.5
		c0.1,1.5,0.1,2.6,0.1,3.5c0,2.3-0.2,4.2-0.5,5.6c-0.7,2.4-2,3.6-3.8,3.6c-0.3,0-0.8-0.1-1.3-0.4c-1-0.5-1.8-1.4-2.6-2.7
		c-0.1-0.1-0.2-0.3-0.2-0.4s0.1-0.2,0.5-0.2c0.5,0.1,1.2,0.4,2.1,1.1c0.7,0.5,1.3,0.9,1.6,0.9c1.7,0,2.6-2.3,2.6-7
		c0-0.7,0-1.5-0.1-2.6c0-0.5-0.1-0.9-0.1-1.3H-96c-2.6,0.3-4.7,0.6-6.3,1c-0.7,0.2-1.4,0.4-2.1,0.7c-0.4,0.1-0.8,0.2-1.1,0.2
		s-0.6-0.3-0.7-0.9c0-0.3,0.1-0.5,0.3-0.6c0.1-0.2,0.4-0.3,0.9-0.5c0.5-0.2,1.1-0.4,1.8-0.5c2.1-0.5,4.3-0.8,6.7-0.9
		c0.1,0,0.3-0.1,0.4-0.1c-0.1-0.7-0.2-1.3-0.4-1.9c-0.3-1.1-1.2-2.1-2.5-3c-0.2-0.2-0.3-0.4-0.3-0.7c0-0.5,0.2-1,0.5-1.5
		c0.5-0.7,1.2-1.5,2.1-2.5c0.7-0.7,1.3-1.4,1.7-2.2c0.3-0.4,0.4-0.8,0.4-1.2c-0.5-1.2-2.3-2-5.3-2.2c-0.7,0-1-0.3-1-0.9
		c0-0.3,0.1-0.6,0.5-0.8c0.1-0.1,0.4-0.1,0.8-0.1c2.5,0.2,4.4,0.8,5.8,1.9c0.7,0.6,1,1.3,1,2.1c0,1.9-1.7,4.4-4.9,7.4
		C-97.2,418.7-96.7,419.1-96.2,419.6z"/>
	<path d="M-65.5,424.5c-0.5,0.2-1,0.3-1.5,0.4c-0.2,3.3-0.4,6.2-0.7,8.8c1.5-0.1,2.8-0.1,4.1-0.1c3.2,0,5.6,0.1,7.4,0.4
		c0.5,0.1,0.8,0.4,0.8,0.8c0,0.4-0.3,0.7-0.8,0.8c-0.6-0.1-1.5-0.2-2.8-0.3c-1.2-0.1-2.8-0.1-4.9-0.1c-2.7,0-5.6,0.2-8.8,0.6
		c-2.7,0.4-5.2,0.9-7.4,1.4c-0.3,0.1-0.5,0.1-0.6,0.1c-0.2,0-0.4-0.1-0.6-0.3c-0.2-0.2-0.3-0.4-0.3-0.6c0-0.5,0.3-0.8,0.9-0.9
		c1.5-0.4,3.3-0.8,5.3-1.1c1.9-0.3,3.6-0.5,5.2-0.6c0.3,0,0.6-0.1,0.9-0.1c0.3-2.9,0.6-5.8,0.7-8.6c-1.1,0.2-2.3,0.3-3.5,0.4h-3.5
		c-0.8,0-1.2-0.3-1.2-1c0-0.5,0.4-0.9,1.1-1c0,0.2,0.2,0.3,0.6,0.3h3.1c1.2,0,2.4-0.2,3.5-0.4c0.1-1.4,0.1-2.8,0.1-4.2
		c0-1.1-0.1-2.2-0.2-3.3c-1.6,0.5-3.3,0.9-5,1h-1.7c-0.3,0-0.6-0.1-0.8-0.3c-0.3-0.3-0.5-0.6-0.5-1.2c0-0.7,0-1.5,0-2.5
		c0.1-0.8,0.1-1.5,0.2-2.1c0.1-0.3,0.3-0.5,0.7-0.5h0.2c0.5,0.1,0.8,0.4,0.8,0.9c0,2.2,0,3.5,0,3.8c0,0.1,0.1,0.2,0.3,0.2
		c0.9,0,2.8-0.5,5.6-1.5c-0.3-1.7-0.7-3.2-1.3-4.5c-0.2-0.4-0.2-0.7-0.2-0.9c0-0.2,0.1-0.4,0.3-0.6c0.2-0.2,0.4-0.3,0.6-0.3
		c0.2,0,0.4,0.2,0.7,0.7c0.6,1.1,1.1,2.8,1.5,4.9c0,0.1,0,0.2,0,0.2c2.1-0.7,4.2-1.7,6.3-2.8c0.5,0.1,0.8,0.4,0.8,0.8
		c0,0.3-0.1,0.6-0.4,0.7c-1.5,1.2-3.5,2.3-5.9,3.3c-0.2,0.1-0.4,0.2-0.6,0.2c0.1,1,0.1,2,0.1,3.1c0,1.6-0.1,3.1-0.1,4.6
		c2.3-0.6,4.6-1.6,6.7-2.9c0.2-0.1,0.4-0.2,0.5-0.2c0.3,0.1,0.5,0.4,0.5,0.8c0,0.3-0.2,0.6-0.5,0.8C-61.1,422.8-63,423.8-65.5,424.5
		z"/>
	<path d="M-41,418.6c-0.6,0.6-1.5,1.2-2.5,1.6c-1.4,0.7-2.6,1.2-3.7,1.5c-0.3,0.1-0.5,0.2-0.7,0.2c-0.2,0-0.4-0.1-0.5-0.3
		c-0.1-0.1-0.2-0.4-0.2-0.7c0-0.3,0.2-0.5,0.6-0.7c0.8-0.3,1.4-0.5,1.8-0.7c0.9-0.3,2.1-0.8,3.5-1.5c0.5-0.2,0.9-0.4,1.2-0.5
		c0.1,0,0.3,0,0.4,0c0.2,0,0.4,0.1,0.5,0.2c0,0.1,0,0.2,0,0.3C-40.6,418.1-40.8,418.4-41,418.6z M-40.3,424.5
		c-1.1,2.4-2.5,4.5-4,6.2c-1,1.1-1.9,1.8-2.5,2.1c-0.3,0.1-0.5,0.1-0.6,0.1c-0.5,0-0.7-0.3-0.8-0.8c0-0.2,0-0.4,0.1-0.5
		c0.2-0.4,0.6-0.8,1.2-1.4c0.7-0.6,1.3-1.1,1.8-1.5c1.1-1.1,2.5-2.9,4.1-5.1c0.3-0.3,0.6-0.5,0.7-0.5c0.3,0,0.4,0.2,0.5,0.5
		C-39.9,423.8-40,424.1-40.3,424.5z M-45.7,412.1c0-0.5,0.3-0.7,0.8-0.8l5.6,1.1c0.3,0.1,0.5,0.2,0.5,0.4c-0.1,0.6-0.7,0.8-1.8,0.8
		c-1.1,0-2.7-0.2-4.7-0.6C-45.5,413-45.7,412.7-45.7,412.1z M-22.1,432.6c0.1,0,0.2,0,0.3,0c0.2,0,0.4,0.1,0.6,0.3
		c0.1,0.1,0.1,0.2,0.1,0.4c0,0.2-0.1,0.5-0.4,0.7c-1.4,0.8-3.7,1.6-7,2.5c-1.2,0.2-2.3,0.4-3.4,0.4c-0.2,0-0.4-0.1-0.5-0.2
		c-0.1,0.2-0.1,0.3-0.2,0.5c-0.1,0.5-0.4,0.8-0.8,0.8s-0.6-0.2-0.6-0.7c0.1-0.3,0.2-0.7,0.5-1.2c0.1-0.9,0.1-1.6,0.1-2.2
		c0-1.4-0.3-3.1-0.8-5.3c-0.2-0.8-0.4-1.6-0.6-2.4c-0.1-0.3-0.2-0.6-0.2-0.7c0-0.3,0.1-0.5,0.4-0.7c0.2-0.1,0.4-0.2,0.6-0.2
		c0.4,0,0.6,0.2,0.8,0.7c0.3,0.7,0.5,1.5,0.7,2.3c0.2-0.1,0.4-0.2,0.7-0.4c-0.2-0.1-0.2-0.3-0.2-0.6c0-0.2,0-0.4,0.1-0.6
		c0.1-0.1,0.2-0.3,0.4-0.6c0.7-1.1,1.2-2.2,1.6-3.2c0.1-0.4,0.3-0.9,0.5-1.5c0.1-0.4,0.1-0.8,0.1-1.2c-1,0.4-1.9,0.7-2.9,1
		c-2.1,0.6-4,0.9-5.8,1c-0.3,0-0.5-0.1-0.7-0.3c-0.2-0.2-0.3-0.4-0.3-0.7c0-0.4,0.2-0.6,0.5-0.7c1.8-0.3,3.9-0.7,6.2-1.3
		c1-0.3,2-0.6,3-0.9c-0.2-1.8-0.5-3.3-1-4.5c-0.1-0.1-0.2-0.3-0.2-0.6c0-0.2,0.1-0.4,0.3-0.5c0.2-0.2,0.4-0.3,0.7-0.3
		c0.3,0,0.4,0.1,0.5,0.2c0.5,0.8,1,2.2,1.3,4.2c0,0.3,0,0.6,0.1,0.9c2.6-1,4.9-2.2,7-3.6c0.1,0,0.2,0,0.3,0c0.3,0,0.6,0.1,0.7,0.4
		c0.1,0.2,0.1,0.3,0.1,0.4c0,0.4-0.1,0.7-0.4,0.9c-1.7,1.3-4.3,2.6-7.7,3.9c0,0.1,0,0.2,0,0.3c0,0.6-0.1,1.1-0.1,1.6
		c-0.1,0.6-0.3,1.3-0.5,2c-0.5,1.2-1.2,2.4-2.1,3.6c-0.1,0.1-0.1,0.1-0.1,0.1c1.6-0.5,3.3-0.8,5.2-0.8c1,0,1.8,0.2,2.2,0.4
		c0.7,0.4,1.1,1.2,1.1,2.2c-0.1,1.5-0.6,3-1.6,4.4c-0.1,0.2-0.3,0.3-0.4,0.5C-23.3,433.1-22.7,432.8-22.1,432.6z M-33,409.1
		c-0.4,0-0.6-0.3-0.6-1c0.1-0.5,0.3-0.7,0.7-0.8c1.6,0.1,3.2,0.2,4.6,0.5c2,0.3,3.4,0.7,4.1,1.2c0.2,0.2,0.3,0.4,0.3,0.7
		c0,0.3-0.2,0.6-0.5,0.7C-26.9,409.7-29.8,409.3-33,409.1z M-32.1,429.7c0.1,1.5,0.2,2.6,0.2,3.4c0,0.7-0.1,1.5-0.2,2.2
		c1-0.1,2.1-0.3,3.2-0.5c0.7-0.2,1.4-0.3,2.1-0.5c0.1-0.1,0.2-0.3,0.3-0.4c2.1-2.4,3.1-4.2,3.1-5.3c-0.1-0.7-0.7-1-1.8-1
		c-0.7,0-1.4,0.1-2.3,0.4c-0.8,0.1-1.7,0.3-2.6,0.6c-1.3,0.5-2,0.7-2.2,0.7C-32.2,429.4-32.2,429.6-32.1,429.7z"/>
	<path d="M-12.3,435.3c-1.3,2.3-2.4,4-3.3,5.1c-0.3,0.2-0.5,0.3-0.8,0.3c-0.6,0-0.9-0.3-0.9-0.9c0-0.3,0.1-0.7,0.4-0.9
		c1-1.2,2.1-2.8,3.1-4.7c0.2-2.3,0.8-3.4,1.9-3.4c0.7,0,1,0.4,1,1.2C-10.9,432.5-11.3,433.7-12.3,435.3z"/>
	<path d="M-3.5,435.1c-0.3,0-0.5-0.2-0.5-0.5c0-0.1,0-0.3,0.1-0.4c0-0.1,0.1-0.3,0.2-0.4c1.3-1.7,2.4-3.4,3.4-5.2
		c0.4-0.9,0.9-1.8,1.3-2.7c0.1-0.3,0.4-0.5,0.8-0.5c0.6,0,0.9,0.3,0.9,0.8c-0.1,1-0.8,2.3-1.9,4c-1.2,1.9-2.4,3.3-3.6,4.4
		C-2.9,434.9-3.1,435.1-3.5,435.1z M8.7,439.2c-1.5-0.7-2.8-1.7-3.9-3c-0.2-0.2-0.3-0.3-0.4-0.5c0-0.2,0.2-0.2,0.8-0.2
		c0.9,0,2.2,0.8,4,2.2c0-0.2,0.1-0.4,0.1-0.7c0-1.3-0.1-3-0.1-5.1c-0.1-2.3-0.2-4.6-0.2-7.1c0-0.9,0-1.8,0-2.8c-1,0.2-2,0.4-3.2,0.6
		c-2.2,0.4-3.9,0.5-5,0.5c-0.6,0-1-0.2-1.3-0.5c-0.2-0.3-0.3-0.6-0.3-0.8c0-0.4,0.1-0.9,0.2-1.4c0.2-0.9,0.9-2.9,2.1-6
		c0.8-1.9,1.3-3.2,1.6-3.9c-0.1,0-0.1,0-0.2,0H1.9c-0.5-0.1-0.7-0.3-0.7-0.8v-0.4c0.1-0.3,0.3-0.6,0.8-0.8c0.2,0,0.4,0,0.6,0
		c1.5,0,3.2-0.2,5.1-0.7c2-0.4,4.1-1.1,6.4-1.9c0.3-0.1,0.5-0.3,0.8-0.4c0.2,0,0.5,0.1,0.7,0.2c0.2,0.2,0.4,0.3,0.4,0.5
		c0,0.1-0.1,0.3-0.2,0.5c-0.2,0.2-0.4,0.4-0.6,0.5c-1.4,0.6-3,1.2-4.9,1.7c-1.7,0.6-3.5,1-5.4,1.3c-0.3,0.1-0.5,0.1-0.7,0.1
		c0.1,0.1,0.2,0.2,0.2,0.4c0,0.5-0.4,1.9-1.2,4c-0.4,1.3-0.9,2.7-1.5,4c-0.6,1.5-0.9,2.3-0.9,2.5H1c1.5,0,4.1-0.4,7.8-1.3
		c0-0.9,0-1.7,0.1-2.6v-3.2c0-0.2-0.1-0.6-0.2-1.1c0.1-0.3,0.3-0.6,0.7-0.7h0.4c0.5,0.2,0.7,0.6,0.7,1.3v6c0.2-0.1,0.5-0.1,0.7-0.2
		c2-0.5,3.5-1,4.4-1.3c1.1-0.4,2.1-0.8,2.9-1.1c0.3-0.2,0.6-0.3,0.9-0.3c0.4,0.1,0.6,0.4,0.7,0.7c0,0.4-0.1,0.6-0.2,0.8
		c-0.3,0.2-1,0.6-2.1,1c-2,0.8-4.1,1.4-6.3,2c-0.3,0.1-0.6,0.2-1,0.3v3c0,1.3,0,2.4,0,3.4c0,1.1,0,2.5,0.2,4
		c0.1,2.9,0.2,5.2,0.2,6.7c0,0.6-0.3,0.9-0.8,0.9C9.7,439.6,9.2,439.5,8.7,439.2z M22.9,433.6c-0.1,0-0.3-0.1-0.5-0.1
		c-0.5-0.4-1.2-0.9-1.8-1.5c-1.6-1.4-3.1-3-4.5-4.8c-0.3-0.5-0.5-0.8-0.6-1c-0.1-0.1-0.1-0.2-0.1-0.4s0.1-0.3,0.2-0.5
		c0.1-0.2,0.3-0.3,0.4-0.3c0.1,0,0.2,0,0.4,0c0.2,0,0.4,0.1,0.5,0.2c0.2,0.3,0.5,0.6,0.9,1.1c1.1,1.4,2.2,2.6,3.4,3.8
		c0.7,0.7,1.3,1.5,1.9,2.2c0.2,0.3,0.4,0.5,0.4,0.8C23.4,433.4,23.2,433.5,22.9,433.6L22.9,433.6z"/>
	<path d="M55.7,409c-1.5,1-5.4,2.2-11.6,3.5c-0.8,0.2-1.6,0.3-2.3,0.5c0.3,0.8,0.5,1.6,0.6,2.6c0.2,0.9,0.3,1.7,0.3,2.5
		c0.7,0.1,1.6,0.2,2.4,0.4c1.5,0.3,2.8,0.8,3.9,1.4c2.1,1.2,3.2,3,3.3,5.4c0,2.5-0.1,4.5-0.3,6.2c-0.3,2.1-0.7,3.7-1.2,5
		c-0.7,1.4-1.6,2.1-2.6,2.1c-1,0-2-0.4-3-1.2c-1.2-1-1.8-1.8-1.8-2.4c0-0.5,0.3-0.7,0.8-0.7c0.1,0,0.2,0.1,0.4,0.2
		c0.5,0.3,1.1,0.8,1.7,1.5c0.7,0.6,1.4,0.9,1.9,0.9c1.6-0.7,2.4-4.5,2.4-11.5c0-0.6-0.1-1.3-0.3-2.1c-0.3-1.3-2.1-2.3-5.4-3.2
		c-0.9-0.2-1.7-0.3-2.2-0.5c-0.1,2.7-0.8,5.6-2.3,8.7c-0.8,1.7-1.7,3.5-2.9,5.2c-0.8,1.2-1.5,2.3-2.2,3.1c-0.2,0.2-0.4,0.3-0.6,0.3
		c-0.4,0-0.6-0.2-0.6-0.6c0-0.1,0.1-0.3,0.2-0.5c1.1-1.5,2.2-3.2,3.3-5.3c0.9-1.7,1.7-3.6,2.5-5.8c0.7-2,1-3.8,1-5.4
		c0-1.9-0.3-3.7-0.8-5.3c-0.2-0.4-0.3-0.7-0.3-0.9c-2,0.4-3.8,0.8-5.6,1.1c-0.9,0.2-1.5,0.3-1.9,0.3c-0.4,0-0.7,0-0.9,0
		c-0.5,0-0.7-0.3-0.8-0.9c0-0.3,0.2-0.5,0.7-0.8c0.2-0.1,0.6-0.2,1-0.4c3.8-0.6,7.4-1.3,11-2c5.2-1.1,9.2-2,12.1-2.8
		c0.2,0,0.3,0.1,0.4,0.2c0,0.1,0,0.1,0,0.3C56,408.6,55.9,408.8,55.7,409z"/>
	<path d="M73.1,419.9c-0.9,0.1-1.7,0.2-2.6,0.2h-0.8c-0.4-0.1-0.6-0.3-0.6-0.8V419c0.1-0.3,0.3-0.5,0.7-0.8c0.2,0.1,0.3,0.1,0.5,0.1
		c1.8,0,3.8-0.3,5.9-0.8c2.3-0.5,4.7-1.2,7.4-2.2c0.4-0.2,0.7-0.3,1-0.4c0.2,0,0.4,0.1,0.6,0.1c0.2,0.2,0.3,0.3,0.3,0.5
		c0,0.1-0.1,0.3-0.1,0.4c-0.2,0.2-0.4,0.3-0.6,0.4c-1.6,0.7-3.4,1.4-5.5,2c-1,0.3-2,0.6-3,0.8c-0.1,0.2-0.1,0.5-0.2,0.7
		c-0.1,0.3-0.3,0.5-0.5,0.8c0.7,0.4,1.4,1,2.1,1.8c0.7,0.9,1.3,1.8,1.7,2.7c0.1,0.3,0.2,0.6,0.3,0.9c0.5-0.6,1-1.3,1.5-2
		c0.4-0.7,0.9-1.4,1.3-2.2c0.1-0.2,0.3-0.3,0.5-0.3s0.4,0.1,0.5,0.2c0.3,0.2,0.5,0.5,0.5,0.7c0,0.2-0.1,0.5-0.2,0.7
		c-0.5,0.8-1.1,1.8-2,2.8c-0.4,0.5-0.9,0.9-1.5,1.4c0.1,0.1,0.2,0.2,0.3,0.3c0.5,0.6,1,1.2,1.4,1.7c0.8,0.8,1.5,1.6,2.3,2.4
		c1.1,1,2.2,1.8,3.4,2.6c1.3,0.8,2.7,1.5,4.3,2.1c0.2,0,0.3,0.2,0.3,0.4c0,0.2-0.1,0.4-0.2,0.5c-0.1,0.1-0.2,0.2-0.5,0.2
		c-0.5,0-0.9-0.1-1.5-0.2c-0.7-0.2-1.3-0.5-1.9-0.8c-1.1-0.5-2.3-1.3-3.5-2.3c-1.4-1.1-2.7-2.3-3.8-3.7c-0.3-0.3-0.6-0.7-0.9-1.1
		c0,2.7-0.3,4.8-0.7,6.4c-0.5,1.7-1.2,2.6-2.1,2.6c-0.8,0-1.5-0.4-2-1.2c-0.4-0.6-0.7-1.4-0.8-2.4c-0.1-0.4-0.1-0.8-0.1-1.2
		c-0.9,1-1.8,2-2.8,2.9c-0.6,0.6-1.2,1.1-1.7,1.5c-0.3,0.2-0.5,0.3-0.6,0.3c-0.4,0-0.6-0.2-0.6-0.5c0-0.3,0.1-0.5,0.4-0.7
		c2.5-2.1,5.2-5.1,8.1-9c0.4-0.6,0.8-1.2,1.2-1.8l0-0.1c-0.3-0.8-0.6-1.5-1.1-2.1c-0.7-0.8-1.5-1.6-2.6-2.4
		c-0.1,0.1-0.2,0.2-0.2,0.2c-1.4,1.9-3.2,3.8-5.3,5.8c-0.6,0.5-1.1,0.9-1.6,1.3c-0.2,0.2-0.4,0.3-0.5,0.3c-0.4,0-0.6-0.2-0.6-0.5
		c0-0.2,0.1-0.5,0.3-0.7c2.2-1.8,4.6-4.4,7.1-7.8c0.2-0.3,0.4-0.6,0.6-0.9C74,419.8,73.6,419.9,73.1,419.9z M75.9,424.4
		c0.1,0.1,0.2,0.3,0.2,0.5s-0.1,0.4-0.2,0.7c-0.4,0.7-0.9,1.4-1.4,2.1c-1.2,1.8-2.8,3.7-4.7,5.5c-0.5,0.5-1,0.9-1.4,1.2
		c-0.2,0.2-0.4,0.3-0.6,0.3c-0.3,0-0.5-0.2-0.5-0.5c0-0.3,0.1-0.5,0.3-0.7c2-1.7,4.1-4.1,6.4-7.3c0.3-0.5,0.7-1,0.9-1.4
		c0.1-0.3,0.3-0.5,0.5-0.5C75.5,424.3,75.7,424.3,75.9,424.4z M69.9,415.5c-0.1,0.5-0.3,0.9-0.6,1.4c-0.1,0.3-0.3,0.5-0.4,0.6
		c-0.2,0.2-0.4,0.3-0.7,0.3s-0.5-0.2-0.5-0.6c0-0.1,0.1-0.3,0.3-0.6c0.2-0.5,0.4-1,0.5-1.5c0.1-0.4,0.1-0.8,0.1-1.1
		c0-1.1-0.1-2.1-0.4-2.8c-0.2-0.3-0.3-0.6-0.3-0.8c0-0.3,0.1-0.6,0.3-0.8c0.1-0.1,0.3-0.1,0.5-0.2c0.2,0,0.4,0.1,0.6,0.2
		c0.1,0.1,0.3,0.4,0.4,0.6c0.1,0.3,0.2,0.7,0.3,1c0.2-0.1,0.5-0.2,0.8-0.3c2.4-0.7,6-1.6,10.9-2.6c2.3-0.5,3.8-0.8,4.8-0.8
		c0.2,0,0.3,0,0.5,0c0.3,0.2,0.5,0.5,0.5,0.8c0,1.3-1.3,3.1-3.9,5.3c-0.3,0.2-0.6,0.5-0.9,0.7c-0.2,0.2-0.4,0.3-0.6,0.3
		c-0.2,0-0.3-0.1-0.4-0.3c-0.1-0.1-0.1-0.2-0.1-0.3c0-0.1,0.1-0.3,0.3-0.5c1.2-1.4,2.3-2.8,3.3-4.3c-1.8,0.3-6.4,1.4-13.7,3.3
		c-0.5,0.2-1,0.3-1.3,0.3c0,0.2,0,0.3,0,0.5C70.2,414.1,70.1,414.8,69.9,415.5z M73,406c0-0.1,0.1-0.2,0.2-0.4
		c0.3-0.3,0.6-0.4,1-0.5c0,0.2,0.2,0.3,0.6,0.3c0.9,0.2,2.5,0.5,4.9,1c0.2,0,0.3,0.1,0.3,0.3c0,0.3-0.1,0.5-0.4,0.7
		c-0.2,0.2-0.4,0.2-0.7,0.2c-1.7,0-3.5-0.2-5.3-0.7C73.2,406.8,73,406.5,73,406z M75,433.7c0.8,2.2,1.6,3.3,2.2,3.3
		c0.2,0,0.5-0.6,0.9-1.9c0.4-1.7,0.6-3.6,0.6-5.8c0-0.3,0-0.5,0-0.8c-0.3,0.5-0.7,1.1-1.1,1.6c-0.8,1.1-1.7,2.2-2.7,3.3
		C75,433.5,75,433.6,75,433.7z"/>
	<path d="M101.3,434.8c-0.5,0-0.8-0.2-1.1-0.7c-0.3-0.2-0.5-0.4-0.6-0.7c-0.1-0.2-0.1-0.4-0.1-0.7c0.1-1,0.6-1.5,1.6-1.5
		c0.2,0,0.4,0.1,0.7,0.3c0.5,0.2,0.8,0.8,0.8,1.8C102.7,434.3,102.2,434.8,101.3,434.8z M104,412.2c-0.7,2.9-1.2,5.8-1.4,8.7
		c-0.2,2.9-0.4,4.8-0.4,5.9c-0.1,0.8-0.4,1.2-1,1.2c-0.6,0-0.9-0.3-0.9-1c0-0.2,0-1.2,0.1-2.9c0.1-2.2,0.2-3.8,0.3-5
		c0.2-2.1,0.5-4,0.8-5.7c-0.1-0.2-0.1-0.4-0.1-0.6c0-0.1,0-0.3,0.1-0.6c0.1-0.3,0.2-0.8,0.5-1.3c0.5-0.5,0.9-0.7,1.3-0.7
		c0.6,0,0.9,0.4,0.9,1.1C104.2,411.3,104.2,411.6,104,412.2z"/>
</g>
</svg>
