<?xml version="1.0" encoding="utf-8"?>
<!-- Generator: Adobe Illustrator 19.0.0, SVG Export Plug-In . SVG Version: 6.00 Build 0)  -->
<svg version="1.1" id="图层_1" xmlns="http://www.w3.org/2000/svg" xmlns:xlink="http://www.w3.org/1999/xlink" x="0px" y="0px"
	 viewBox="0 0 177.6552429 57.0141945" style="enable-background:new 0 0 177.6552429 57.0141945;" xml:space="preserve">
<style type="text/css">
	.st0{fill-rule:evenodd;clip-rule:evenodd;fill:#EA6390;}
</style>
<g id="XMLID_5_">
	<path id="XMLID_18_" d="M62.4035072,48.3237572l-3.885273-11.7667885c-0.9028358,0-1.8279495-0.0961189-2.775135-0.2885666
		l-2.0868111,7.3264465c-0.2813568,0.9622459-0.4218216,1.7687531-0.4218216,2.4199409
		c0,0.5032959,0.16996,0.8956223,0.5105133,1.1767616c0.2664986,0.2219429,0.9841003,0.3772621,2.1536522,0.4661636
		l-0.1555328,0.6660423h-9.3911934l0.1998787-0.6660423c0.8879814-0.0294914,1.4873962-0.1183968,1.7982445-0.2664986
		c0.4884453-0.2070923,0.8436356-0.4808044,1.0655785-0.8213577c0.3848991-0.5622864,0.7844391-1.5542374,1.1990433-2.9750099
		l4.2404671-14.630827c0.2809296-0.9768867,0.4218178-1.7318325,0.4218178-2.2646217
		c0-0.5474319-0.2257614-1.0135956-0.6770744-1.3987064c-0.4517365-0.3846874-1.0918884-0.5694981-1.9204636-0.555069
		l0.2219429-0.6660423h7.9037971c2.634243,0,4.5364609,0.5035095,5.7057953,1.5096779
		c1.1691284,1.0068054,1.7538986,2.3240356,1.7538986,3.9518986c0,1.5542355-0.599411,2.9788265-1.7982407,4.2737789
		c-1.1990433,1.295372-2.8419762,2.1131248-4.9287872,2.4534645l2.3755913,7.1045036
		c0.5622826,1.7464714,1.132206,2.878891,1.7093391,3.3968277c0.5773544,0.5181503,1.5022583,0.8141441,2.7753525,0.8879814
		l-0.1998749,0.6660423H62.4035072z M56.0316696,35.2692337c0.7695847,0.1037598,1.4504776,0.1553192,2.0426788,0.1553192
		c2.0571098,0,3.6815758-0.5695,4.8731918-1.709343c1.1911926-1.1396294,1.7872162-2.5531902,1.7872162-4.2406769
		c0-1.3320808-0.3738708-2.3494968-1.1211739-3.0526676c-0.7475204-0.7027493-1.8686905-1.0545483-3.3635139-1.0545483
		c-0.3700485,0-0.8213615,0.0519848-1.3543625,0.1555309L56.0316696,35.2692337z"/>
	<path id="XMLID_16_" d="M80.2981186,22.9030323l-5.0174713,17.3616123c2.1608658-3.2710037,3.8481369-5.4429016,5.061821-6.5161209
		c1.2134705-1.0730057,2.3755951-1.6096153,3.485733-1.6096153c0.5771332,0,1.0545425,0.1996613,1.4320221,0.5994148
		c0.3774719,0.3995399,0.5661011,0.9251137,0.5661011,1.5763016c0,0.7846527-0.1629562,1.7392616-0.4884491,2.8640404
		l-2.1757126,7.4817619c-0.2813568,0.9030495-0.4218216,1.4063454-0.4218216,1.5096779
		c0,0.1631699,0.0515594,0.2964211,0.1553192,0.3997536c0.1033325,0.103756,0.2221527,0.1553154,0.3551941,0.1553154
		c0.1478882,0,0.3254852-0.0738373,0.5329971-0.2219429c0.6804733-0.5327873,1.3541489-1.2578163,2.020195-2.1757164
		l0.555069,0.3329124c-0.4146042,0.6365471-0.9807129,1.3320808-1.6983109,2.0870285
		c-0.7182388,0.7549438-1.3358994,1.2764893-1.8538361,1.5652695c-0.518364,0.2885666-0.9768906,0.4328499-1.3766403,0.4328499
		c-0.4438858,0-0.8067169-0.1408882-1.0878601-0.4218178c-0.2813568-0.2809296-0.4218216-0.6361237-0.4218216-1.0655785
		c0-0.5330048,0.2070923-1.5098915,0.6216965-2.9306641l2.0647507-7.1488495
		c0.2514343-0.902626,0.3774719-1.6057968,0.3774719-2.1093063c0-0.2365837-0.0742645-0.4290314-0.2221603-0.577137
		c-0.1481018-0.147892-0.3405533-0.2221527-0.5771332-0.2221527c-0.3407669,0-0.732666,0.1332474-1.1767654,0.3997498
		c-0.8141403,0.5032959-1.7464752,1.4358368-2.7974091,2.7974129c-0.2962112,0.3700447-1.2508163,1.8576584-2.8638306,4.46241
		c-0.5035095,0.8292084-0.9179001,1.7394714-1.2433853,2.7307854l-1.1322098,3.6633301h-2.6864395l5.8833923-20.4475937
		l0.6216965-2.2202778c0-0.3108463-0.1298523-0.5843506-0.388504-0.8213577
		c-0.259285-0.2365837-0.5737457-0.3551941-0.943573-0.3551941c-0.2075195,0-0.5327911,0.0371323-0.9768906,0.1109715
		l-0.3774719,0.0443478v-0.6881084L80.2981186,22.9030323z"/>
	<path id="XMLID_13_" d="M104.7638168,37.7335205c0,1.7910309-0.4735947,3.5633926-1.4207764,5.3172913
		s-2.2644119,3.1415749-3.951683,4.1628075c-1.6872787,1.0212326-3.3304138,1.5319557-4.9285736,1.5319557
		c-1.6287155,0-2.9605789-0.5217552-3.99646-1.5652695c-1.036293-1.0433006-1.5542297-2.3866272-1.5542297-4.0295563
		c0-1.7611122,0.5030823-3.522438,1.5098877-5.2839775c1.0061646-1.761116,2.3533173-3.156002,4.040802-4.1848755
		c1.6872711-1.0286598,3.3151398-1.5429878,4.8835907-1.5429878c1.583725,0,2.8831329,0.5215416,3.8965149,1.5650558
		C104.2571259,34.7474785,104.7638168,36.0905914,104.7638168,37.7335205z M101.8110809,36.5126228
		c0-1.1101379-0.2741394-1.9612007-0.8215637-2.5531921c-0.5474319-0.5919876-1.25103-0.888195-2.1091003-0.888195
		c-1.7466812,0-3.3558731,1.254425-4.8284225,3.7632675c-1.4731827,2.5086327-2.2092361,5.006443-2.2092361,7.4930115
		c0,1.1249886,0.2885666,1.9947243,0.8659134,2.6085701c0.5769196,0.6144791,1.2949448,0.9215088,2.1530151,0.9215088
		c1.6872711,0,3.2676086-1.2467842,4.7401505-3.7409897C101.0743866,41.622612,101.8110809,39.087883,101.8110809,36.5126228z"/>
	<path id="XMLID_11_" d="M114.2216339,32.1389084l-2.3751678,8.1478043c2.2198486-3.330204,3.9257965-5.5205612,5.1174088-6.5715027
		c1.1911926-1.0509377,2.3344345-1.5763016,3.4301453-1.5763016c0.5915604,0,1.0800095,0.1996613,1.465332,0.5994148
		c0.3844757,0.3995399,0.5771332,0.9102631,0.5771332,1.5317459c0,0.7254486-0.1705933,1.6800575-0.5109329,2.8640366
		l-2.1757202,7.5263214c-0.2516479,0.8735542-0.3772583,1.4063454-0.3772583,1.5985832
		c0,0.1629562,0.0479507,0.2998123,0.1442871,0.4107857c0.0963287,0.1109695,0.1960526,0.1665611,0.2995987,0.1665611
		c0.1332474,0,0.303421-0.0740509,0.5109329-0.2221527c0.6361237-0.5028725,1.3320847-1.2654572,2.0866013-2.2866898
		l0.555069,0.3329124c-1.1097107,1.5839424-2.1608658,2.7163582-3.1526031,3.3968277
		c-0.6955338,0.4587402-1.3172302,0.6883202-1.8646622,0.6883202c-0.4443054,0-0.7961044-0.1332512-1.0545425-0.3995399
		c-0.259285-0.2664986-0.3887177-0.6216927-0.3887177-1.0657921c0-0.5771332,0.1998749-1.561451,0.5996246-2.9527283
		l2.0866013-7.193409c0.2516479-0.8879852,0.3776855-1.583519,0.3776855-2.0868149
		c0-0.2365837-0.0776596-0.429245-0.2329788-0.5773468c-0.1557388-0.1476784-0.3441544-0.2219429-0.5665207-0.2219429
		c-0.3254929,0-0.7252426,0.1408882-1.1988373,0.4218178c-0.8733368,0.5327911-1.7869949,1.4173775-2.7418213,2.6531296
		c-0.9543915,1.2359619-1.9648056,2.808445-3.0303879,4.7176628c-0.562706,1.0214462-1.0290833,2.1313744-1.3987045,3.3304138
		l-0.8881989,2.9527321h-2.6862259l3.2633667-11.1896515c0.3848953-1.346508,0.5775604-2.1534386,0.5775604-2.4199409
		c0-0.2662888-0.1077881-0.4994774-0.3220978-0.6993523c-0.2147217-0.1998749-0.470192-0.2996025-0.765976-0.2996025
		c-0.1481018,0-0.3997498,0.029705-0.7549438,0.0886917l-0.6878967,0.0889053l-0.1111832-0.6439743L114.2216339,32.1389084z"/>
	<path id="XMLID_8_" d="M132.8487091,32.1389084l-3.5298767,12.5438004
		c-0.2372131,0.8436356-0.3551941,1.3469315-0.3551941,1.5096779c0,0.1924477,0.0551758,0.3479767,0.1663513,0.4661636
		c0.1111908,0.1188202,0.2406158,0.1778069,0.3887177,0.1778069c0.1918182,0,0.4069672-0.0961189,0.6437683-0.2887802
		c0.6806793-0.5327873,1.3690033-1.2949486,2.0645294-2.2866898l0.6217041,0.4218216
		c-0.8139343,1.2287483-1.7687531,2.2722588-2.8640442,3.1303253c-0.7990723,0.6216927-1.5688782,0.9325409-2.3089676,0.9325409
		c-0.4884491,0-0.8877716-0.1442833-1.1988297-0.4328499c-0.3106384-0.2887802-0.4659576-0.6550102-0.4659576-1.0991058
		c0-0.4438858,0.1476822-1.1765518,0.4438858-2.197998l2.3310318-8.0145531
		c0.3700562-1.3023758,0.555069-2.1237335,0.555069-2.4645004c0-0.2514343-0.0924988-0.4623451-0.2775269-0.6327286
		c-0.1850281-0.1699562-0.4328613-0.2552528-0.7434845-0.2552528c-0.26651,0-0.8143616,0.0666237-1.6431427,0.1996613V33.160141
		L132.8487091,32.1389084z M132.6267548,25.0564709c0.5028839,0,0.9246979,0.174202,1.2654572,0.5217571
		c0.3403473,0.3479786,0.5105133,0.7659779,0.5105133,1.2544212c0,0.4884453-0.173996,0.9102631-0.5215454,1.2654572
		c-0.3479767,0.3551922-0.765976,0.5327892-1.254425,0.5327892c-0.4884338,0-0.9102631-0.177597-1.2654572-0.5327892
		c-0.3551941-0.3551941-0.5329895-0.7770119-0.5329895-1.2654572c0-0.4884434,0.1739807-0.9064426,0.5219574-1.2544212
		C131.6978302,25.2306728,132.1234589,25.0564709,132.6267548,25.0564709z"/>
	<path id="XMLID_6_" d="M142.6842041,32.1389084l-2.3751678,8.1478043c2.2198486-3.330204,3.9257965-5.5205612,5.1174164-6.5715027
		c1.1911926-1.0509377,2.3344269-1.5763016,3.4301453-1.5763016c0.5915527,0,1.0800018,0.1996613,1.465332,0.5994148
		c0.3844604,0.3995399,0.5771332,0.9102631,0.5771332,1.5317459c0,0.7254486-0.1705933,1.6800575-0.5109406,2.8640366
		l-2.1757202,7.5263214c-0.2516479,0.8735542-0.3772583,1.4063454-0.3772583,1.5985832
		c0,0.1629562,0.0479584,0.2998123,0.1442871,0.4107857c0.0963287,0.1109695,0.1960602,0.1665611,0.2996063,0.1665611
		c0.1332397,0,0.303421-0.0740509,0.5109253-0.2221527c0.6361237-0.5028725,1.3320923-1.2654572,2.0866089-2.2866898
		l0.555069,0.3329124c-1.1097107,1.5839424-2.1608734,2.7163582-3.1526031,3.3968277
		c-0.6955414,0.4587402-1.3172302,0.6883202-1.8646698,0.6883202c-0.4443054,0-0.7960968-0.1332512-1.0545349-0.3995399
		c-0.2592926-0.2664986-0.3887177-0.6216927-0.3887177-1.0657921c0-0.5771332,0.1998749-1.561451,0.5996246-2.9527283
		l2.0865936-7.193409c0.2516479-0.8879852,0.3776855-1.583519,0.3776855-2.0868149
		c0-0.2365837-0.077652-0.429245-0.2329712-0.5773468c-0.1557465-0.1476784-0.344162-0.2219429-0.5665283-0.2219429
		c-0.3254852,0-0.725235,0.1408882-1.1988373,0.4218178c-0.8733368,0.5327911-1.7869873,1.4173775-2.7418213,2.6531296
		c-0.9543915,1.2359619-1.964798,2.808445-3.0303802,4.7176628c-0.5627136,1.0214462-1.0290833,2.1313744-1.3987122,3.3304138
		l-0.8881989,2.9527321h-2.6862183l3.2633667-11.1896515c0.3848877-1.346508,0.5775604-2.1534386,0.5775604-2.4199409
		c0-0.2662888-0.1077881-0.4994774-0.3220978-0.6993523c-0.2147369-0.1998749-0.4701996-0.2996025-0.765976-0.2996025
		c-0.1481018,0-0.3997498,0.029705-0.7549438,0.0886917l-0.6878967,0.0889053l-0.1111908-0.6439743L142.6842041,32.1389084z"/>
</g>
<path id="XMLID_4_" class="st0" d="M34.802803,42.1577377c0,8.2035561-7.7922993,14.8564568-17.4028759,14.8564568
	c-2.0964155,0-4.1133614-0.3180237-5.9782457-0.8994484c-1.564414-0.9488678-3.0110264-1.6014824-4.353457-2.0045891
	C2.7806184,51.4007263,0,47.0568161,0,42.1577377c0-12.0443859,10.8349209-29.3346558,15.8245611-41.15411
	c8.4147272,14.1174936-29.735096,43.7030563-7.1629992,53.0502281l-0.8268561-0.7650795
	C-5.4614038,41.00317,24.3079472,14.3807573,17.3095055,2.2609725c-0.3317814-0.5758088-0.7500534-1.191498-1.2518692-1.816725
	C16.1206799,0.2934504,16.1810551,0.1479889,16.2400246,0c0.9213505,2.0045846,2.2911606,4.1641884,3.4224186,6.6665201
	C22.5459805,13.0438023,34.802803,34.6505966,34.802803,42.1577377L34.802803,42.1577377z"/>
<g id="XMLID_31_">
</g>
<g id="XMLID_32_">
</g>
<g id="XMLID_33_">
</g>
<g id="XMLID_34_">
</g>
<g id="XMLID_35_">
</g>
<g id="XMLID_36_">
</g>
</svg>
