<?xml version="1.0" encoding="utf-8"?>
<!-- Generator: Adobe Illustrator 19.0.0, SVG Export Plug-In . SVG Version: 6.00 Build 0)  -->
<svg version="1.1" id="图层_1" xmlns="http://www.w3.org/2000/svg" xmlns:xlink="http://www.w3.org/1999/xlink" x="0px" y="0px"
	 viewBox="-267 390.9 60 60" style="enable-background:new -267 390.9 60 60;" xml:space="preserve">
<style type="text/css">
	.st0{fill:#F7D470;}
	.st1{fill:#D6B345;}
	.st2{fill:#525E6E;}
	.st3{fill:#3A4554;}
	.st4{fill:#D0E7EF;}
	.st5{fill:#B8CDD4;}
	.st6{fill:#353847;}
	.st7{fill:#FF8D89;}
	.st8{fill:#FB6262;}
	.st9{fill:#4ECDDA;}
	.st10{fill:#00A1B3;}
</style>
<g id="XMLID_592_">
</g>
<g id="XMLID_595_">
</g>
<g id="XMLID_596_">
</g>
<g id="XMLID_597_">
</g>
<g id="XMLID_598_">
</g>
<polygon class="st0" points="-247.5,412.3 -247.5,442.8 -255,442.8 -255.1,441.8 -256.9,412.3 "/>
<polygon class="st1" points="-238.1,412.3 -238.1,412.7 -239.9,442.8 -247.5,442.8 -247.5,412.3 "/>
<g>
	<polygon class="st2" points="-248.7,434.5 -249.5,434.6 -249.8,434.7 -251.5,423.8 -253.1,412.3 -253.5,410.2 -259.3,405.8 
		-259.1,405.6 -258.6,404.9 -252.4,409.6 -252.4,409.6 -252,412.3 -250.3,423.8 	"/>
	<polygon class="st3" points="-249.5,434.6 -249.8,434.7 -251.5,423.8 -253.1,412.3 -253.5,410.2 -259.3,405.8 -259.1,405.6 
		-253.2,410 -253.1,410.4 -252.9,412.3 -251.2,423.8 	"/>
</g>
<polygon class="st4" points="-253.5,441.4 -247.5,441.4 -247.5,423.8 -254.8,423.8 "/>
<polygon class="st5" points="-241.5,441.4 -247.5,441.4 -247.5,423.8 -240.2,423.8 "/>
<g>
	<g>
		<g>
			<g>
				<path class="st0" d="M-226.9,420.9V441c-5.4-0.1-9-4-10.2-9h0c0-0.1-0.1-0.2-0.1-0.3C-238.4,426.3-232.4,421-226.9,420.9z"/>
				<path class="st1" d="M-216.4,431.7c0,0.1,0,0.2,0,0.2c-0.3,4.4-4.8,9-10.3,9c0,0-0.1,0-0.1,0v-20.1c0,0,0.1,0,0.1,0
					c2.3,0,4.5,0.8,6.2,2.2c0.7,0.5,1.3,1.1,1.8,1.8C-217.2,426.8-216.4,429.2-216.4,431.7z"/>
			</g>
			<g>
				<path class="st2" d="M-226.9,431.8V442h-7.6l-0.3-1l-2.9-9.1c0.2,0,0.4,0.1,0.6,0.1h0c0.1,0,0.1,0,0.2,0c0.6,0,1.1-0.1,1.4-0.3
					c0.3,0.2,0.8,0.3,1.4,0.3c0.6,0,1.1-0.1,1.4-0.3c0.3,0.2,0.8,0.3,1.4,0.3c0.6,0,1.1-0.1,1.4-0.3c0.3,0.2,0.8,0.3,1.4,0.3
					c0.6,0,1.1-0.1,1.4-0.3C-227,431.7-226.9,431.8-226.9,431.8z"/>
				<path class="st6" d="M-216.1,431.8c-0.3,0.1-0.7,0.2-1.1,0.2c-0.6,0-1.1-0.1-1.4-0.3c-0.3,0.2-0.8,0.3-1.4,0.3
					c-0.6,0-1.1-0.1-1.4-0.3c-0.3,0.2-0.8,0.3-1.4,0.3c-0.6,0-1.1-0.1-1.4-0.3c-0.3,0.2-0.8,0.3-1.4,0.3c-0.5,0-0.9-0.1-1.3-0.2
					v10.3h7.6L-216.1,431.8z"/>
			</g>
			<circle class="st7" cx="-229.4" cy="422.8" r="0.5"/>
			<circle class="st8" cx="-226.2" cy="422.3" r="0.5"/>
			<circle class="st7" cx="-232.6" cy="424.2" r="0.5"/>
			<circle class="st8" cx="-224.1" cy="424.2" r="0.5"/>
			<circle class="st7" cx="-228.5" cy="425.1" r="0.5"/>
			<circle class="st7" cx="-228" cy="423.2" r="0.5"/>
			<circle class="st8" cx="-221.6" cy="423.7" r="0.5"/>
			<circle class="st8" cx="-224.1" cy="422.3" r="0.5"/>
			<path class="st9" d="M-230.6,425.6c0,0.1-0.1,0.1-0.1,0.1l0,0c-0.1,0-0.1-0.1-0.1-0.1v-2.1c0-0.1,0.1-0.1,0.1-0.1l0,0
				c0.1,0,0.1,0.1,0.1,0.1V425.6z"/>
			<path class="st10" d="M-225.2,425.5c0,0.1,0,0.2-0.1,0.2l0,0c-0.1,0-0.2,0-0.2-0.1l-0.9-1.9c0-0.1,0-0.2,0.1-0.2l0,0
				c0.1,0,0.2,0,0.2,0.1L-225.2,425.5z"/>
			<path class="st10" d="M-227.4,421.7c0.1,0,0.1,0.1,0.1,0.1l0,0c0,0.1-0.1,0.1-0.1,0.1l-2.1,0c-0.1,0-0.1-0.1-0.1-0.1l0,0
				c0-0.1,0.1-0.1,0.1-0.1L-227.4,421.7z"/>
			<path class="st10" d="M-222.8,424.7c0,0.1-0.1,0.1-0.2,0.1l0,0c-0.1,0-0.1-0.1-0.1-0.2l0.7-1.9c0-0.1,0.1-0.1,0.2-0.1l0,0
				c0.1,0,0.1,0.1,0.1,0.2L-222.8,424.7z"/>
		</g>
	</g>
</g>
</svg>
