<?xml version="1.0" encoding="utf-8"?>
<!-- Generator: Adobe Illustrator 19.0.0, SVG Export Plug-In . SVG Version: 6.00 Build 0)  -->
<svg version="1.1" id="图层_1" xmlns="http://www.w3.org/2000/svg" xmlns:xlink="http://www.w3.org/1999/xlink" x="0px" y="0px"
	 viewBox="0 0 60 60" style="enable-background:new 0 0 60 60;" xml:space="preserve">
<style type="text/css">
	.st0{fill:#F7D470;}
	.st1{fill:#FFAD8C;}
	.st2{opacity:0.3;fill:#1A0600;}
	.st3{fill:#F2A6BD;}
	.st4{fill:#969595;}
	.st5{fill:#D3A43C;}
</style>
<g id="XMLID_592_">
</g>
<g id="XMLID_595_">
</g>
<g id="XMLID_596_">
</g>
<g id="XMLID_597_">
</g>
<g id="XMLID_598_">
</g>
<path class="st0" d="M53.4,39c0,0.6-0.2,1.1-0.5,1.1H34.4c-0.3,0-0.5-0.5-0.5-1.1V13.4c0-0.6,0.2-1.1,0.5-1.1h18.6
	c0.3,0,0.5,0.5,0.5,1.1V39z"/>
<g>
	<rect x="21.6" y="29.6" class="st1" width="21.5" height="0.2"/>
	<rect x="21.6" y="31.8" class="st1" width="21.5" height="0.2"/>
	<rect x="21.6" y="34.1" class="st1" width="21.5" height="0.2"/>
</g>
<path class="st2" d="M41.5,25.8l-21.7-0.1v0.1l-4.9,0v2.3v3.1v12.4c0,0.4,0.3,0.8,0.7,0.8l25.2-4.5c0.4,0,2.9,0.2,2.9,0.2h9.1
	L41.5,25.8z"/>
<path class="st3" d="M42.3,44.5c0,0.4-0.4,0.8-0.8,0.8h-32c-0.4,0-0.8-0.4-0.8-0.8V26.6c0-0.4,0.4-0.8,0.8-0.8l32,0
	c0.4,0,0.8,0.4,0.8,0.8V44.5z"/>
<rect x="8.7" y="29" class="st4" width="33.6" height="3.1"/>
<rect x="35.7" y="34.3" class="st4" width="5.2" height="6.3"/>
<g>
	<rect x="10.5" y="34.7" class="st4" width="21.5" height="0.2"/>
	<rect x="10.5" y="36.9" class="st4" width="21.5" height="0.2"/>
	<rect x="10.5" y="39.2" class="st4" width="21.5" height="0.2"/>
</g>
<rect x="10.5" y="41.5" class="st4" width="13" height="1.1"/>
<g>
	<path class="st5" d="M42.1,21.7c0.3,0.3,0.8,0.5,1.3,0.6v-3.3c-0.3-0.1-0.6-0.1-0.9-0.2c-0.3-0.1-0.5-0.2-0.7-0.4
		c-0.2-0.2-0.4-0.4-0.5-0.6c-0.1-0.3-0.2-0.6-0.2-1c0-0.3,0.1-0.6,0.2-0.9c0.1-0.3,0.3-0.5,0.5-0.7c0.2-0.2,0.5-0.3,0.7-0.4
		c0.3-0.1,0.6-0.1,0.9-0.1v-0.9h0.4v0.9c0.3,0,0.6,0.1,0.9,0.2c0.3,0.1,0.5,0.3,0.7,0.5c0.2,0.2,0.4,0.5,0.5,0.8
		c0.1,0.3,0.2,0.6,0.2,1h-0.7c0-0.6-0.2-1-0.5-1.3c-0.3-0.3-0.7-0.5-1.2-0.5v3.2c0.3,0.1,0.6,0.1,0.9,0.2c0.3,0.1,0.6,0.2,0.8,0.4
		c0.2,0.2,0.4,0.4,0.6,0.6c0.1,0.3,0.2,0.6,0.2,1c0,0.4-0.1,0.7-0.2,1c-0.1,0.3-0.3,0.5-0.6,0.7c-0.2,0.2-0.5,0.3-0.8,0.4
		c-0.3,0.1-0.6,0.1-0.9,0.1v0.9h-0.4v-0.9c-0.9-0.1-1.5-0.3-1.9-0.8c-0.4-0.4-0.6-1.1-0.6-1.9h0.7C41.6,20.9,41.8,21.4,42.1,21.7z
		 M42.8,15.4c-0.2,0.1-0.4,0.2-0.5,0.3c-0.2,0.1-0.3,0.3-0.4,0.5c-0.1,0.2-0.1,0.5-0.1,0.7c0,0.3,0,0.5,0.1,0.6
		c0.1,0.2,0.2,0.3,0.4,0.4c0.2,0.1,0.3,0.2,0.5,0.2c0.2,0.1,0.4,0.1,0.6,0.2v-3.1C43.2,15.3,43,15.3,42.8,15.4z M44.5,22.3
		c0.2-0.1,0.4-0.2,0.6-0.3c0.2-0.1,0.3-0.3,0.4-0.5c0.1-0.2,0.2-0.4,0.2-0.7c0-0.3-0.1-0.5-0.2-0.7c-0.1-0.2-0.3-0.3-0.4-0.4
		c-0.2-0.1-0.4-0.2-0.6-0.3c-0.2-0.1-0.4-0.1-0.6-0.2v3.2C44.1,22.3,44.3,22.3,44.5,22.3z"/>
</g>
</svg>
