<?xml version="1.0" encoding="utf-8"?>
<!-- Generator: Adobe Illustrator 19.0.0, SVG Export Plug-In . SVG Version: 6.00 Build 0)  -->
<svg version="1.1" id="图层_1" xmlns="http://www.w3.org/2000/svg" xmlns:xlink="http://www.w3.org/1999/xlink" x="0px" y="0px"
	 viewBox="-119 121 60 60" style="enable-background:new -119 121 60 60;" xml:space="preserve">
<style type="text/css">
	.st0{opacity:0.4;fill:#1F2937;enable-background:new    ;}
	.st1{fill:#9FD5F7;}
	.st2{fill:#56ADEF;}
</style>
<path class="st0" d="M-108.5,161.1l38.8,0.1c1.9,0,3.4-1.5,3.4-3.4V144c0-1.9-1.5-3.4-3.4-3.4l-38.8-0.1c-1.9,0-3.4,1.5-3.4,3.4
	v13.8C-111.9,159.6-110.4,161.1-108.5,161.1z"/>
<path class="st1" d="M-68.7,140.8c1.5,0,2.6,1.2,2.6,2.7v13.8c0,1.5-1.2,2.6-2.7,2.6l-38.8-0.1c-1.5,0-2.6-1.2-2.6-2.7v-13.8
	c0-1.5,1.2-2.6,2.7-2.6L-68.7,140.8z"/>
<path class="st2" d="M-108.3,159.1c-1.1,0-1.9-0.9-1.9-1.9v-13.8c0-1.1,0.9-1.9,1.9-1.9l38.8,0.1c1.1,0,1.9,0.9,1.9,1.9v13.8
	c0,1.1-0.9,1.9-1.9,1.9L-108.3,159.1L-108.3,159.1z M-108.3,160.5l38.8,0.1c1.9,0,3.4-1.5,3.4-3.4v-13.8c0-1.9-1.5-3.4-3.4-3.4
	h-38.7c-1.9,0-3.4,1.5-3.4,3.4v13.8C-111.6,159-110.1,160.5-108.3,160.5L-108.3,160.5z"/>
<path class="st2" d="M-72.3,159.1c-0.9-1.2-0.4-3.1,1.1-4.2c1.5-1.2,3.5-1.1,4.4,0c0.9,1.2,0.4,3.1-1.1,4.2
	C-69.5,160.3-71.4,160.3-72.3,159.1z"/>
<ellipse transform="matrix(0.7079 -0.7064 0.7064 0.7079 -121.7838 -7.2538)" class="st2" cx="-69.7" cy="143.6" rx="2.7" ry="3.5"/>
<path class="st2" d="M-105,159.1c0.9-1.2,0.4-3.1-1.1-4.2c-1.5-1.2-3.5-1.2-4.4,0c-0.9,1.2-0.4,3.1,1.1,4.2
	C-107.9,160.3-105.9,160.3-105,159.1z"/>
<ellipse transform="matrix(0.7048 0.7095 -0.7095 0.7048 70.0822 118.6958)" class="st2" cx="-107.6" cy="143.5" rx="2.7" ry="3.5"/>
<path class="st2" d="M-89.4,157c3.7,0,6.7-3,6.8-6.7c0-3.7-3-6.7-6.7-6.7c-3.7,0-6.7,3-6.7,6.7C-96.1,154-93.1,157-89.4,157z
	 M-89.7,146.7v-0.6c0-0.4,0.2-0.7,0.4-0.7c0.2,0,0.4,0.3,0.4,0.6c0,0.4,0.3,0.7,0.7,0.7c0,0,0.8,0.1,1.3,0.5l-0.1,0.2
	c-0.1,0.3-0.5,0.5-0.8,0.3c0,0-0.5-0.3-1.2-0.3c-0.9,0-1.5,0.5-1.5,1.2c0,0.7,0.5,1.1,1.4,1.5c1.3,0.5,2.1,1.1,2.1,2.2
	c0,1-0.8,1.8-1.9,2v0.6c0,0.4-0.2,0.7-0.4,0.7c-0.2,0-0.4-0.3-0.4-0.6c0-0.3-0.3-0.7-0.7-0.7c0,0-0.6-0.1-1-0.3l0.1-0.2
	c0.1-0.3,0.5-0.5,0.8-0.3c0,0,0.2,0.1,1,0.1c1,0,1.3-0.6,1.3-1.1c0-0.7-0.5-1-1.6-1.5c-1.3-0.5-2-1.2-2-2.3
	C-91.7,147.8-91,146.9-89.7,146.7z"/>
</svg>
