<?xml version="1.0" encoding="utf-8"?>
<!-- Generator: Adobe Illustrator 19.0.0, SVG Export Plug-In . SVG Version: 6.00 Build 0)  -->
<svg version="1.1" id="图层_1" xmlns="http://www.w3.org/2000/svg" xmlns:xlink="http://www.w3.org/1999/xlink" x="0px" y="0px"
	 viewBox="-267 390.9 60 60" style="enable-background:new -267 390.9 60 60;" xml:space="preserve">
<style type="text/css">
	.st0{fill:#F7D470;}
	.st1{fill:#FFAD8C;}
	.st2{opacity:0.3;fill:#1A0600;enable-background:new    ;}
	.st3{fill:#81C5EF;}
	.st4{fill:#969595;}
	.st5{fill:#D3A43C;}
</style>
<g id="XMLID_592_">
</g>
<g id="XMLID_595_">
</g>
<g id="XMLID_596_">
</g>
<g id="XMLID_597_">
</g>
<g id="XMLID_598_">
</g>
<path class="st0" d="M-216.7,433.1c0,0.6-0.2,1-0.5,1h-17c-0.3,0-0.5-0.5-0.5-1v-23.5c0-0.6,0.2-1,0.5-1h17.1c0.3,0,0.5,0.5,0.5,1
	L-216.7,433.1L-216.7,433.1z"/>
<g>
	<rect x="-245.9" y="424.5" class="st1" width="19.7" height="0.2"/>
	<rect x="-245.9" y="426.5" class="st1" width="19.7" height="0.2"/>
	<rect x="-245.9" y="428.6" class="st1" width="19.7" height="0.2"/>
</g>
<path class="st2" d="M-227.6,421l-19.9-0.1v0.1h-4.5v2.1v2.8v11.4c0,0.4,0.3,0.7,0.6,0.7l23.1-4.1c0.4,0,2.7,0.2,2.7,0.2h8.4
	L-227.6,421z"/>
<path class="st3" d="M-226.8,438.2c0,0.4-0.4,0.7-0.7,0.7H-257c-0.4,0-0.7-0.4-0.7-0.7v-16.4c0-0.4,0.4-0.7,0.7-0.7h29.4
	c0.4,0,0.7,0.4,0.7,0.7V438.2z"/>
<rect x="-257.7" y="424" class="st4" width="30.9" height="2.8"/>
<rect x="-232.9" y="428.8" class="st4" width="4.8" height="5.8"/>
<g>
	<rect x="-256" y="429.2" class="st4" width="19.7" height="0.2"/>
	<rect x="-256" y="431.2" class="st4" width="19.7" height="0.2"/>
	<rect x="-256" y="433.3" class="st4" width="19.7" height="0.2"/>
</g>
<rect x="-256" y="435.4" class="st4" width="11.9" height="1"/>
<g>
	<path class="st5" d="M-227,417.2c0.3,0.3,0.7,0.5,1.2,0.6v-3c-0.3-0.1-0.6-0.1-0.8-0.2c-0.3-0.1-0.5-0.2-0.6-0.4
		c-0.2-0.2-0.4-0.4-0.5-0.6c-0.1-0.3-0.2-0.6-0.2-0.9c0-0.3,0.1-0.6,0.2-0.8c0.1-0.3,0.3-0.5,0.5-0.6c0.2-0.2,0.5-0.3,0.6-0.4
		c0.3-0.1,0.6-0.1,0.8-0.1V410h0.4v0.8c0.3,0,0.6,0.1,0.8,0.2c0.3,0.1,0.5,0.3,0.6,0.5c0.2,0.2,0.4,0.5,0.5,0.7
		c0.1,0.3,0.2,0.6,0.2,0.9h-0.6c0-0.6-0.2-0.9-0.5-1.2s-0.6-0.5-1.1-0.5v2.9c0.3,0.1,0.6,0.1,0.8,0.2s0.6,0.2,0.7,0.4
		c0.2,0.2,0.4,0.4,0.6,0.6c0.1,0.3,0.2,0.6,0.2,0.9s-0.1,0.6-0.2,0.9c-0.1,0.3-0.3,0.5-0.6,0.6c-0.2,0.2-0.5,0.3-0.7,0.4
		c-0.3,0.1-0.6,0.1-0.8,0.1v0.8h-0.4v-0.8c-0.8-0.1-1.4-0.3-1.7-0.7c-0.4-0.4-0.6-1-0.6-1.7h0.6C-227.5,416.5-227.3,417-227,417.2z
		 M-226.4,411.5c-0.2,0.1-0.4,0.2-0.5,0.3c-0.2,0.1-0.3,0.3-0.4,0.5c-0.1,0.2-0.1,0.5-0.1,0.6c0,0.3,0,0.5,0.1,0.6
		c0.1,0.2,0.2,0.3,0.4,0.4c0.2,0.1,0.3,0.2,0.5,0.2c0.2,0.1,0.4,0.1,0.6,0.2v-2.8C-226,411.4-226.2,411.4-226.4,411.5z
		 M-224.8,417.8c0.2-0.1,0.4-0.2,0.6-0.3c0.2-0.1,0.3-0.3,0.4-0.5c0.1-0.2,0.2-0.4,0.2-0.6s-0.1-0.5-0.2-0.6
		c-0.1-0.2-0.3-0.3-0.4-0.4c-0.2-0.1-0.4-0.2-0.6-0.3c-0.2-0.1-0.4-0.1-0.6-0.2v2.9C-225.2,417.8-225,417.8-224.8,417.8z"/>
</g>
</svg>
