<?xml version="1.0" encoding="utf-8"?>
<!-- Generator: Adobe Illustrator 19.0.0, SVG Export Plug-In . SVG Version: 6.00 Build 0)  -->
<svg version="1.1" id="图层_1" xmlns="http://www.w3.org/2000/svg" xmlns:xlink="http://www.w3.org/1999/xlink" x="0px" y="0px"
	 viewBox="0 0 60 60" style="enable-background:new 0 0 60 60;" xml:space="preserve">
<style type="text/css">
	.st0{fill:#EEC286;}
	.st1{fill:#A4612B;}
	.st2{fill:#F7E6C2;}
	.st3{fill:#D2923D;}
	.st4{fill:#814F29;}
	.st5{fill:#FFFFFF;}
	.st6{fill:#BD681C;}
	.st7{fill:#E9AE5F;}
	.st8{fill:#E7478B;}
	.st9{fill:#E95B8A;}
	.st10{fill:#871E50;}
	.st11{fill:#E54781;}
	.st12{fill:#CC3683;}
	.st13{fill:#981B5E;}
	.st14{fill:#CF3281;}
	.st15{fill:#B72277;}
	.st16{fill:#841E4D;}
	.st17{fill:#C42F7E;}
	.st18{fill:#D83483;}
	.st19{fill:#E2438A;}
	.st20{fill:#B52277;}
	.st21{fill:#E8A5C8;}
	.st22{fill:#E84B88;}
	.st23{fill:#DF3D86;}
	.st24{fill:#C12D7D;}
	.st25{fill:#E1408D;}
	.st26{fill:#7D1E4D;}
	.st27{fill:#E5418B;}
	.st28{fill:#811E4D;}
	.st29{fill:#C22E7E;}
	.st30{fill:#D02F80;}
	.st31{fill:#D63382;}
	.st32{fill:#AB1D71;}
	.st33{fill:#BB2679;}
	.st34{fill:#7E1E4D;}
	.st35{fill:#F4E0ED;}
</style>
<g id="XMLID_634_">
	<g id="XMLID_655_">
		<g id="XMLID_1179_">
			<path id="XMLID_591_" class="st0" d="M48.7,1.2c0.3-0.3,0.6-0.5,0.9-0.4l0,0l0,0c0.2-0.2,0.5-0.4,0.7-0.7
				c0.1-0.2,0.3-0.4,0.4-0.6l1.1,0.5c-0.2,0.5-0.5,0.9-0.8,1.3c-0.3,0.3-0.6,0.6-0.9,0.7c-0.2,0.1-0.4,0.1-0.6,0L49,1.7
				C48.9,1.6,48.7,1.4,48.7,1.2z"/>
			<path id="XMLID_590_" class="st1" d="M48.7,1.2L48.7,1.2c0.1,0.1,0.2,0.3,0.4,0.4l0.4,0.2c0.2,0.1,0.4,0,0.7-0.1
				c0.3-0.1,0.6-0.3,0.9-0.6c0.3-0.3,0.6-0.7,0.8-1.2c-0.2,0.5-0.5,0.9-0.8,1.3c-0.3,0.3-0.6,0.6-0.9,0.7c-0.2,0.1-0.4,0.1-0.6,0
				L49,1.7C48.9,1.6,48.7,1.4,48.7,1.2z"/>
			<path id="XMLID_589_" class="st2" d="M50.9,1.2c0.2-0.2,0.4-0.5,0.6-0.8C51.3,0.7,51.1,1,50.9,1.2c-0.3,0.4-0.6,0.6-0.9,0.7
				c-0.2,0.1-0.4,0.1-0.6,0l-0.3-0.1c0.2,0.1,0.5,0.1,0.7,0.1C50.2,1.7,50.6,1.5,50.9,1.2z"/>
			<path id="XMLID_588_" class="st0" d="M47.9,2.8L47.9,2.8L47.9,2.8L47.9,2.8l0,0.1l0,0l0,0.1v0l0,0.1l0,0l0,0.1l0,0
				c0,0.2,0.1,0.4,0.2,0.6l0,0l0,0v0c0,0.3,0,0.6-0.2,1c-0.1,0-0.1,0-0.2-0.1c-0.9-0.5-1-1.9-0.4-3.1c0.3-0.6,0.8-1.1,1.3-1.4
				c0.3-0.2,0.7-0.3,1-0.3c0.2,0,0.3,0,0.5,0.1c0.1,0,0.1,0.1,0.2,0.1c-0.2,0.3-0.5,0.6-0.7,0.7l0,0c-0.2,0-0.6,0.1-0.9,0.4
				c-0.2,0.2-0.4,0.4-0.5,0.7C48,2.2,47.9,2.5,47.9,2.8L47.9,2.8L47.9,2.8z"/>
			<path id="XMLID_587_" class="st3" d="M47.3,1.5c0.3-0.6,0.8-1.1,1.3-1.4c0.3-0.2,0.7-0.3,1-0.3c0.2,0,0.3,0,0.5,0.1
				c0.1,0,0.1,0.1,0.2,0.1l0,0l-0.1,0C50,0,49.8-0.1,49.7-0.1c-0.3,0-0.7,0.1-1,0.2C48.2,0.4,47.7,0.9,47.3,1.5
				c-0.6,1.3-0.4,2.6,0.5,3.1l0.1,0l0,0c-0.1,0-0.1,0-0.2-0.1C46.9,4.1,46.7,2.8,47.3,1.5z"/>
			<path id="XMLID_586_" class="st0" d="M49.2,3.4c0.2-0.2,0.4-0.4,0.5-0.7C49.9,2.4,50,2.1,50,1.9c0.3-0.1,0.6-0.3,0.9-0.7
				c0.1,0.6,0,1.3-0.4,1.9c-0.3,0.7-0.8,1.2-1.3,1.4C49.3,4.1,49.3,3.7,49.2,3.4L49.2,3.4z"/>
			<path id="XMLID_585_" class="st3" d="M49.2,4.5c0.5-0.3,1-0.8,1.3-1.4c0.3-0.6,0.4-1.3,0.4-1.8l0.1-0.1c0.1,0.6,0,1.3-0.4,1.9
				C50.2,3.8,49.8,4.3,49.2,4.5L49.2,4.5z"/>
			<path id="XMLID_584_" class="st4" d="M49.3,4.3c0-0.1,0-0.2,0-0.3c0.3-0.3,0.6-0.7,0.8-1.1c0.2-0.4,0.4-0.9,0.4-1.3
				c0.1-0.1,0.1-0.1,0.2-0.2c0.1,0.5,0,1.1-0.3,1.6C50.2,3.6,49.7,4,49.3,4.3z"/>
			<path id="XMLID_583_" class="st2" d="M49.3,3.8c0.1,0.1,0.6-0.3,0.9-0.8c0.3-0.6,0.3-1.2,0.2-1.2c-0.2,0-0.2,0.5-0.5,1
				C49.6,3.4,49.2,3.7,49.3,3.8z"/>
			<path id="XMLID_582_" class="st5" d="M50.1,2.9c0.2-0.5,0.3-0.8,0.2-1c0,0,0,0,0,0c0,0,0,0-0.1,0.1c0,0.1,0,0-0.1,0.1
				c-0.1,0.2-0.1,0.4-0.3,0.7c-0.1,0.3-0.3,0.4-0.4,0.6c-0.1,0.1-0.1,0.2-0.2,0.2c0,0.1,0,0.1,0,0.1c0,0,0,0,0,0
				C49.5,3.7,49.9,3.4,50.1,2.9z"/>
			<path id="XMLID_581_" class="st1" d="M48.9,1c0.2-0.2,0.5-0.2,0.6-0.2l0,0l0,0c0.1-0.1,0.3-0.2,0.4-0.4c-0.3,0.4-0.7,0.8-0.7,1.2
				C49.3,1.9,48.8,1.5,48.9,1z"/>
			<path id="XMLID_580_" class="st2" d="M48.9,0.2c-0.5,0-1.2,0.6-1.6,1.6c-0.5,1.2,0,2.2,0,2.2c0,0-0.3-1,0.3-2.2
				C48.2,0.6,49.4,0.2,48.9,0.2z"/>
			<path id="XMLID_579_" class="st5" d="M48.6,0.4c-0.4,0.2-0.8,0.6-1.1,1.2c0,0.1-0.1,0.2-0.1,0.3c-0.3,0.6-0.1,0.6,0.2-0.1
				c0.4-0.7,0.9-1.1,1.2-1.4C48.9,0.3,48.7,0.3,48.6,0.4z"/>
			<path id="XMLID_578_" class="st4" d="M48,2c-0.4,0.7-0.5,1.2-0.5,1.8c0,0.2-0.2,0.4-0.2,0.1c0-0.6,0-1.4,0.4-2.1
				c0.3-0.7,0.9-1.2,1.5-1.5c0.3-0.2,0.3,0,0.2,0.2C48.8,0.9,48.3,1.3,48,2z"/>
			<path id="XMLID_577_" class="st3" d="M48.2,1.9c0.4-0.8,1.1-1.3,1.9-1.6c-0.2,0.2-0.3,0.4-0.5,0.5l0,0c-0.2,0-0.6,0.1-0.9,0.4
				C48.5,1.4,48.3,1.6,48.2,1.9L48.2,1.9L48.2,1.9L48.2,1.9z"/>
			<path id="XMLID_576_" class="st1" d="M48.1,1.9L48.1,1.9c-0.1,0.3-0.2,0.6-0.3,0.8l0,0l0,0l0,0l0,0.1l0,0l0,0.1l0,0l0,0.1v0
				l0,0.1l0,0l0,0.1l0,0c0,0.2,0.1,0.4,0.2,0.6l0,0l0,0v0c0,0.2,0,0.4-0.1,0.7C47.7,3.5,47.8,2.7,48.1,1.9z"/>
			<path id="XMLID_575_" class="st4" d="M47.9,3.5c0,0.1,0.1,0.2,0.1,0.2l0,0l0,0v0c0,0.1,0,0.2,0,0.4C48,3.9,48,3.7,47.9,3.5z"/>
			<path id="XMLID_574_" class="st4" d="M49.5,0.8L49.5,0.8L49.5,0.8C49.3,1,49.1,1,49.1,0.9l0,0C49.2,0.8,49.4,0.8,49.5,0.8z"/>
			<path id="XMLID_573_" class="st1" d="M50.2,0.2c-0.2,0.3-0.4,0.5-0.6,0.6l0,0c-0.1,0-0.2,0-0.2,0C49.5,0.7,49.9,0.4,50.2,0.2z"/>
			<path id="XMLID_572_" class="st2" d="M47.6,3.9c0.1-0.1,0.1-0.3,0.1-0.5c0-0.4,0.1-0.7,0-0.7c-0.1,0-0.2,0.4-0.2,0.8
				C47.4,3.8,47.4,4,47.6,3.9z"/>
			<path id="XMLID_571_" class="st2" d="M49.1,1.3c0.1,0,0.2,0,0.2,0.1c0,0.2,0,0.2-0.1,0.1C49,1.5,48.9,1.4,49.1,1.3z"/>
			<path id="XMLID_570_" class="st0" d="M47.9,4.7c0.1-0.4,0.2-0.7,0.2-1l0,0l0,0c-0.1-0.2-0.2-0.5-0.2-1c0.2-0.1,0.4-0.1,0.6,0
				l0.4,0.2c0.2,0.1,0.3,0.3,0.4,0.5c0.1,0.3,0.1,0.7,0,1.1C49.1,5,49,5.5,48.7,6l-1.1-0.6C47.7,5.2,47.8,4.9,47.9,4.7z"/>
			<path id="XMLID_569_" class="st1" d="M49.2,3.6c-0.1-0.2-0.2-0.4-0.4-0.5l-0.4-0.2c-0.2-0.1-0.3-0.1-0.5-0.1l0-0.1
				c0.2-0.1,0.4-0.1,0.6,0l0.4,0.2c0.2,0.1,0.3,0.3,0.4,0.5c0.1,0.3,0.1,0.7,0,1.1C49.1,5,49,5.5,48.7,6c0.3-0.5,0.4-0.9,0.5-1.3
				C49.3,4.2,49.3,3.8,49.2,3.6z"/>
			<path id="XMLID_568_" class="st2" d="M49.2,4.6c0.1-0.5,0-0.9-0.1-1.2c-0.1-0.3-0.3-0.4-0.5-0.6l0.3,0.2c0.2,0.1,0.3,0.3,0.4,0.5
				C49.3,3.7,49.3,4.1,49.2,4.6c0,0.3-0.1,0.6-0.3,1C49.1,5.2,49.2,4.9,49.2,4.6z"/>
			<path id="XMLID_567_" class="st1" d="M48.1,3.7L48.1,3.7L48.1,3.7c-0.1-0.1-0.2-0.3-0.2-0.5c0.3-0.2,0.8-0.1,0.6,0
				c-0.2,0.1-0.3,0.3-0.5,0.8C48.1,3.9,48.1,3.8,48.1,3.7z"/>
			<g id="XMLID_1205_">
				<polygon id="XMLID_566_" class="st2" points="48.8,0 48.7,0.1 48.8,0 				"/>
				<path id="XMLID_565_" class="st5" d="M48.9,0L48.9,0c0.1,0,0.1,0,0.2-0.1l0,0C49,0,48.9,0,48.8,0L48.9,0z"/>
				<path id="XMLID_564_" class="st5" d="M48.9,0L48.9,0L48.9,0z"/>
				<polygon id="XMLID_563_" class="st5" points="48.9,0 48.8,0 48.8,0 				"/>
				<path id="XMLID_562_" class="st5" d="M49-0.1L49-0.1c0,0-0.1,0-0.1,0L49-0.1z"/>
				<path id="XMLID_561_" class="st3" d="M49.1-0.1L49.1-0.1c0.1,0,0.2-0.1,0.3-0.1C49.3-0.1,49.2-0.1,49.1-0.1L49.1-0.1z"/>
				<polygon id="XMLID_560_" class="st3" points="49.1,-0.1 49.1,-0.1 49.1,-0.1 				"/>
				<polygon id="XMLID_559_" class="st3" points="49.1,-0.1 49.1,-0.1 49.1,-0.1 				"/>
				<polygon id="XMLID_558_" class="st3" points="49.1,-0.1 49.1,-0.1 49.1,-0.1 49,-0.1 				"/>
			</g>
			<g id="XMLID_1201_">
				<path id="XMLID_557_" class="st4" d="M48.8,3.6L48.8,3.6c0-0.3,0.2-0.1,0.2,0.2c0,0.7-0.1,1.4-0.5,2.1l-0.4-0.2
					C48.7,4.7,48.9,3.8,48.8,3.6z"/>
				<path id="XMLID_556_" class="st2" d="M48.6,3.8c-0.1,0.1-0.1,0.2-0.2,0.4c-0.1,0.3-0.3,0.7-0.6,1.2l0,0c0.7-1.2,0.8-1.9,1-1.9
					c0,0,0.1,0,0.1,0.1c0.1,0.2-0.1,1.1-0.7,2.1l0,0l-0.1,0c0.6-1.1,0.7-1.8,0.6-1.9c0,0,0,0,0,0C48.7,3.7,48.6,3.7,48.6,3.8z"/>
				<path id="XMLID_555_" class="st5" d="M48.4,4.3c0.1-0.2,0.1-0.3,0.2-0.4c0.1-0.1,0.1-0.2,0.1-0.2c0,0,0,0,0,0
					c0.1,0.1,0,0.9-0.6,1.9l-0.3-0.2C48.1,5,48.2,4.6,48.4,4.3z"/>
			</g>
			<g id="XMLID_1184_">
				<path id="XMLID_554_" class="st0" d="M47.2,4.1L47.2,4.1c0,0.1,0.1,0.1,0.1,0.2C47.2,4.5,47,4.7,46.9,5l-0.2-0.1
					C46.9,4.6,47.1,4.4,47.2,4.1z"/>
				<path id="XMLID_553_" class="st0" d="M46.2,4.6L46.2,4.6c0.2-0.5,0.5-0.9,0.8-1.2l0,0.1C46.7,3.8,46.4,4.1,46.2,4.6z"/>
				<path id="XMLID_552_" class="st0" d="M47.1,4L47.1,4L47.1,4z"/>
				<polygon id="XMLID_551_" class="st2" points="47,3.5 47,3.5 47,3.5 47,3.5 				"/>
				<path id="XMLID_550_" class="st2" d="M47,3.5L47,3.5c-0.2,0.3-0.5,0.7-0.7,1.1l0,0C46.4,4.1,46.7,3.8,47,3.5z"/>
				<path id="XMLID_549_" class="st5" d="M47,3.7L47,3.7l0-0.1c0,0.1,0,0.2,0.1,0.3l0,0C47.1,3.8,47.1,3.7,47,3.7z"/>
				<path id="XMLID_548_" class="st5" d="M47,3.7L47,3.7L47,3.7z"/>
				<polygon id="XMLID_547_" class="st5" points="47,3.5 47,3.5 47,3.5 47,3.7 				"/>
				<path id="XMLID_546_" class="st5" d="M47,3.7c0,0.1,0,0.1,0,0.2l0,0L47,3.7z"/>
				<path id="XMLID_545_" class="st5" d="M47.1,3.8c-0.2,0.3-0.4,0.6-0.6,0.9l-0.2-0.1c0.3-0.5,0.6-0.9,0.8-1.1l0,0.1v0L47.1,3.8z"
					/>
				<path id="XMLID_544_" class="st3" d="M47.2,4.1c0-0.1-0.1-0.1-0.1-0.2C47.2,4,47.2,4.1,47.2,4.1z"/>
				<path id="XMLID_543_" class="st3" d="M47.1,3.8L47.1,3.8c0,0,0,0.1,0.1,0.1L47.1,3.8L47.1,3.8z"/>
				<polygon id="XMLID_542_" class="st3" points="47.1,3.8 47.1,3.9 47.1,3.8 				"/>
				<polygon id="XMLID_541_" class="st3" points="47.1,3.8 47.1,3.8 47.1,3.8 				"/>
				<polygon id="XMLID_540_" class="st3" points="47.1,3.8 47.1,3.8 47.1,3.8 47.1,3.8 				"/>
				<path id="XMLID_539_" class="st3" d="M47.1,3.8L47.1,3.8L47.1,3.8L47.1,4l0,0c0,0.1,0.1,0.1,0.1,0.2l0,0
					c-0.2,0.2-0.3,0.5-0.5,0.8l-0.2-0.1l0,0l-0.1,0C46.6,4.4,46.9,4.1,47.1,3.8z"/>
			</g>
			<g id="XMLID_1180_">
				<path id="XMLID_538_" class="st4" d="M49.8,1.5L50,1.4c0.2,0,0.7-0.7,1.2-1.7c0,0,0,0,0,0l0.4,0.2c-0.3,0.7-0.8,1.3-1.4,1.7
					C49.9,1.7,49.7,1.7,49.8,1.5z"/>
				<path id="XMLID_537_" class="st2" d="M49.9,1.4c-0.1-0.2,0.3-0.6,0.9-1.9c0,0,0,0,0,0l0,0c-0.2,0.5-0.4,0.9-0.6,1.1
					C50.1,0.8,50.1,0.9,50,1c-0.1,0.1-0.1,0.2,0,0.2c0,0,0,0,0,0c0.2,0,0.6-0.6,1.1-1.6l0.1,0l0,0c0,0,0,0,0,0
					C50.7,0.7,50.2,1.4,49.9,1.4C49.9,1.4,49.9,1.4,49.9,1.4z"/>
				<path id="XMLID_536_" class="st5" d="M50,1.2C50,1.2,50,1.2,50,1.2c0,0,0-0.1,0-0.2c0-0.1,0.1-0.2,0.2-0.4
					c0.2-0.3,0.4-0.6,0.6-1.1l0.3,0.1C50.6,0.7,50.1,1.2,50,1.2z"/>
			</g>
		</g>
		<g id="XMLID_1113_">
			<path id="XMLID_535_" class="st0" d="M45.5,7c0.3-0.3,0.7-0.4,0.9-0.4v0l0,0c0.2-0.1,0.5-0.3,0.8-0.6c0.1-0.2,0.3-0.4,0.4-0.6
				L48.7,6c-0.3,0.5-0.6,0.9-0.9,1.2c-0.3,0.3-0.7,0.5-1,0.6c-0.2,0.1-0.4,0-0.6-0.1l-0.4-0.2C45.7,7.4,45.5,7.2,45.5,7z"/>
			<path id="XMLID_534_" class="st1" d="M45.5,7L45.5,7c0.1,0.1,0.2,0.3,0.3,0.4l0.4,0.2c0.2,0.1,0.4,0.1,0.7,0
				c0.3-0.1,0.6-0.3,0.9-0.5c0.3-0.3,0.6-0.7,0.9-1.1c-0.3,0.5-0.6,0.9-0.9,1.2c-0.3,0.3-0.7,0.5-1,0.6c-0.2,0.1-0.4,0-0.6-0.1
				l-0.4-0.2C45.7,7.4,45.5,7.2,45.5,7z"/>
			<path id="XMLID_533_" class="st2" d="M47.7,7.2C48,7,48.2,6.7,48.4,6.4C48.2,6.7,48,7,47.7,7.2c-0.3,0.3-0.6,0.5-0.9,0.6
				c-0.2,0.1-0.4,0-0.6-0.1l-0.3-0.2c0.2,0.1,0.5,0.2,0.7,0.1C47,7.6,47.4,7.5,47.7,7.2z"/>
			<path id="XMLID_532_" class="st0" d="M44.6,8.5L44.6,8.5L44.6,8.5L44.6,8.5l0,0.1l0,0l0,0.1l0,0l0,0.1l0,0l0,0.1v0
				c0,0.2,0,0.4,0.1,0.6h0l0,0v0c0,0.3-0.1,0.6-0.3,1c-0.1,0-0.1-0.1-0.2-0.1c-0.8-0.6-0.8-2-0.1-3.1c0.4-0.6,0.9-1,1.4-1.3
				c0.3-0.2,0.7-0.2,1-0.2c0.2,0,0.3,0.1,0.5,0.2c0.1,0,0.1,0.1,0.1,0.1c-0.2,0.3-0.5,0.5-0.8,0.6l0,0c-0.2,0-0.6,0.1-0.9,0.4
				c-0.2,0.2-0.4,0.4-0.6,0.6C44.8,7.9,44.6,8.2,44.6,8.5L44.6,8.5L44.6,8.5z"/>
			<path id="XMLID_531_" class="st3" d="M44.1,7.1c0.4-0.6,0.9-1,1.4-1.3c0.3-0.2,0.7-0.2,1-0.2c0.2,0,0.3,0.1,0.5,0.2
				c0.1,0,0.1,0.1,0.1,0.1l0,0l-0.1-0.1c-0.1-0.1-0.3-0.1-0.5-0.2c-0.3-0.1-0.7,0-1,0.2C45.1,6.2,44.6,6.6,44.1,7.1
				c-0.7,1.2-0.7,2.6,0.2,3.2l0.1,0.1l0,0c-0.1,0-0.1-0.1-0.2-0.1C43.4,9.7,43.4,8.3,44.1,7.1z"/>
			<path id="XMLID_530_" class="st0" d="M45.9,9.3c0.2-0.2,0.4-0.4,0.6-0.7c0.2-0.3,0.3-0.6,0.3-0.8c0.3-0.1,0.6-0.3,1-0.6
				c0,0.6-0.1,1.3-0.5,1.9c-0.4,0.6-1,1.1-1.5,1.3C45.9,9.9,45.9,9.6,45.9,9.3L45.9,9.3z"/>
			<path id="XMLID_529_" class="st3" d="M45.7,10.3c0.5-0.2,1-0.7,1.4-1.3c0.4-0.6,0.6-1.2,0.5-1.8l0.1-0.1c0,0.6-0.1,1.3-0.5,1.9
				C46.8,9.7,46.3,10.2,45.7,10.3L45.7,10.3z"/>
			<path id="XMLID_528_" class="st4" d="M45.8,10.1c0-0.1,0-0.2,0.1-0.3c0.3-0.3,0.6-0.6,0.9-1C47,8.4,47.2,8,47.3,7.5
				c0.1,0,0.2-0.1,0.2-0.2c0,0.5-0.1,1.1-0.5,1.6C46.7,9.5,46.3,9.9,45.8,10.1z"/>
			<path id="XMLID_527_" class="st2" d="M45.9,9.6c0.1,0.1,0.6-0.2,0.9-0.7c0.3-0.5,0.4-1.1,0.3-1.2c-0.2,0-0.2,0.5-0.6,1
				C46.2,9.2,45.8,9.5,45.9,9.6z"/>
			<path id="XMLID_526_" class="st5" d="M46.8,8.8c0.3-0.4,0.4-0.8,0.3-0.9c0,0,0,0,0,0c0,0,0,0-0.1,0.1c0,0.1,0,0-0.1,0.1
				c-0.1,0.2-0.2,0.4-0.3,0.7c-0.2,0.2-0.3,0.4-0.5,0.6c-0.1,0.1-0.2,0.2-0.2,0.2c0,0.1,0,0.1,0,0.1c0,0,0,0,0,0
				C46.1,9.6,46.5,9.3,46.8,8.8z"/>
			<path id="XMLID_525_" class="st1" d="M45.8,6.8c0.2-0.1,0.5-0.2,0.7-0.2v0l0,0c0.2-0.1,0.3-0.2,0.5-0.3c-0.4,0.4-0.8,0.7-0.8,1.2
				C46.1,7.7,45.6,7.2,45.8,6.8z"/>
			<path id="XMLID_524_" class="st2" d="M45.8,6c-0.5,0-1.3,0.5-1.8,1.5c-0.6,1.1-0.2,2.2-0.2,2.2c0,0-0.1-1.1,0.6-2.2
				C45.1,6.4,46.4,6,45.8,6z"/>
			<path id="XMLID_523_" class="st5" d="M45.5,6.1c-0.4,0.1-0.8,0.5-1.2,1.1c-0.1,0.1-0.1,0.2-0.2,0.3c-0.3,0.6-0.2,0.6,0.2,0
				c0.4-0.6,1-1,1.3-1.3C45.8,6.1,45.6,6.1,45.5,6.1z"/>
			<path id="XMLID_522_" class="st4" d="M44.7,7.7c-0.4,0.7-0.6,1.1-0.7,1.7c0,0.2-0.2,0.3-0.2,0c0-0.6,0.2-1.4,0.6-2
				c0.4-0.6,1-1.1,1.6-1.4c0.3-0.1,0.3,0.1,0.2,0.2C45.6,6.7,45.2,7,44.7,7.7z"/>
			<path id="XMLID_521_" class="st3" d="M44.9,7.6c0.5-0.7,1.2-1.2,2.1-1.4c-0.2,0.2-0.4,0.3-0.6,0.4l0,0c-0.2,0-0.6,0.1-0.9,0.4
				C45.3,7.1,45.1,7.4,44.9,7.6L44.9,7.6L44.9,7.6L44.9,7.6z"/>
			<path id="XMLID_520_" class="st1" d="M44.9,7.6L44.9,7.6c-0.2,0.3-0.3,0.5-0.3,0.8h0l0,0l0,0l0,0.1l0,0l0,0.1l0,0l0,0.1l0,0
				l0,0.1l0,0l0,0.1v0c0,0.2,0,0.4,0.1,0.6h0l0,0v0c0,0.2-0.1,0.4-0.2,0.7C44.3,9.2,44.5,8.3,44.9,7.6z"/>
			<path id="XMLID_519_" class="st4" d="M44.5,9.1c0,0.1,0.1,0.2,0.1,0.3h0l0,0v0c0,0.1,0,0.2-0.1,0.4C44.6,9.6,44.5,9.4,44.5,9.1z"
				/>
			<path id="XMLID_518_" class="st4" d="M46.4,6.6L46.4,6.6L46.4,6.6c-0.2,0.2-0.5,0.2-0.5,0.1l0,0C46.1,6.6,46.3,6.6,46.4,6.6z"/>
			<path id="XMLID_517_" class="st1" d="M47.1,6.1c-0.2,0.2-0.4,0.4-0.7,0.5l0,0c-0.1,0-0.2,0-0.2,0C46.4,6.5,46.8,6.3,47.1,6.1z"/>
			<path id="XMLID_516_" class="st2" d="M44.1,9.5c0.1,0,0.1-0.3,0.2-0.5c0.1-0.4,0.2-0.7,0.1-0.7c-0.1,0-0.2,0.3-0.3,0.7
				C44,9.4,44,9.6,44.1,9.5z"/>
			<path id="XMLID_515_" class="st2" d="M45.9,7.1c0.1,0,0.2,0,0.2,0.2c0,0.2,0,0.2-0.1,0.1C45.8,7.3,45.7,7.2,45.9,7.1z"/>
			<path id="XMLID_514_" class="st0" d="M44.4,10.4c0.2-0.3,0.3-0.7,0.3-1l0,0l0,0c-0.1-0.2-0.2-0.6-0.1-1c0.2-0.1,0.4,0,0.6,0.1
				l0.3,0.2c0.2,0.1,0.3,0.3,0.3,0.5c0.1,0.3,0,0.7-0.1,1.1c-0.1,0.4-0.4,0.9-0.7,1.4L44,11C44.2,10.8,44.3,10.6,44.4,10.4z"/>
			<path id="XMLID_513_" class="st1" d="M45.8,9.4c-0.1-0.2-0.2-0.4-0.3-0.5l-0.4-0.2c-0.1-0.1-0.3-0.1-0.5-0.1l0-0.1
				c0.2-0.1,0.4,0,0.6,0.1l0.3,0.2c0.2,0.1,0.3,0.3,0.3,0.5c0.1,0.3,0,0.7-0.1,1.1c-0.1,0.4-0.4,0.9-0.7,1.4
				c0.3-0.4,0.5-0.9,0.7-1.3C45.8,10,45.8,9.7,45.8,9.4z"/>
			<path id="XMLID_512_" class="st2" d="M45.7,10.4c0.1-0.5,0.1-0.9,0-1.2c-0.1-0.3-0.2-0.5-0.4-0.6l0.3,0.2
				c0.2,0.1,0.3,0.3,0.3,0.5C45.9,9.6,45.9,9.9,45.7,10.4c-0.1,0.3-0.2,0.6-0.4,0.9C45.5,11,45.6,10.7,45.7,10.4z"/>
			<path id="XMLID_511_" class="st1" d="M44.7,9.4L44.7,9.4L44.7,9.4c-0.1-0.1-0.1-0.3-0.1-0.5c0.4-0.2,0.8,0,0.6,0.1
				c-0.2,0.1-0.4,0.3-0.6,0.8C44.6,9.6,44.6,9.5,44.7,9.4z"/>
			<g id="XMLID_1139_">
				<path id="XMLID_510_" class="st0" d="M46.9,5c-0.1,0.2-0.3,0.5-0.3,0.7c-0.1,0-0.1,0-0.2,0c0.1-0.2,0.2-0.5,0.4-0.8L46.9,5z"/>
				<path id="XMLID_509_" class="st0" d="M45.7,5.8L45.7,5.8l-0.1,0c0.1-0.4,0.3-0.9,0.5-1.4l0.1,0.1C45.9,5,45.8,5.5,45.7,5.8z"/>
				<polygon id="XMLID_508_" class="st2" points="45.7,5.8 45.7,5.8 45.7,5.8 				"/>
				<path id="XMLID_507_" class="st2" d="M46.2,4.6L46.2,4.6c-0.2,0.5-0.4,1-0.5,1.2l-0.1,0l0,0C45.8,5.5,45.9,5,46.2,4.6z"/>
				<path id="XMLID_506_" class="st5" d="M45.8,5.8L45.8,5.8c0.1,0,0.1,0,0.2,0l0,0c-0.1,0-0.2,0-0.3,0.1L45.8,5.8z"/>
				<path id="XMLID_505_" class="st5" d="M45.8,5.8L45.8,5.8L45.8,5.8z"/>
				<polygon id="XMLID_504_" class="st5" points="45.8,5.8 45.7,5.8 45.7,5.8 				"/>
				<path id="XMLID_503_" class="st5" d="M46,5.7L46,5.7c0,0-0.1,0-0.1,0L46,5.7z"/>
				<path id="XMLID_502_" class="st5" d="M46.2,4.6l0.2,0.1c-0.2,0.4-0.4,0.7-0.5,1l0,0l-0.1,0l0,0l-0.1,0C45.8,5.5,46,5.1,46.2,4.6
					z"/>
				<path id="XMLID_501_" class="st3" d="M46,5.7L46,5.7c0.1,0,0.2,0,0.3,0C46.2,5.7,46.1,5.7,46,5.7L46,5.7z"/>
				<polygon id="XMLID_500_" class="st3" points="46,5.7 46,5.7 46,5.7 				"/>
				<polygon id="XMLID_499_" class="st3" points="46,5.7 46,5.7 46,5.7 				"/>
				<polygon id="XMLID_498_" class="st3" points="46,5.7 46,5.7 46,5.7 46,5.7 				"/>
				<path id="XMLID_497_" class="st3" d="M46.4,4.7L46.4,4.7L46.4,4.7l0.3,0.2c-0.2,0.3-0.3,0.6-0.4,0.8c-0.1,0-0.2,0-0.3,0l0,0l0,0
					l0,0C46.1,5.4,46.2,5.1,46.4,4.7z"/>
			</g>
			<g id="XMLID_1135_">
				<path id="XMLID_496_" class="st4" d="M45.4,9.4L45.4,9.4c0-0.3,0.2-0.1,0.2,0.2c0,0.7-0.3,1.4-0.8,2l-0.3-0.3
					C45.2,10.4,45.5,9.6,45.4,9.4z"/>
				<path id="XMLID_495_" class="st2" d="M45.1,9.6C45.1,9.7,45,9.8,44.9,10c-0.2,0.3-0.4,0.7-0.7,1.1l0,0c0.8-1.1,1-1.8,1.2-1.8
					c0,0,0.1,0,0.1,0.1c0.1,0.2-0.2,1.1-0.9,2l0,0l-0.1,0c0.7-1,0.9-1.7,0.9-1.9c0,0,0,0,0,0C45.2,9.4,45.2,9.5,45.1,9.6z"/>
				<path id="XMLID_494_" class="st5" d="M44.9,10c0.1-0.2,0.2-0.3,0.2-0.4c0.1-0.1,0.1-0.1,0.2-0.1c0,0,0,0,0,0
					c0.1,0.1-0.1,0.9-0.9,1.9l-0.3-0.2C44.5,10.7,44.7,10.3,44.9,10z"/>
			</g>
			<g id="XMLID_1118_">
				<path id="XMLID_493_" class="st0" d="M43.8,9.7L43.8,9.7c0,0.1,0.1,0.1,0.1,0.2c-0.2,0.2-0.4,0.4-0.5,0.6l-0.1-0.1
					C43.4,10.2,43.6,9.9,43.8,9.7z"/>
				<path id="XMLID_492_" class="st0" d="M42.7,10L42.7,10c0.2-0.5,0.6-0.8,0.9-1.1l0,0.1C43.3,9.3,43,9.6,42.7,10z"/>
				<path id="XMLID_491_" class="st0" d="M43.7,9.6L43.7,9.6L43.7,9.6z"/>
				<polygon id="XMLID_490_" class="st2" points="43.6,9.1 43.6,9 43.6,9.1 43.6,9.1 				"/>
				<path id="XMLID_489_" class="st2" d="M43.6,9L43.6,9c-0.2,0.3-0.5,0.6-0.9,1l0,0C43,9.6,43.3,9.3,43.6,9z"/>
				<path id="XMLID_488_" class="st5" d="M43.6,9.2L43.6,9.2l0-0.1c0,0.1,0,0.2,0.1,0.3l0,0C43.7,9.4,43.6,9.3,43.6,9.2z"/>
				<path id="XMLID_487_" class="st5" d="M43.6,9.2L43.6,9.2L43.6,9.2z"/>
				<polygon id="XMLID_486_" class="st5" points="43.6,9.1 43.6,9.1 43.6,9.1 43.6,9.2 				"/>
				<path id="XMLID_485_" class="st5" d="M43.6,9.2c0,0.1,0,0.1,0,0.2l0,0L43.6,9.2z"/>
				<path id="XMLID_484_" class="st5" d="M43.7,9.4c-0.2,0.2-0.5,0.5-0.7,0.8l-0.2-0.1c0.3-0.4,0.7-0.8,0.9-1l0,0.1v0L43.7,9.4z"/>
				<path id="XMLID_483_" class="st3" d="M43.8,9.7c0-0.1,0-0.1-0.1-0.2C43.7,9.6,43.8,9.7,43.8,9.7z"/>
				<path id="XMLID_482_" class="st3" d="M43.7,9.4L43.7,9.4c0,0,0,0.1,0,0.1L43.7,9.4L43.7,9.4z"/>
				<polygon id="XMLID_481_" class="st3" points="43.7,9.4 43.7,9.4 43.7,9.4 				"/>
				<polygon id="XMLID_480_" class="st3" points="43.7,9.4 43.7,9.4 43.7,9.4 				"/>
				<polygon id="XMLID_479_" class="st3" points="43.7,9.4 43.7,9.4 43.7,9.4 43.7,9.4 				"/>
				<path id="XMLID_478_" class="st3" d="M43.7,9.4L43.7,9.4L43.7,9.4l0.1,0.2v0c0,0.1,0,0.1,0.1,0.2l0,0c-0.2,0.2-0.4,0.4-0.6,0.7
					L43,10.3l0,0l0,0C43.2,9.9,43.4,9.6,43.7,9.4z"/>
			</g>
			<g id="XMLID_1114_">
				<path id="XMLID_477_" class="st4" d="M46.6,7.4l0.1-0.1c0.2,0,0.8-0.6,1.4-1.6c0,0,0,0,0,0l0.4,0.2c-0.4,0.7-0.9,1.2-1.5,1.5
					C46.7,7.6,46.5,7.5,46.6,7.4z"/>
				<path id="XMLID_476_" class="st2" d="M46.7,7.3c-0.1-0.2,0.4-0.6,1.1-1.8c0,0,0,0,0,0l0,0c-0.3,0.5-0.5,0.8-0.7,1.1
					c-0.1,0.1-0.2,0.3-0.2,0.4c-0.1,0.1-0.1,0.2-0.1,0.2c0,0,0,0,0,0c0.2,0,0.7-0.5,1.3-1.5l0.1,0l0,0c0,0,0,0,0,0
					C47.6,6.7,47,7.3,46.7,7.3C46.7,7.3,46.7,7.3,46.7,7.3z"/>
				<path id="XMLID_475_" class="st5" d="M46.8,7.1C46.8,7.1,46.8,7.1,46.8,7.1c0,0,0-0.1,0.1-0.2c0.1-0.1,0.1-0.2,0.2-0.4
					c0.2-0.2,0.4-0.6,0.7-1.1l0.3,0.2C47.5,6.6,47,7.1,46.8,7.1z"/>
			</g>
		</g>
		<g id="XMLID_1047_">
			<path id="XMLID_474_" class="st0" d="M41.7,12.3c0.4-0.2,0.7-0.3,1-0.2l0,0l0,0c0.3-0.1,0.6-0.3,0.8-0.5c0.2-0.2,0.3-0.3,0.5-0.6
				l1,0.7c-0.3,0.5-0.7,0.8-1.1,1.1c-0.4,0.3-0.7,0.4-1,0.5c-0.2,0-0.4,0-0.6-0.1L42,12.9C41.8,12.7,41.7,12.6,41.7,12.3z"/>
			<path id="XMLID_473_" class="st1" d="M41.7,12.3L41.7,12.3c0.1,0.1,0.1,0.4,0.3,0.5l0.3,0.3c0.2,0.1,0.4,0.1,0.7,0.1
				c0.3,0,0.7-0.2,1-0.4c0.4-0.2,0.7-0.6,1-1c-0.3,0.5-0.7,0.8-1.1,1.1c-0.4,0.3-0.7,0.4-1,0.5c-0.2,0-0.4,0-0.6-0.1L42,12.9
				C41.8,12.7,41.7,12.6,41.7,12.3z"/>
			<path id="XMLID_472_" class="st2" d="M43.9,12.8c0.3-0.2,0.5-0.4,0.8-0.6C44.4,12.4,44.2,12.6,43.9,12.8c-0.3,0.3-0.7,0.5-1,0.5
				c-0.2,0-0.4,0-0.6-0.1L42,12.9c0.2,0.2,0.4,0.2,0.7,0.2C43.1,13.2,43.5,13,43.9,12.8z"/>
			<path id="XMLID_471_" class="st0" d="M40.6,13.6L40.6,13.6L40.6,13.6L40.6,13.6l0,0.1l0,0l0,0.1l0,0l0,0.1l0,0l0,0.1l0,0
				c0,0.2,0,0.4,0,0.6l0,0l0,0l0,0c-0.1,0.3-0.2,0.6-0.4,0.9c0,0-0.1-0.1-0.1-0.1c-0.7-0.7-0.5-2.1,0.4-3.1c0.5-0.5,1-0.9,1.5-1
				c0.4-0.1,0.7-0.1,1,0c0.2,0,0.3,0.1,0.4,0.2c0,0,0.1,0.1,0.1,0.1c-0.3,0.3-0.6,0.4-0.8,0.5l0,0c-0.2-0.1-0.6,0-1,0.2
				c-0.2,0.1-0.4,0.3-0.6,0.5C40.8,13.1,40.7,13.3,40.6,13.6L40.6,13.6L40.6,13.6z"/>
			<path id="XMLID_470_" class="st3" d="M40.4,12.3c0.5-0.5,1-0.9,1.5-1c0.4-0.1,0.7-0.1,1,0c0.2,0,0.3,0.1,0.4,0.2
				c0,0,0.1,0.1,0.1,0.1l0,0l-0.1-0.1c-0.1-0.1-0.3-0.2-0.4-0.2c-0.3-0.1-0.7-0.1-1,0C41.4,11.4,40.9,11.8,40.4,12.3
				c-0.8,1.1-1,2.4-0.4,3.1l0.1,0.1l0,0c0,0-0.1-0.1-0.1-0.1C39.3,14.6,39.5,13.3,40.4,12.3z"/>
			<path id="XMLID_469_" class="st0" d="M41.7,14.6c0.2-0.1,0.5-0.3,0.7-0.6c0.2-0.3,0.4-0.5,0.5-0.8c0.3,0,0.7-0.2,1-0.5
				c0,0.6-0.3,1.3-0.8,1.8c-0.5,0.6-1.1,0.9-1.7,1.1C41.6,15.3,41.7,14.9,41.7,14.6L41.7,14.6z"/>
			<path id="XMLID_468_" class="st3" d="M41.4,15.6c0.6-0.1,1.1-0.5,1.6-1c0.5-0.5,0.7-1.2,0.8-1.7l0.1,0c0,0.6-0.3,1.3-0.8,1.8
				C42.6,15.2,42,15.6,41.4,15.6L41.4,15.6z"/>
			<path id="XMLID_467_" class="st4" d="M41.5,15.4c0-0.1,0.1-0.2,0.1-0.3c0.4-0.2,0.7-0.5,1.1-0.9c0.3-0.4,0.6-0.8,0.7-1.2
				c0.1,0,0.2-0.1,0.3-0.1c0,0.5-0.3,1.1-0.7,1.5C42.6,15,42,15.3,41.5,15.4z"/>
			<path id="XMLID_466_" class="st2" d="M41.7,15c0.1,0.2,0.6-0.1,1.1-0.6c0.4-0.5,0.6-1.1,0.5-1.1c-0.2-0.1-0.3,0.4-0.7,0.9
				C42.1,14.6,41.6,14.8,41.7,15z"/>
			<path id="XMLID_465_" class="st5" d="M42.7,14.3c0.4-0.4,0.5-0.7,0.4-0.9c0,0,0,0,0,0c0,0,0,0-0.1,0.1c0,0.1,0,0-0.1,0.1
				c-0.1,0.2-0.2,0.4-0.4,0.6c-0.2,0.2-0.4,0.4-0.5,0.5c-0.1,0.1-0.2,0.1-0.2,0.2c-0.1,0.1,0,0.1,0,0.1c0,0,0,0,0,0
				C41.9,15,42.4,14.7,42.7,14.3z"/>
			<path id="XMLID_464_" class="st1" d="M42,12.2c0.3-0.1,0.5-0.1,0.7-0.1l0,0l0,0c0.2-0.1,0.3-0.2,0.5-0.3
				c-0.4,0.3-0.8,0.6-0.9,1.1C42.2,13.1,41.8,12.6,42,12.2z"/>
			<path id="XMLID_463_" class="st2" d="M42.2,11.4c-0.5-0.1-1.3,0.3-1.9,1.2c-0.8,1-0.6,2.1-0.6,2.1c0,0,0-1.1,0.9-2
				C41.4,11.7,42.7,11.5,42.2,11.4z"/>
			<path id="XMLID_462_" class="st5" d="M41.8,11.5c-0.4,0.1-0.9,0.4-1.3,0.9c-0.1,0.1-0.1,0.2-0.2,0.2c-0.4,0.5-0.2,0.5,0.2,0
				c0.5-0.6,1.1-0.9,1.5-1C42.1,11.5,41.9,11.4,41.8,11.5z"/>
			<path id="XMLID_461_" class="st4" d="M40.9,12.9c-0.5,0.6-0.7,1-1,1.6c-0.1,0.2-0.3,0.3-0.2,0c0.2-0.6,0.4-1.3,0.9-1.9
				c0.5-0.5,1.2-0.9,1.7-1.1c0.3-0.1,0.3,0.1,0.1,0.2C41.9,12,41.4,12.3,40.9,12.9z"/>
			<path id="XMLID_460_" class="st3" d="M41.1,12.9c0.5-0.6,1.3-1,2.2-1.1c-0.2,0.2-0.4,0.3-0.6,0.4l0,0c-0.2-0.1-0.6,0-1,0.2
				C41.5,12.4,41.3,12.6,41.1,12.9L41.1,12.9L41.1,12.9L41.1,12.9z"/>
			<path id="XMLID_459_" class="st1" d="M41,12.9L41,12.9c-0.2,0.2-0.3,0.5-0.4,0.7h0l0,0l0,0l0,0.1l0,0l0,0.1l0,0l0,0.1l0,0l0,0.1
				l0,0l0,0.1l0,0c0,0.2,0,0.4,0,0.6l0,0l0,0l0,0c0,0.2-0.1,0.4-0.3,0.6C40.2,14.3,40.5,13.5,41,12.9z"/>
			<path id="XMLID_458_" class="st4" d="M40.4,14.3c0,0.1,0,0.2,0,0.3l0,0l0,0l0,0c0,0.1-0.1,0.2-0.1,0.4
				C40.4,14.7,40.4,14.5,40.4,14.3z"/>
			<path id="XMLID_457_" class="st4" d="M42.7,12.1L42.7,12.1L42.7,12.1c-0.2,0.1-0.5,0.1-0.5,0v0C42.4,12.1,42.5,12.1,42.7,12.1z"
				/>
			<path id="XMLID_456_" class="st1" d="M43.4,11.6c-0.2,0.2-0.5,0.4-0.7,0.4l0,0c-0.1,0-0.2,0-0.2,0C42.7,12,43.1,11.8,43.4,11.6z"
				/>
			<path id="XMLID_455_" class="st2" d="M40,14.6c0.1,0,0.2-0.2,0.3-0.5c0.1-0.4,0.3-0.6,0.2-0.7c-0.1,0-0.3,0.3-0.4,0.7
				C39.9,14.5,39.8,14.7,40,14.6z"/>
			<path id="XMLID_454_" class="st2" d="M42.1,12.5c0.1,0,0.2,0,0.2,0.2c0,0.2-0.1,0.2-0.2,0.1C42,12.7,41.9,12.5,42.1,12.5z"/>
			<path id="XMLID_453_" class="st0" d="M40.1,15.5c0.2-0.3,0.4-0.6,0.4-0.9l0,0l0,0c-0.1-0.2-0.1-0.6,0.1-1c0.2,0,0.4,0,0.6,0.2
				l0.3,0.3c0.1,0.1,0.2,0.3,0.2,0.6c0,0.3-0.1,0.7-0.3,1.1c-0.2,0.4-0.6,0.8-1,1.2L39.6,16C39.8,15.8,39.9,15.7,40.1,15.5z"/>
			<path id="XMLID_452_" class="st1" d="M41.6,14.7c0-0.2-0.1-0.4-0.2-0.6L41,13.8c-0.1-0.1-0.3-0.2-0.5-0.2l0-0.1
				c0.2,0,0.4,0,0.6,0.2l0.3,0.3c0.1,0.1,0.2,0.3,0.2,0.6c0,0.3-0.1,0.7-0.3,1.1c-0.2,0.4-0.6,0.8-1,1.2c0.4-0.4,0.7-0.8,0.9-1.2
				C41.5,15.4,41.6,15,41.6,14.7z"/>
			<path id="XMLID_451_" class="st2" d="M41.4,15.7c0.2-0.4,0.3-0.8,0.2-1.2c0-0.3-0.1-0.5-0.3-0.7l0.2,0.2c0.1,0.1,0.2,0.3,0.2,0.6
				C41.7,14.9,41.6,15.3,41.4,15.7c-0.1,0.3-0.3,0.6-0.6,0.9C41,16.3,41.2,16,41.4,15.7z"/>
			<path id="XMLID_450_" class="st1" d="M40.5,14.6L40.5,14.6L40.5,14.6c-0.1-0.2-0.1-0.3,0-0.5c0.4-0.1,0.8,0.1,0.6,0.2
				c-0.2,0.1-0.4,0.2-0.7,0.7C40.5,14.8,40.5,14.7,40.5,14.6z"/>
			<g id="XMLID_1073_">
				<path id="XMLID_449_" class="st0" d="M43.4,10.5c-0.2,0.2-0.3,0.5-0.4,0.7c-0.1,0-0.1,0-0.2,0c0.1-0.2,0.3-0.5,0.5-0.7
					L43.4,10.5z"/>
				<path id="XMLID_448_" class="st0" d="M42,11.2L42,11.2l-0.1,0c0.2-0.4,0.4-0.8,0.7-1.3l0.1,0.1C42.4,10.4,42.2,10.9,42,11.2z"/>
				<polygon id="XMLID_447_" class="st2" points="42.1,11.2 42,11.2 42.1,11.2 				"/>
				<path id="XMLID_446_" class="st2" d="M42.7,10L42.7,10c-0.3,0.5-0.5,0.9-0.6,1.2l-0.1,0l0,0C42.2,10.9,42.4,10.4,42.7,10z"/>
				<path id="XMLID_445_" class="st5" d="M42.2,11.2L42.2,11.2c0.1,0,0.1,0,0.2,0l0,0c-0.1,0-0.2,0-0.3,0L42.2,11.2z"/>
				<path id="XMLID_444_" class="st5" d="M42.2,11.2L42.2,11.2L42.2,11.2z"/>
				<polygon id="XMLID_443_" class="st5" points="42.2,11.2 42.1,11.2 42.1,11.2 				"/>
				<path id="XMLID_442_" class="st5" d="M42.3,11.2L42.3,11.2c0,0-0.1,0-0.1,0L42.3,11.2z"/>
				<path id="XMLID_441_" class="st5" d="M42.7,10.1l0.2,0.1c-0.2,0.3-0.4,0.7-0.6,0.9h0l-0.1,0l0,0l-0.1,0
					C42.2,10.9,42.4,10.5,42.7,10.1z"/>
				<path id="XMLID_440_" class="st3" d="M42.4,11.2L42.4,11.2c0.1,0,0.2,0,0.3,0C42.6,11.2,42.5,11.1,42.4,11.2L42.4,11.2z"/>
				<polygon id="XMLID_439_" class="st3" points="42.4,11.2 42.4,11.2 42.4,11.2 				"/>
				<polygon id="XMLID_438_" class="st3" points="42.4,11.2 42.4,11.2 42.4,11.2 				"/>
				<polygon id="XMLID_437_" class="st3" points="42.4,11.2 42.4,11.2 42.4,11.2 42.3,11.2 				"/>
				<path id="XMLID_436_" class="st3" d="M42.9,10.2L42.9,10.2L42.9,10.2l0.3,0.2c-0.2,0.3-0.4,0.5-0.5,0.7c-0.1,0-0.2,0-0.3,0l0,0
					l0,0h0C42.5,10.9,42.7,10.5,42.9,10.2z"/>
			</g>
			<g id="XMLID_1069_">
				<path id="XMLID_435_" class="st4" d="M41.3,14.6L41.3,14.6c0.1-0.3,0.2-0.1,0.1,0.3c-0.1,0.7-0.5,1.3-1.2,1.9L40,16.5
					C40.9,15.7,41.3,14.9,41.3,14.6z"/>
				<path id="XMLID_434_" class="st2" d="M40.9,14.8c-0.1,0.1-0.2,0.2-0.3,0.4c-0.2,0.3-0.5,0.6-0.9,1l0,0c1-0.9,1.3-1.6,1.5-1.6
					c0,0,0.1,0,0.1,0.1c0,0.2-0.4,1-1.3,1.8l0,0l0,0c0.9-0.8,1.2-1.6,1.2-1.7c0,0,0,0,0,0C41.1,14.7,41,14.7,40.9,14.8z"/>
				<path id="XMLID_433_" class="st5" d="M40.6,15.2c0.1-0.2,0.2-0.3,0.3-0.4c0.1-0.1,0.1-0.1,0.2-0.1c0,0,0,0,0,0
					c0,0.1-0.3,0.9-1.2,1.7l-0.2-0.2C40.1,15.8,40.4,15.4,40.6,15.2z"/>
			</g>
			<g id="XMLID_1052_">
				<path id="XMLID_432_" class="st0" d="M39.6,14.7L39.6,14.7c0,0.1,0,0.1,0.1,0.2c-0.2,0.1-0.4,0.3-0.6,0.5l-0.1-0.1
					C39.2,15.1,39.4,14.9,39.6,14.7z"/>
				<path id="XMLID_431_" class="st0" d="M38.5,14.8L38.5,14.8c0.3-0.4,0.7-0.7,1.1-0.9l0,0.1C39.2,14.2,38.9,14.5,38.5,14.8z"/>
				<path id="XMLID_430_" class="st0" d="M39.6,14.5L39.6,14.5L39.6,14.5z"/>
				<polygon id="XMLID_429_" class="st2" points="39.5,14.1 39.5,14 39.5,14.1 39.5,14.1 				"/>
				<path id="XMLID_428_" class="st2" d="M39.5,14L39.5,14c-0.2,0.2-0.6,0.5-1,0.8l0,0C38.9,14.5,39.2,14.2,39.5,14z"/>
				<path id="XMLID_427_" class="st5" d="M39.5,14.2L39.5,14.2l0-0.1c0,0.1,0,0.2,0,0.3l0,0C39.5,14.3,39.5,14.3,39.5,14.2z"/>
				<path id="XMLID_426_" class="st5" d="M39.5,14.2L39.5,14.2L39.5,14.2z"/>
				<polygon id="XMLID_425_" class="st5" points="39.5,14.1 39.5,14.1 39.5,14.1 39.5,14.2 				"/>
				<path id="XMLID_424_" class="st5" d="M39.5,14.2c0,0.1,0,0.1,0,0.2l0,0L39.5,14.2z"/>
				<path id="XMLID_423_" class="st5" d="M39.5,14.4c-0.3,0.2-0.6,0.4-0.9,0.7l-0.2-0.2c0.4-0.4,0.8-0.6,1-0.8l0,0.1l0,0L39.5,14.4z
					"/>
				<path id="XMLID_422_" class="st3" d="M39.6,14.7c0-0.1,0-0.1,0-0.2C39.6,14.6,39.6,14.7,39.6,14.7z"/>
				<path id="XMLID_421_" class="st3" d="M39.5,14.4L39.5,14.4c0,0,0,0.1,0,0.2L39.5,14.4L39.5,14.4z"/>
				<polygon id="XMLID_420_" class="st3" points="39.5,14.4 39.5,14.4 39.5,14.4 				"/>
				<polygon id="XMLID_419_" class="st3" points="39.5,14.4 39.5,14.4 39.5,14.4 				"/>
				<polygon id="XMLID_418_" class="st3" points="39.5,14.4 39.5,14.4 39.5,14.4 39.5,14.4 				"/>
				<path id="XMLID_417_" class="st3" d="M39.5,14.4L39.5,14.4L39.5,14.4l0,0.2v0c0,0.1,0,0.1,0,0.2l0,0c-0.2,0.2-0.4,0.3-0.7,0.6
					l-0.2-0.2l0,0l0,0C39,14.8,39.3,14.5,39.5,14.4z"/>
			</g>
			<g id="XMLID_1048_">
				<path id="XMLID_416_" class="st4" d="M42.8,12.9l0.1-0.1c0.2,0,0.9-0.5,1.6-1.4c0,0,0,0,0,0l0.3,0.3c-0.5,0.6-1.1,1.1-1.7,1.3
					C42.8,13.1,42.6,13,42.8,12.9z"/>
				<path id="XMLID_415_" class="st2" d="M42.9,12.8c-0.1-0.2,0.5-0.6,1.3-1.7c0,0,0,0,0,0l0,0c-0.3,0.4-0.6,0.8-0.8,1
					c-0.1,0.1-0.2,0.2-0.3,0.3C43,12.5,43,12.6,43,12.6c0,0,0,0,0,0c0.2,0,0.8-0.4,1.4-1.3l0.1,0l0,0c0,0,0,0,0,0
					C43.8,12.3,43.2,12.8,42.9,12.8C42.9,12.8,42.9,12.8,42.9,12.8z"/>
				<path id="XMLID_414_" class="st5" d="M43,12.6C43,12.6,43,12.6,43,12.6c0-0.1,0-0.1,0.1-0.2c0.1-0.1,0.2-0.2,0.3-0.3
					c0.2-0.2,0.5-0.5,0.8-1l0.3,0.2C43.8,12.2,43.1,12.7,43,12.6z"/>
			</g>
		</g>
		<g id="XMLID_981_">
			<path id="XMLID_413_" class="st0" d="M37.1,16.8c0.4-0.1,0.8-0.1,1,0l0,0l0,0c0.3,0,0.6-0.1,0.9-0.3c0.2-0.1,0.4-0.3,0.6-0.4
				l0.8,0.9c-0.4,0.4-0.9,0.7-1.3,0.9C38.7,18,38.3,18,37.9,18c-0.2,0-0.4-0.1-0.5-0.3l-0.2-0.3C37,17.2,37,17,37.1,16.8z"/>
			<path id="XMLID_412_" class="st1" d="M37.1,16.8L37.1,16.8c0.1,0.2,0,0.4,0.1,0.5l0.2,0.3c0.1,0.2,0.4,0.2,0.6,0.3
				c0.3,0.1,0.7,0,1.1-0.2c0.4-0.2,0.9-0.4,1.3-0.8c-0.4,0.4-0.9,0.7-1.3,0.9C38.7,18,38.3,18,37.9,18c-0.2,0-0.4-0.1-0.5-0.3
				l-0.2-0.3C37,17.2,37,17,37.1,16.8z"/>
			<path id="XMLID_411_" class="st2" d="M39.1,17.8c0.3-0.1,0.6-0.3,0.9-0.5C39.7,17.5,39.4,17.7,39.1,17.8C38.7,18,38.3,18,37.9,18
				c-0.2,0-0.4-0.1-0.5-0.3l-0.2-0.3c0.1,0.2,0.4,0.3,0.6,0.4C38.2,17.9,38.6,17.9,39.1,17.8z"/>
			<path id="XMLID_410_" class="st0" d="M35.6,17.7L35.6,17.7L35.6,17.7L35.6,17.7l-0.1,0.1l0,0l0,0l0,0l0,0l0,0l0,0l0,0
				c-0.1,0.2-0.2,0.4-0.2,0.6h0l0,0l0,0c-0.1,0.2-0.4,0.5-0.7,0.7c0-0.1-0.1-0.1-0.1-0.2c-0.2-0.5-0.1-1,0.1-1.5
				c0.2-0.5,0.6-0.9,1.2-1.3c0.5-0.3,1.1-0.5,1.7-0.6c0.4,0,0.7,0.1,1,0.2c0.1,0.1,0.3,0.2,0.4,0.3c0,0,0.1,0.1,0.1,0.1
				c-0.3,0.2-0.7,0.3-0.9,0.3l0,0c-0.2-0.1-0.6-0.1-1,0c-0.2,0.1-0.5,0.2-0.8,0.3C36,17.3,35.8,17.5,35.6,17.7L35.6,17.7L35.6,17.7z
				"/>
			<path id="XMLID_409_" class="st3" d="M35.8,16.3c0.5-0.3,1.1-0.5,1.7-0.6c0.4,0,0.7,0.1,1,0.2c0.1,0.1,0.3,0.2,0.4,0.3
				c0,0,0.1,0.1,0.1,0.1l0,0l-0.1-0.1c-0.1-0.1-0.2-0.2-0.4-0.3c-0.3-0.2-0.6-0.2-1-0.2C37,15.9,36.4,16.1,35.8,16.3
				c-0.5,0.4-0.9,0.8-1.1,1.3c-0.2,0.5-0.3,1-0.1,1.5c0,0,0,0.1,0,0.1l0,0c0-0.1-0.1-0.1-0.1-0.2c-0.2-0.5-0.1-1,0.1-1.5
				C34.9,17.1,35.3,16.7,35.8,16.3z"/>
			<path id="XMLID_408_" class="st0" d="M36.4,19c0.3-0.1,0.6-0.2,0.8-0.4c0.3-0.2,0.5-0.4,0.7-0.6c0.3,0,0.7,0,1.1-0.2
				c-0.2,0.6-0.6,1.2-1.3,1.6c-0.7,0.4-1.4,0.6-2,0.5C36.1,19.6,36.3,19.3,36.4,19L36.4,19z"/>
			<path id="XMLID_407_" class="st3" d="M35.8,19.9c0.6,0,1.3-0.1,1.9-0.5c0.6-0.4,1.1-1,1.3-1.5l0.1,0c-0.2,0.6-0.6,1.2-1.3,1.6
				C37.1,19.8,36.3,20,35.8,19.9L35.8,19.9z"/>
			<path id="XMLID_406_" class="st4" d="M36,19.7c0.1-0.1,0.1-0.2,0.2-0.2c0.4-0.1,0.9-0.3,1.3-0.6c0.4-0.3,0.8-0.6,1-1
				c0.1,0,0.2,0,0.3-0.1c-0.2,0.5-0.6,1-1.1,1.4C37.1,19.6,36.5,19.8,36,19.7z"/>
			<path id="XMLID_405_" class="st2" d="M36.3,19.3c0,0.2,0.7,0.1,1.2-0.3c0.6-0.4,0.9-0.9,0.8-1c-0.1-0.1-0.4,0.4-0.9,0.7
				C36.8,19.1,36.3,19.2,36.3,19.3z"/>
			<path id="XMLID_404_" class="st5" d="M37.5,19c0.5-0.3,0.7-0.6,0.7-0.8c0,0,0,0,0,0c0,0,0,0-0.1,0c-0.1,0,0,0-0.1,0.1
				c-0.1,0.1-0.3,0.3-0.6,0.5c-0.2,0.2-0.5,0.3-0.7,0.3c-0.1,0-0.2,0.1-0.3,0.1c-0.1,0-0.1,0.1-0.1,0.1c0,0,0,0,0,0
				C36.5,19.4,37,19.3,37.5,19z"/>
			<path id="XMLID_403_" class="st1" d="M37.4,16.7c0.3,0,0.5,0,0.7,0.1l0,0l0,0c0.2,0,0.4-0.1,0.6-0.2c-0.5,0.2-1,0.4-1.1,0.8
				C37.4,17.7,37,17,37.4,16.7z"/>
			<path id="XMLID_402_" class="st2" d="M37.7,16c-0.5-0.2-1.3,0-2.1,0.6c-0.9,0.7-1.1,1.7-1.1,1.8c0,0,0.4-0.9,1.4-1.6
				C36.9,16.1,38.2,16.2,37.7,16z"/>
			<path id="XMLID_401_" class="st5" d="M37.3,16c-0.4,0-0.9,0.1-1.4,0.5c-0.1,0.1-0.2,0.1-0.2,0.2c-0.5,0.4-0.4,0.4,0.2,0.1
				c0.6-0.4,1.3-0.5,1.7-0.6C37.6,16.1,37.5,16,37.3,16z"/>
			<path id="XMLID_400_" class="st4" d="M36.1,17.1c-0.7,0.4-1,0.7-1.4,1.2c-0.1,0.1-0.4,0.2-0.2-0.1c0.3-0.5,0.8-1.1,1.4-1.4
				c0.6-0.4,1.3-0.5,1.9-0.6c0.3,0,0.3,0.2,0.1,0.2C37.3,16.5,36.8,16.7,36.1,17.1z"/>
			<path id="XMLID_399_" class="st3" d="M36.3,17.1c0.7-0.4,1.5-0.6,2.4-0.5c-0.2,0.1-0.5,0.2-0.7,0.2l0,0c-0.2-0.1-0.6-0.1-1,0
				C36.8,16.8,36.6,17,36.3,17.1L36.3,17.1L36.3,17.1L36.3,17.1z"/>
			<path id="XMLID_398_" class="st1" d="M36.3,17.1L36.3,17.1c-0.3,0.2-0.5,0.4-0.6,0.5h0l0,0l0,0l0,0l0,0l0,0l0,0l0,0l0,0l0,0l0,0
				l0,0l0,0c-0.1,0.2-0.2,0.4-0.2,0.6h0l0,0l0,0c-0.1,0.2-0.3,0.4-0.5,0.5C35.1,18.2,35.6,17.6,36.3,17.1z"/>
			<path id="XMLID_397_" class="st4" d="M35.3,18.3c0,0.1,0,0.2,0,0.3h0l0,0l0,0c-0.1,0.1-0.1,0.2-0.2,0.3
				C35.1,18.7,35.2,18.5,35.3,18.3z"/>
			<path id="XMLID_396_" class="st4" d="M38,16.8L38,16.8L38,16.8c-0.3,0.1-0.5,0-0.5-0.1l0,0C37.7,16.7,37.9,16.7,38,16.8z"/>
			<path id="XMLID_395_" class="st1" d="M38.9,16.5c-0.3,0.2-0.6,0.2-0.8,0.3l0,0c-0.1,0-0.1-0.1-0.2-0.1
				C38.1,16.7,38.5,16.6,38.9,16.5z"/>
			<path id="XMLID_394_" class="st2" d="M34.8,18.4c0.1,0,0.2-0.2,0.4-0.3c0.2-0.3,0.5-0.5,0.4-0.6c-0.1-0.1-0.3,0.2-0.6,0.5
				C34.7,18.3,34.6,18.4,34.8,18.4z"/>
			<path id="XMLID_393_" class="st2" d="M37.4,17.1c0.1,0,0.2,0.1,0.1,0.2c-0.1,0.2-0.1,0.2-0.2,0.1C37.3,17.2,37.2,17.1,37.4,17.1z
				"/>
			<path id="XMLID_392_" class="st0" d="M34.6,19.3c0.3-0.2,0.6-0.5,0.7-0.7l0,0l0,0c0-0.2,0.1-0.6,0.4-0.9c0.2,0.1,0.4,0.2,0.5,0.3
				l0.2,0.4c0.1,0.2,0.1,0.4,0,0.6c-0.1,0.3-0.3,0.6-0.7,1c-0.4,0.3-0.9,0.6-1.4,0.8l-0.4-1.2C34.1,19.5,34.4,19.4,34.6,19.3z"/>
			<path id="XMLID_391_" class="st1" d="M36.3,19c0.1-0.2,0-0.4-0.1-0.6L36,18.1c-0.1-0.1-0.2-0.3-0.4-0.3l0-0.1
				c0.2,0.1,0.4,0.2,0.5,0.3l0.2,0.4c0.1,0.2,0.1,0.4,0,0.6c-0.1,0.3-0.3,0.6-0.7,1c-0.4,0.3-0.9,0.6-1.4,0.8c0.5-0.2,1-0.5,1.3-0.8
				C36,19.7,36.2,19.3,36.3,19z"/>
			<path id="XMLID_390_" class="st2" d="M35.7,19.9c0.3-0.3,0.6-0.7,0.6-1.1c0.1-0.3,0-0.5-0.1-0.7l0.2,0.3c0.1,0.2,0.1,0.4,0,0.6
				C36.3,19.3,36.1,19.6,35.7,19.9c-0.2,0.3-0.5,0.5-0.9,0.6C35.2,20.3,35.5,20.1,35.7,19.9z"/>
			<path id="XMLID_389_" class="st1" d="M35.3,18.6L35.3,18.6L35.3,18.6c0-0.2,0-0.3,0.1-0.5c0.4,0,0.7,0.4,0.5,0.4
				c-0.2,0-0.4,0.1-0.8,0.4C35.2,18.7,35.2,18.7,35.3,18.6z"/>
			<g id="XMLID_1007_">
				<path id="XMLID_388_" class="st0" d="M39,15.4c-0.2,0.2-0.4,0.4-0.5,0.6c-0.1,0-0.1-0.1-0.2-0.1c0.2-0.2,0.4-0.4,0.6-0.6
					L39,15.4z"/>
				<path id="XMLID_387_" class="st0" d="M37.6,15.8L37.6,15.8l-0.1,0c0.2-0.3,0.5-0.7,0.9-1.1l0.1,0.1
					C38.1,15.1,37.8,15.5,37.6,15.8z"/>
				<polygon id="XMLID_386_" class="st2" points="37.7,15.8 37.6,15.8 37.7,15.8 				"/>
				<path id="XMLID_385_" class="st2" d="M38.5,14.8L38.5,14.8c-0.4,0.4-0.7,0.7-0.8,1l-0.1,0l0,0C37.8,15.5,38.1,15.1,38.5,14.8z"
					/>
				<path id="XMLID_384_" class="st5" d="M37.8,15.8L37.8,15.8c0.1,0,0.1,0,0.2,0l0,0c-0.1,0-0.2,0-0.3,0L37.8,15.8z"/>
				<path id="XMLID_383_" class="st5" d="M37.8,15.8L37.8,15.8L37.8,15.8z"/>
				<polygon id="XMLID_382_" class="st5" points="37.8,15.8 37.7,15.8 37.7,15.8 				"/>
				<path id="XMLID_381_" class="st5" d="M37.9,15.8L37.9,15.8c0,0-0.1,0-0.1,0L37.9,15.8z"/>
				<path id="XMLID_380_" class="st5" d="M38.5,14.9l0.2,0.2c-0.3,0.3-0.5,0.5-0.7,0.8l0,0l-0.1,0l0,0l-0.1,0
					C37.8,15.6,38.1,15.2,38.5,14.9z"/>
				<path id="XMLID_379_" class="st3" d="M38,15.8L38,15.8c0.1,0,0.2,0.1,0.3,0.1C38.2,15.9,38.1,15.8,38,15.8L38,15.8z"/>
				<polygon id="XMLID_378_" class="st3" points="38,15.8 38,15.8 38,15.8 				"/>
				<polygon id="XMLID_377_" class="st3" points="38,15.8 38,15.8 38,15.8 				"/>
				<polygon id="XMLID_376_" class="st3" points="38,15.8 38,15.8 38,15.8 37.9,15.8 				"/>
				<path id="XMLID_375_" class="st3" d="M38.7,15L38.7,15L38.7,15l0.2,0.3c-0.2,0.2-0.4,0.4-0.6,0.6c-0.1,0-0.2-0.1-0.3-0.1l0,0
					l0,0l0,0C38.1,15.6,38.4,15.3,38.7,15z"/>
			</g>
			<g id="XMLID_1003_">
				<path id="XMLID_374_" class="st4" d="M36,18.9L36,18.9c0.2-0.2,0.2,0,0.1,0.3c-0.3,0.6-1,1.1-1.8,1.4l-0.1-0.4
					C35.3,19.8,36,19.1,36,18.9z"/>
				<path id="XMLID_373_" class="st2" d="M35.6,18.9c-0.1,0.1-0.2,0.1-0.4,0.2c-0.3,0.2-0.7,0.4-1.3,0.6l0,0c1.3-0.5,1.8-1.1,2-0.9
					c0,0,0,0,0,0.1c-0.1,0.2-0.7,0.9-1.9,1.3l0,0l0-0.1c1.2-0.4,1.8-1,1.8-1.2c0,0,0,0,0,0C35.8,18.9,35.7,18.9,35.6,18.9z"/>
				<path id="XMLID_372_" class="st5" d="M35.2,19.2c0.2-0.1,0.3-0.2,0.4-0.2c0.1-0.1,0.2-0.1,0.2-0.1c0,0,0,0,0,0
					c0,0.1-0.6,0.8-1.8,1.2L34,19.8C34.5,19.6,34.9,19.4,35.2,19.2z"/>
			</g>
			<g id="XMLID_986_">
				<path id="XMLID_371_" class="st0" d="M34.4,18.4L34.4,18.4c0,0.1,0,0.1,0,0.2c-0.2,0-0.5,0.1-0.7,0.2l-0.1-0.2
					C33.9,18.6,34.1,18.5,34.4,18.4z"/>
				<path id="XMLID_370_" class="st0" d="M33.4,18.1l0-0.1c0.4-0.2,0.9-0.3,1.3-0.3l0,0.1C34.2,17.8,33.8,17.9,33.4,18.1z"/>
				<path id="XMLID_369_" class="st0" d="M34.4,18.2L34.4,18.2L34.4,18.2z"/>
				<polygon id="XMLID_368_" class="st2" points="34.5,17.8 34.6,17.7 34.6,17.8 34.6,17.8 				"/>
				<path id="XMLID_367_" class="st2" d="M34.6,17.7L34.6,17.7c-0.3,0.1-0.7,0.2-1.2,0.4l0-0.1C33.8,17.9,34.2,17.8,34.6,17.7z"/>
				<path id="XMLID_366_" class="st5" d="M34.5,17.9L34.5,17.9l0-0.1c0,0.1-0.1,0.2-0.1,0.3l0,0C34.5,18,34.5,18,34.5,17.9z"/>
				<path id="XMLID_365_" class="st5" d="M34.5,17.9L34.5,17.9L34.5,17.9z"/>
				<polygon id="XMLID_364_" class="st5" points="34.5,17.8 34.6,17.8 34.6,17.8 34.5,17.9 				"/>
				<path id="XMLID_363_" class="st5" d="M34.5,17.9c0,0,0,0.1,0,0.1l0,0L34.5,17.9z"/>
				<path id="XMLID_362_" class="st5" d="M34.5,18c-0.3,0.1-0.7,0.2-1,0.3l-0.1-0.2c0.5-0.2,0.9-0.3,1.2-0.3l0,0.1l0,0L34.5,18z"/>
				<path id="XMLID_361_" class="st3" d="M34.4,18.4c0-0.1,0-0.1,0-0.2C34.4,18.3,34.4,18.3,34.4,18.4z"/>
				<path id="XMLID_360_" class="st3" d="M34.5,18.1L34.5,18.1c0,0,0,0.1,0,0.1L34.5,18.1L34.5,18.1z"/>
				<polygon id="XMLID_359_" class="st3" points="34.5,18.1 34.4,18.1 34.5,18.1 				"/>
				<polygon id="XMLID_358_" class="st3" points="34.5,18.1 34.5,18.1 34.5,18.1 				"/>
				<polygon id="XMLID_357_" class="st3" points="34.5,18 34.5,18.1 34.5,18.1 34.5,18.1 				"/>
				<path id="XMLID_356_" class="st3" d="M34.5,18L34.5,18L34.5,18l0,0.2v0c0,0.1,0,0.1,0,0.2v0c-0.2,0.1-0.5,0.2-0.8,0.3l-0.1-0.3
					l0,0l0-0.1C33.8,18.2,34.2,18.1,34.5,18z"/>
			</g>
			<g id="XMLID_982_">
				<path id="XMLID_355_" class="st4" d="M38,17.6l0.2,0c0.2,0.1,1-0.3,1.9-1.1c0,0,0,0,0,0l0.3,0.3c-0.6,0.5-1.3,0.9-2,1
					C37.9,17.8,37.8,17.6,38,17.6z"/>
				<path id="XMLID_354_" class="st2" d="M38.1,17.5c0-0.2,0.6-0.4,1.6-1.4c0,0,0,0,0,0l0,0c-0.4,0.4-0.8,0.6-1,0.8
					c-0.1,0.1-0.3,0.2-0.4,0.2c-0.1,0.1-0.2,0.1-0.1,0.2c0,0,0,0,0,0c0.1,0.1,0.9-0.2,1.7-1l0,0l0,0c0,0,0,0,0,0
					C39.1,17.3,38.3,17.6,38.1,17.5C38.1,17.6,38.1,17.5,38.1,17.5z"/>
				<path id="XMLID_353_" class="st5" d="M38.2,17.4C38.2,17.4,38.2,17.4,38.2,17.4c0-0.1,0-0.1,0.1-0.2c0.1-0.1,0.2-0.1,0.4-0.2
					c0.3-0.2,0.6-0.4,1-0.8l0.2,0.2C39.1,17.2,38.4,17.5,38.2,17.4z"/>
			</g>
		</g>
		<g id="XMLID_915_">
			<path id="XMLID_352_" class="st0" d="M31.3,19.1c0.4,0.1,0.7,0.3,0.8,0.5l0,0l0,0c0.3,0.1,0.6,0.1,1,0.1c0.2,0,0.5-0.1,0.7-0.2
				l0.4,1.2C33.7,21,33.1,21,32.6,21c-0.5,0-0.9-0.2-1.2-0.4c-0.2-0.1-0.3-0.3-0.3-0.5l0-0.4C31.1,19.5,31.2,19.3,31.3,19.1z"/>
			<path id="XMLID_351_" class="st1" d="M31.3,19.1L31.3,19.1c0,0.2-0.2,0.4-0.1,0.5l0,0.4c0,0.2,0.2,0.4,0.4,0.5
				c0.2,0.2,0.6,0.3,1.1,0.4c0.5,0,1,0,1.6-0.2C33.7,21,33.1,21,32.6,21c-0.5,0-0.9-0.2-1.2-0.4c-0.2-0.1-0.3-0.3-0.3-0.5l0-0.4
				C31.1,19.5,31.2,19.3,31.3,19.1z"/>
			<path id="XMLID_350_" class="st2" d="M32.6,20.9c0.3,0,0.7,0,1.1,0C33.3,21,33,21,32.6,20.9c-0.5,0-0.9-0.1-1.2-0.3
				c-0.2-0.1-0.3-0.3-0.3-0.5l0-0.3c0,0.3,0.1,0.5,0.3,0.7C31.7,20.7,32.1,20.9,32.6,20.9z"/>
			<path id="XMLID_349_" class="st0" d="M29.7,19.1L29.7,19.1L29.7,19.1L29.7,19.1l-0.1,0l0,0l-0.1,0l0,0l-0.1,0l0,0l-0.1,0l0,0
				c-0.2,0.1-0.4,0.2-0.5,0.4l0,0l0,0l0,0c-0.3,0.1-0.6,0.1-1,0.1c0-0.1,0-0.1,0-0.2c0.1-0.5,0.5-0.8,1-1.1c0.5-0.2,1-0.4,1.6-0.4
				c0.6,0,1.1,0.1,1.6,0.4c0.3,0.2,0.6,0.4,0.8,0.6c0.1,0.1,0.2,0.3,0.2,0.4c0,0.1,0,0.1,0,0.2c-0.4,0-0.7,0-1-0.1l0,0
				c-0.1-0.2-0.4-0.4-0.8-0.5c-0.2-0.1-0.5-0.1-0.8-0.1C30.3,19,30,19.1,29.7,19.1L29.7,19.1L29.7,19.1z"/>
			<path id="XMLID_348_" class="st3" d="M30.6,18.1c0.6,0,1.1,0.1,1.6,0.4c0.3,0.2,0.6,0.4,0.8,0.6c0.1,0.1,0.2,0.3,0.2,0.4
				c0,0.1,0,0.1,0,0.2l0,0l0-0.1c0-0.2-0.1-0.3-0.2-0.4c-0.2-0.3-0.5-0.5-0.8-0.6C31.7,18.3,31.1,18.2,30.6,18.1
				c-0.6,0.1-1.1,0.2-1.6,0.4c-0.5,0.2-0.9,0.6-1,1.1c0,0,0,0.1,0,0.1l0,0c0-0.1,0-0.1,0-0.2c0.1-0.5,0.5-0.8,1-1.1
				C29.4,18.2,30,18.1,30.6,18.1z"/>
			<path id="XMLID_347_" class="st0" d="M29.6,20.6c0.3,0.1,0.6,0.2,0.9,0.2c0.4,0,0.7-0.1,0.9-0.2c0.3,0.2,0.7,0.3,1.2,0.4
				c-0.5,0.4-1.2,0.7-2.1,0.7c-0.9,0-1.6-0.3-2.1-0.7C29,21,29.4,20.8,29.6,20.6L29.6,20.6z"/>
			<path id="XMLID_346_" class="st3" d="M28.6,21c0.5,0.4,1.2,0.7,2,0.7c0.8,0,1.5-0.3,2-0.7l0.1,0c-0.5,0.4-1.2,0.7-2.1,0.7
				C29.7,21.7,28.9,21.4,28.6,21L28.6,21z"/>
			<path id="XMLID_345_" class="st4" d="M28.8,21c0.1,0,0.2,0,0.3-0.1c0.4,0.2,0.9,0.3,1.5,0.3c0.5,0,1.1-0.1,1.5-0.3
				c0.1,0,0.2,0.1,0.3,0.1c-0.4,0.4-1.1,0.6-1.8,0.6C29.9,21.6,29.2,21.3,28.8,21z"/>
			<path id="XMLID_344_" class="st2" d="M29.3,20.9c-0.1,0.2,0.5,0.5,1.2,0.5c0.7,0,1.3-0.3,1.2-0.5c-0.1-0.2-0.5,0.1-1.2,0.1
				C29.9,21,29.4,20.7,29.3,20.9z"/>
			<path id="XMLID_343_" class="st5" d="M30.6,21.2c0.6,0,1-0.2,1-0.3c0,0,0,0,0,0c0,0,0,0-0.1,0c-0.1,0,0,0-0.2,0
				c-0.2,0-0.5,0.1-0.8,0.1c-0.3,0-0.6-0.1-0.8-0.1c-0.1,0-0.2-0.1-0.3-0.1c-0.1,0-0.1,0-0.1,0c0,0,0,0,0,0
				C29.5,21,30,21.2,30.6,21.2z"/>
			<path id="XMLID_342_" class="st1" d="M31.6,19.2c0.2,0.1,0.4,0.2,0.5,0.4l0,0l0,0c0.2,0.1,0.4,0.1,0.6,0.1c-0.5,0-1-0.1-1.4,0.2
				C31.2,20,31.2,19.3,31.6,19.2z"/>
			<path id="XMLID_341_" class="st2" d="M32.3,18.8c-0.3-0.4-1.1-0.6-1.9-0.6c-1.1,0.1-1.8,0.8-1.9,0.8c0,0,0.2-0.1,0.6-0.3
				c0.4-0.1,0.8-0.2,1.4-0.2c0.6,0,1.1,0.2,1.4,0.3C32.2,18.9,32.4,19,32.3,18.8z"/>
			<path id="XMLID_340_" class="st5" d="M31.9,18.6c-0.3-0.2-0.8-0.3-1.4-0.3c-0.1,0-0.2,0-0.3,0c-0.6,0-0.5,0.2,0.1,0.2
				c0.7,0,1.3,0.2,1.6,0.3C32.1,18.8,32.1,18.7,31.9,18.6z"/>
			<path id="XMLID_339_" class="st4" d="M30.4,18.9c-0.7,0-1.1,0.1-1.7,0.2c-0.2,0-0.4-0.1-0.1-0.2c0.6-0.2,1.2-0.4,1.9-0.4
				c0.6,0,1.3,0.2,1.8,0.5c0.3,0.1,0.2,0.3,0,0.2C31.7,19,31.1,18.9,30.4,18.9z"/>
			<path id="XMLID_338_" class="st3" d="M30.6,19c0.8,0,1.5,0.3,2.3,0.7c-0.3,0-0.5,0-0.7-0.1l0,0c-0.1-0.2-0.4-0.4-0.8-0.5
				C31.1,19.1,30.9,19,30.6,19L30.6,19L30.6,19L30.6,19z"/>
			<path id="XMLID_337_" class="st1" d="M30.6,19L30.6,19c-0.3,0-0.6,0-0.8,0.1v0l0,0l0,0l-0.1,0l0,0l-0.1,0l0,0l-0.1,0l0,0l-0.1,0
				l0,0l-0.1,0l0,0c-0.2,0.1-0.4,0.2-0.5,0.4l0,0l0,0l0,0c-0.2,0.1-0.4,0.1-0.7,0.1C29,19.3,29.8,19,30.6,19z"/>
			<path id="XMLID_336_" class="st4" d="M29.1,19.4c-0.1,0.1-0.1,0.1-0.2,0.2l0,0l0,0l0,0c-0.1,0-0.2,0.1-0.4,0.1
				C28.8,19.6,28.9,19.5,29.1,19.4z"/>
			<path id="XMLID_335_" class="st4" d="M32.2,19.6L32.2,19.6L32.2,19.6c-0.3-0.1-0.4-0.2-0.4-0.3l0,0C32,19.4,32.1,19.5,32.2,19.6z
				"/>
			<path id="XMLID_334_" class="st1" d="M33,19.8c-0.3,0-0.6,0-0.8-0.1l0,0c0-0.1-0.1-0.1-0.2-0.2C32.2,19.6,32.7,19.7,33,19.8z"/>
			<path id="XMLID_333_" class="st2" d="M28.6,19.2c0.1,0.1,0.3,0,0.5,0c0.4-0.1,0.6-0.1,0.6-0.2c0-0.1-0.4,0-0.7,0
				C28.7,19,28.5,19.1,28.6,19.2z"/>
			<path id="XMLID_332_" class="st2" d="M31.5,19.5c0.1,0,0.1,0.1,0,0.2c-0.1,0.1-0.2,0.1-0.2,0C31.3,19.6,31.3,19.4,31.5,19.5z"/>
			<path id="XMLID_331_" class="st0" d="M27.9,19.7c0.4,0,0.7,0,1-0.1l0,0l0,0c0.1-0.2,0.4-0.4,0.8-0.5c0.1,0.2,0.2,0.4,0.2,0.6
				l0,0.4c0,0.2-0.1,0.4-0.3,0.5C29.4,20.8,29,21,28.5,21c-0.5,0-1.1,0-1.7-0.2l0.4-1.2C27.5,19.7,27.7,19.7,27.9,19.7z"/>
			<path id="XMLID_330_" class="st1" d="M29.5,20.6c0.2-0.2,0.3-0.3,0.3-0.5l0-0.4c0-0.2,0-0.3-0.1-0.5l0.1,0
				c0.1,0.2,0.2,0.4,0.2,0.6l0,0.4c0,0.2-0.1,0.4-0.3,0.5C29.4,20.8,29,21,28.5,21c-0.5,0-1.1,0-1.7-0.2c0.5,0.2,1.1,0.3,1.6,0.2
				C28.8,20.9,29.2,20.8,29.5,20.6z"/>
			<path id="XMLID_329_" class="st2" d="M28.5,20.9c0.5-0.1,0.9-0.3,1.2-0.5c0.2-0.2,0.3-0.4,0.3-0.7l0,0.3c0,0.2-0.1,0.4-0.3,0.5
				C29.4,20.8,29,21,28.5,20.9c-0.3,0.1-0.7,0-1.1,0C27.8,21,28.1,21,28.5,20.9z"/>
			<path id="XMLID_328_" class="st1" d="M28.9,19.6L28.9,19.6L28.9,19.6c0.1-0.1,0.2-0.2,0.4-0.3c0.3,0.3,0.4,0.7,0.2,0.6
				c-0.2-0.1-0.4-0.2-0.9-0.2C28.7,19.7,28.8,19.7,28.9,19.6z"/>
			<g id="XMLID_941_">
				<path id="XMLID_327_" class="st0" d="M33.6,18.8c-0.3,0.1-0.5,0.2-0.7,0.3c0-0.1-0.1-0.1-0.1-0.2c0.2-0.1,0.5-0.2,0.8-0.3
					L33.6,18.8z"/>
				<path id="XMLID_326_" class="st0" d="M32.2,18.5L32.2,18.5L32.2,18.5c0.2-0.2,0.6-0.4,1.1-0.6l0,0.1
					C32.9,18.2,32.5,18.4,32.2,18.5z"/>
				<polygon id="XMLID_325_" class="st2" points="32.3,18.6 32.2,18.5 32.3,18.6 				"/>
				<path id="XMLID_324_" class="st2" d="M33.4,18.1L33.4,18.1c-0.5,0.2-0.8,0.4-1.1,0.5l0,0l0,0C32.5,18.4,32.9,18.2,33.4,18.1z"/>
				<path id="XMLID_323_" class="st5" d="M32.4,18.6L32.4,18.6l0.1,0.1l0,0c-0.1-0.1-0.2-0.1-0.2-0.2L32.4,18.6z"/>
				<path id="XMLID_322_" class="st5" d="M32.4,18.6L32.4,18.6L32.4,18.6z"/>
				<polygon id="XMLID_321_" class="st5" points="32.4,18.6 32.3,18.6 32.3,18.6 				"/>
				<polygon id="XMLID_320_" class="st5" points="32.5,18.7 32.5,18.7 32.4,18.6 				"/>
				<path id="XMLID_319_" class="st5" d="M33.4,18.1l0.1,0.2c-0.4,0.1-0.7,0.3-1,0.4l0,0l-0.1-0.1h0l-0.1-0.1
					C32.5,18.4,32.9,18.3,33.4,18.1z"/>
				<path id="XMLID_318_" class="st3" d="M32.5,18.7L32.5,18.7c0.1,0.1,0.2,0.2,0.2,0.2C32.7,18.9,32.6,18.8,32.5,18.7L32.5,18.7z"
					/>
				<polygon id="XMLID_317_" class="st3" points="32.6,18.7 32.5,18.7 32.5,18.7 				"/>
				<polygon id="XMLID_316_" class="st3" points="32.5,18.7 32.5,18.7 32.5,18.7 				"/>
				<polygon id="XMLID_315_" class="st3" points="32.5,18.7 32.5,18.7 32.5,18.7 32.5,18.7 				"/>
				<path id="XMLID_314_" class="st3" d="M33.5,18.3L33.5,18.3L33.5,18.3l0.1,0.3c-0.3,0.1-0.6,0.2-0.8,0.3
					c-0.1-0.1-0.1-0.1-0.2-0.2l0,0l0,0l0,0C32.8,18.6,33.1,18.4,33.5,18.3z"/>
			</g>
			<g id="XMLID_937_">
				<path id="XMLID_313_" class="st4" d="M29.3,20.3L29.3,20.3c0.3-0.1,0.2,0.1-0.1,0.3c-0.6,0.3-1.5,0.3-2.3,0l0.1-0.4
					C28.2,20.6,29.2,20.5,29.3,20.3z"/>
				<path id="XMLID_312_" class="st2" d="M29,20.1l-0.5-0.1c-0.3,0-0.8-0.1-1.4-0.3l0,0c1.3,0.5,2.1,0.3,2.2,0.5c0,0,0,0.1,0,0.1
					c-0.2,0.2-1.1,0.3-2.3-0.1l0,0l0-0.1c1.2,0.4,2.1,0.3,2.1,0.1c0,0,0,0,0,0C29.2,20.2,29.1,20.2,29,20.1z"/>
				<path id="XMLID_311_" class="st5" d="M28.5,20.1l0.5,0.1c0.1,0,0.2,0,0.2,0.1c0,0,0,0,0,0c-0.1,0.1-0.9,0.3-2.1-0.1l0.1-0.3
					C27.7,20,28.2,20,28.5,20.1z"/>
			</g>
			<g id="XMLID_920_">
				<path id="XMLID_310_" class="st0" d="M28.3,19L28.3,19c-0.1,0.1-0.1,0.1-0.1,0.2c-0.2-0.1-0.5-0.2-0.7-0.3l0.1-0.2
					C27.8,18.8,28.1,18.9,28.3,19z"/>
				<path id="XMLID_309_" class="st0" d="M27.7,18.1l0-0.1c0.4,0.2,0.8,0.3,1.2,0.5l-0.1,0.1C28.6,18.4,28.2,18.2,27.7,18.1z"/>
				<path id="XMLID_308_" class="st0" d="M28.5,18.8L28.5,18.8L28.5,18.8z"/>
				<polygon id="XMLID_307_" class="st2" points="28.8,18.6 28.9,18.5 28.8,18.6 28.8,18.6 				"/>
				<path id="XMLID_306_" class="st2" d="M28.9,18.5L28.9,18.5c-0.3-0.1-0.7-0.3-1.1-0.4l0-0.1C28.2,18.2,28.6,18.4,28.9,18.5z"/>
				<path id="XMLID_305_" class="st5" d="M28.7,18.6L28.7,18.6l0.1-0.1c-0.1,0.1-0.2,0.1-0.2,0.2l0,0L28.7,18.6z"/>
				<path id="XMLID_304_" class="st5" d="M28.7,18.6L28.7,18.6L28.7,18.6z"/>
				<polygon id="XMLID_303_" class="st5" points="28.8,18.6 28.8,18.6 28.8,18.6 28.7,18.6 				"/>
				<polygon id="XMLID_302_" class="st5" points="28.7,18.6 28.6,18.7 28.6,18.7 				"/>
				<path id="XMLID_301_" class="st5" d="M28.6,18.7c-0.3-0.1-0.6-0.3-1-0.4l0.1-0.2c0.5,0.2,0.9,0.3,1.1,0.5l-0.1,0.1l0,0
					L28.6,18.7z"/>
				<path id="XMLID_300_" class="st3" d="M28.3,19c0,0,0.1-0.1,0.1-0.1C28.4,18.9,28.4,18.9,28.3,19z"/>
				<path id="XMLID_299_" class="st3" d="M28.6,18.7L28.6,18.7c0,0-0.1,0.1-0.1,0.1L28.6,18.7L28.6,18.7z"/>
				<polygon id="XMLID_298_" class="st3" points="28.6,18.7 28.6,18.7 28.6,18.7 				"/>
				<polygon id="XMLID_297_" class="st3" points="28.6,18.7 28.6,18.7 28.6,18.7 				"/>
				<polygon id="XMLID_296_" class="st3" points="28.6,18.7 28.6,18.7 28.6,18.7 28.6,18.7 				"/>
				<path id="XMLID_295_" class="st3" d="M28.6,18.7L28.6,18.7L28.6,18.7l-0.1,0.1l0,0c0,0-0.1,0.1-0.1,0.1l0,0
					c-0.2-0.1-0.5-0.2-0.8-0.3l0.1-0.3l0,0l0-0.1C28,18.4,28.3,18.6,28.6,18.7z"/>
			</g>
			<g id="XMLID_916_">
				<path id="XMLID_294_" class="st4" d="M31.7,20.3c0.1,0,0.1,0,0.2,0c0.2,0.2,1,0.2,2.2-0.2c0,0,0,0,0,0l0.1,0.4
					c-0.8,0.3-1.7,0.3-2.3,0C31.6,20.5,31.5,20.2,31.7,20.3z"/>
				<path id="XMLID_293_" class="st2" d="M31.8,20.2c0.1-0.2,0.8-0.1,2.1-0.5c0,0,0,0,0,0l0,0c-0.5,0.2-1,0.3-1.3,0.3
					c-0.2,0-0.3,0-0.4,0.1c-0.1,0-0.2,0.1-0.2,0.1c0,0,0,0,0,0c0.1,0.1,0.9,0.2,2-0.2l0,0.1l0,0c0,0,0,0,0,0
					C32.9,20.6,32,20.5,31.8,20.2C31.8,20.3,31.8,20.3,31.8,20.2z"/>
				<path id="XMLID_292_" class="st5" d="M32,20.3C32,20.2,32,20.2,32,20.3c0-0.1,0.1-0.1,0.2-0.1c0.1,0,0.3,0,0.4-0.1
					c0.3,0,0.7-0.1,1.3-0.3l0.1,0.3C32.9,20.5,32.1,20.4,32,20.3z"/>
			</g>
		</g>
		<g id="XMLID_849_">
			<path id="XMLID_291_" class="st0" d="M25.4,17.7c0.3,0.3,0.4,0.7,0.4,0.9l0,0l0,0c0.1,0.2,0.4,0.5,0.7,0.7
				c0.2,0.1,0.4,0.2,0.7,0.3l-0.4,1.2c-0.6-0.2-1.1-0.5-1.4-0.8c-0.4-0.3-0.6-0.7-0.7-1c-0.1-0.2-0.1-0.4,0-0.6l0.2-0.4
				C25,17.8,25.2,17.7,25.4,17.7z"/>
			<path id="XMLID_290_" class="st1" d="M25.4,17.7L25.4,17.7c-0.1,0.1-0.3,0.2-0.4,0.3l-0.2,0.4c-0.1,0.2,0,0.4,0,0.7
				c0.1,0.3,0.3,0.6,0.6,0.9c0.3,0.3,0.8,0.6,1.3,0.8c-0.6-0.2-1.1-0.5-1.4-0.8c-0.4-0.3-0.6-0.7-0.7-1c-0.1-0.2-0.1-0.4,0-0.6
				l0.2-0.4C25,17.8,25.2,17.7,25.4,17.7z"/>
			<path id="XMLID_289_" class="st2" d="M25.4,19.9c0.2,0.2,0.5,0.5,0.9,0.6C25.9,20.4,25.6,20.2,25.4,19.9
				c-0.4-0.3-0.6-0.6-0.7-0.9c-0.1-0.2-0.1-0.4,0-0.6l0.2-0.3c-0.1,0.2-0.2,0.5-0.1,0.7C24.8,19.2,25,19.5,25.4,19.9z"/>
			<path id="XMLID_288_" class="st0" d="M24,16.8L24,16.8L24,16.8L24,16.8l-0.1,0l0,0l-0.1,0l0,0l-0.1,0l0,0l-0.1,0l0,0
				c-0.2,0-0.4,0-0.6,0.1l0,0l0,0l0,0c-0.3,0-0.6-0.1-0.9-0.3c0-0.1,0.1-0.1,0.1-0.1c0.7-0.8,2-0.6,3.1,0c0.5,0.4,0.9,0.8,1.2,1.3
				c0.2,0.3,0.2,0.7,0.2,1c0,0.2,0,0.3-0.1,0.5c0,0.1-0.1,0.1-0.1,0.2c-0.3-0.2-0.6-0.5-0.7-0.7l0,0c0-0.2-0.1-0.6-0.4-0.9
				c-0.2-0.2-0.4-0.4-0.6-0.5C24.6,17,24.3,16.8,24,16.8L24,16.8L24,16.8z"/>
			<path id="XMLID_287_" class="st3" d="M25.3,16.3c0.5,0.4,0.9,0.8,1.2,1.3c0.2,0.3,0.2,0.7,0.2,1c0,0.2,0,0.3-0.1,0.5
				c0,0.1-0.1,0.1-0.1,0.2l0,0l0-0.1c0.1-0.2,0.1-0.3,0.1-0.5c0-0.3-0.1-0.7-0.2-1C26.2,17.2,25.8,16.8,25.3,16.3
				c-1.1-0.6-2.4-0.7-3.1,0l-0.1,0.1l0,0c0-0.1,0.1-0.1,0.1-0.1C22.9,15.6,24.2,15.7,25.3,16.3z"/>
			<path id="XMLID_286_" class="st0" d="M23.2,18c0.2,0.2,0.4,0.4,0.7,0.6c0.3,0.2,0.6,0.3,0.8,0.4c0.1,0.3,0.3,0.6,0.7,1
				c-0.6,0.1-1.4-0.1-2-0.5c-0.7-0.4-1.1-1-1.3-1.6C22.5,18,22.9,18,23.2,18L23.2,18z"/>
			<path id="XMLID_285_" class="st3" d="M22.1,17.8c0.2,0.5,0.6,1.1,1.3,1.5c0.6,0.4,1.3,0.6,1.9,0.5l0.1,0.1
				c-0.6,0.1-1.4-0.1-2-0.5C22.7,19,22.2,18.4,22.1,17.8L22.1,17.8z"/>
			<path id="XMLID_284_" class="st4" d="M22.3,17.9c0.1,0,0.2,0.1,0.3,0.1c0.3,0.3,0.6,0.7,1,1c0.4,0.3,0.9,0.5,1.3,0.6
				c0.1,0.1,0.1,0.2,0.2,0.2c-0.5,0.1-1.2-0.1-1.7-0.5C22.9,18.9,22.5,18.4,22.3,17.9z"/>
			<path id="XMLID_283_" class="st2" d="M22.8,18.1c-0.1,0.1,0.2,0.6,0.8,1c0.6,0.4,1.2,0.5,1.2,0.3c0-0.2-0.5-0.2-1-0.6
				C23.2,18.4,23,18,22.8,18.1z"/>
			<path id="XMLID_282_" class="st5" d="M23.6,19c0.5,0.3,0.8,0.4,1,0.3c0,0,0,0,0,0c0,0,0,0-0.1-0.1c-0.1,0,0,0-0.1-0.1
				c-0.2-0.1-0.4-0.2-0.7-0.3c-0.2-0.2-0.4-0.3-0.6-0.5c-0.1-0.1-0.2-0.2-0.2-0.2c-0.1,0-0.1,0-0.1,0c0,0,0,0,0,0
				C22.8,18.3,23.1,18.7,23.6,19z"/>
			<path id="XMLID_281_" class="st1" d="M25.6,17.9c0.1,0.2,0.2,0.5,0.2,0.6l0,0l0,0c0.1,0.1,0.2,0.3,0.4,0.4
				c-0.4-0.3-0.8-0.7-1.2-0.7C24.8,18.3,25.2,17.8,25.6,17.9z"/>
			<path id="XMLID_280_" class="st2" d="M26.4,17.9c0-0.5-0.5-1.2-1.4-1.6C24,15.7,22.9,16,22.9,16c0,0,1-0.1,2.1,0.6
				C26,17.3,26.4,18.4,26.4,17.9z"/>
			<path id="XMLID_279_" class="st5" d="M26.3,17.6c-0.2-0.4-0.5-0.8-1-1.1c-0.1-0.1-0.2-0.1-0.3-0.1c-0.6-0.3-0.5-0.2,0,0.2
				c0.6,0.4,1,1,1.2,1.2C26.3,17.9,26.3,17.7,26.3,17.6z"/>
			<path id="XMLID_278_" class="st4" d="M24.8,16.9c-0.6-0.4-1.1-0.6-1.7-0.8c-0.2-0.1-0.3-0.3,0-0.2c0.6,0.1,1.3,0.3,1.9,0.6
				c0.6,0.4,1,1,1.3,1.5c0.2,0.2,0,0.3-0.2,0.2C25.7,17.8,25.4,17.4,24.8,16.9z"/>
			<path id="XMLID_277_" class="st3" d="M24.8,17.1c0.7,0.4,1.2,1.1,1.5,2c-0.2-0.2-0.4-0.3-0.5-0.5l0,0c0-0.2-0.1-0.6-0.4-0.9
				C25.3,17.5,25.1,17.3,24.8,17.1L24.8,17.1L24.8,17.1L24.8,17.1z"/>
			<path id="XMLID_276_" class="st1" d="M24.8,17.1L24.8,17.1c-0.3-0.2-0.5-0.3-0.8-0.3v0l0,0l0,0l-0.1,0l0,0l-0.1,0l0,0l-0.1,0l0,0
				l-0.1,0l0,0l-0.1,0l0,0c-0.2,0-0.4,0-0.6,0.1l0,0l0,0l0,0c-0.2,0-0.4-0.1-0.7-0.2C23.3,16.5,24.1,16.7,24.8,17.1z"/>
			<path id="XMLID_275_" class="st4" d="M23.3,16.7c-0.1,0-0.2,0-0.3,0.1l0,0l0,0l0,0c-0.1,0-0.2,0-0.4-0.1
				C22.9,16.7,23.1,16.7,23.3,16.7z"/>
			<path id="XMLID_274_" class="st4" d="M25.8,18.5L25.8,18.5L25.8,18.5c-0.2-0.2-0.2-0.4-0.1-0.5l0,0
				C25.8,18.2,25.8,18.4,25.8,18.5z"/>
			<path id="XMLID_273_" class="st1" d="M26.4,19.2c-0.3-0.2-0.5-0.4-0.6-0.6l0,0c0-0.1,0-0.2,0-0.2C25.9,18.5,26.2,18.9,26.4,19.2z
				"/>
			<path id="XMLID_272_" class="st2" d="M23,16.3c0,0.1,0.3,0.2,0.5,0.2c0.4,0.1,0.7,0.2,0.7,0.1c0-0.1-0.3-0.2-0.7-0.3
				C23.1,16.1,22.9,16.1,23,16.3z"/>
			<path id="XMLID_271_" class="st2" d="M25.3,18.1c0,0.1,0,0.2-0.2,0.2c-0.2,0-0.2,0-0.1-0.1C25.1,18,25.2,17.9,25.3,18.1z"/>
			<path id="XMLID_270_" class="st0" d="M22.1,16.5c0.3,0.2,0.7,0.3,0.9,0.3l0,0l0,0c0.2-0.1,0.6-0.1,1,0c0,0.2,0,0.4-0.1,0.6
				l-0.2,0.3c-0.1,0.2-0.3,0.3-0.5,0.3c-0.3,0-0.7,0-1.1-0.2c-0.4-0.2-0.9-0.5-1.3-0.9l0.8-0.9C21.7,16.2,21.9,16.3,22.1,16.5z"/>
			<path id="XMLID_269_" class="st1" d="M23.1,17.9c0.2,0,0.4-0.1,0.5-0.3l0.2-0.3c0.1-0.1,0.1-0.3,0.1-0.5l0.1,0
				c0,0.2,0,0.4-0.1,0.6l-0.2,0.3c-0.1,0.2-0.3,0.3-0.5,0.3c-0.3,0-0.7,0-1.1-0.2c-0.4-0.2-0.9-0.5-1.3-0.9c0.4,0.4,0.8,0.6,1.3,0.8
				C22.4,17.9,22.8,18,23.1,17.9z"/>
			<path id="XMLID_268_" class="st2" d="M22.1,17.8c0.5,0.2,0.9,0.2,1.2,0.1c0.3-0.1,0.5-0.2,0.6-0.4l-0.2,0.3
				c-0.1,0.2-0.3,0.3-0.5,0.3C22.9,18,22.5,18,22.1,17.8c-0.3-0.1-0.6-0.3-0.9-0.5C21.4,17.5,21.7,17.7,22.1,17.8z"/>
			<path id="XMLID_267_" class="st1" d="M23.1,16.8L23.1,16.8L23.1,16.8c0.1-0.1,0.3-0.1,0.5-0.1c0.1,0.4,0,0.8-0.1,0.6
				c-0.1-0.2-0.2-0.4-0.7-0.6C22.9,16.8,23,16.8,23.1,16.8z"/>
			<g id="XMLID_875_">
				<path id="XMLID_266_" class="st0" d="M27.5,18.8c-0.3-0.1-0.5-0.2-0.7-0.2c0-0.1,0-0.1,0-0.2c0.2,0.1,0.5,0.2,0.8,0.3L27.5,18.8
					z"/>
				<path id="XMLID_265_" class="st0" d="M26.5,17.7L26.5,17.7l0-0.1c0.4,0.1,0.8,0.2,1.3,0.3l0,0.1C27.3,17.9,26.9,17.8,26.5,17.7z
					"/>
				<polygon id="XMLID_264_" class="st2" points="26.6,17.8 26.5,17.7 26.6,17.8 				"/>
				<path id="XMLID_263_" class="st2" d="M27.7,18.1L27.7,18.1c-0.5-0.1-0.9-0.2-1.2-0.3l0-0.1l0,0C26.9,17.8,27.3,17.9,27.7,18.1z"
					/>
				<path id="XMLID_262_" class="st5" d="M26.6,17.9L26.6,17.9c0,0,0,0.1,0,0.2l0,0c0-0.1-0.1-0.2-0.1-0.3L26.6,17.9z"/>
				<path id="XMLID_261_" class="st5" d="M26.6,17.9L26.6,17.9L26.6,17.9z"/>
				<polygon id="XMLID_260_" class="st5" points="26.6,17.9 26.6,17.8 26.6,17.8 				"/>
				<path id="XMLID_259_" class="st5" d="M26.7,18L26.7,18c0,0,0-0.1,0-0.1L26.7,18z"/>
				<path id="XMLID_258_" class="st5" d="M27.7,18.1l-0.1,0.2c-0.3-0.1-0.7-0.2-1-0.3v0l0-0.1v0l0-0.1
					C26.8,17.8,27.3,17.9,27.7,18.1z"/>
				<path id="XMLID_257_" class="st3" d="M26.7,18.1L26.7,18.1c0,0.1,0.1,0.2,0.1,0.3C26.7,18.3,26.7,18.2,26.7,18.1L26.7,18.1z"/>
				<polygon id="XMLID_256_" class="st3" points="26.7,18.1 26.7,18.1 26.7,18.1 				"/>
				<polygon id="XMLID_255_" class="st3" points="26.7,18.1 26.7,18.1 26.7,18.1 				"/>
				<polygon id="XMLID_254_" class="st3" points="26.7,18.1 26.7,18.1 26.7,18.1 26.7,18 				"/>
				<path id="XMLID_253_" class="st3" d="M27.7,18.3L27.7,18.3L27.7,18.3l-0.1,0.3c-0.3-0.1-0.6-0.2-0.8-0.3c0-0.1,0-0.2-0.1-0.3
					l0,0l0,0v0C27,18.1,27.3,18.2,27.7,18.3z"/>
			</g>
			<g id="XMLID_871_">
				<path id="XMLID_252_" class="st4" d="M23.1,17.6L23.1,17.6c0.3,0.1,0.1,0.2-0.2,0.2c-0.7-0.1-1.4-0.4-2-1l0.3-0.3
					C22,17.3,22.8,17.6,23.1,17.6z"/>
				<path id="XMLID_251_" class="st2" d="M22.9,17.3c-0.1-0.1-0.2-0.2-0.4-0.3c-0.3-0.2-0.7-0.4-1.1-0.8l0,0c1,0.9,1.8,1.2,1.7,1.4
					c0,0,0,0.1-0.1,0.1c-0.2,0-1.1-0.3-2-1.1l0,0l0,0c0.9,0.8,1.7,1.1,1.8,1c0,0,0,0,0,0C23,17.4,23,17.3,22.9,17.3z"/>
				<path id="XMLID_250_" class="st5" d="M22.5,17c0.2,0.1,0.3,0.2,0.4,0.3c0.1,0.1,0.1,0.1,0.1,0.2c0,0,0,0,0,0
					c-0.1,0.1-0.9-0.2-1.8-1l0.2-0.2C21.8,16.6,22.2,16.8,22.5,17z"/>
			</g>
			<g id="XMLID_854_">
				<path id="XMLID_249_" class="st0" d="M22.8,15.9L22.8,15.9c-0.1,0-0.1,0.1-0.2,0.1c-0.2-0.2-0.3-0.4-0.5-0.6l0.1-0.1
					C22.4,15.5,22.6,15.7,22.8,15.9z"/>
				<path id="XMLID_248_" class="st0" d="M22.6,14.8L22.6,14.8c0.5,0.3,0.8,0.6,1,1l-0.1,0C23.3,15.5,23,15.1,22.6,14.8z"/>
				<path id="XMLID_247_" class="st0" d="M23,15.9L23,15.9L23,15.9z"/>
				<polygon id="XMLID_246_" class="st2" points="23.4,15.8 23.5,15.8 23.4,15.8 23.5,15.8 				"/>
				<path id="XMLID_245_" class="st2" d="M23.5,15.8L23.5,15.8c-0.2-0.2-0.5-0.6-0.9-0.9l0,0C23,15.1,23.3,15.5,23.5,15.8z"/>
				<path id="XMLID_244_" class="st5" d="M23.3,15.8L23.3,15.8l0.1,0c-0.1,0-0.2,0-0.3,0l0,0C23.2,15.8,23.3,15.8,23.3,15.8z"/>
				<path id="XMLID_243_" class="st5" d="M23.3,15.8L23.3,15.8L23.3,15.8z"/>
				<polygon id="XMLID_242_" class="st5" points="23.4,15.8 23.5,15.8 23.4,15.8 23.3,15.8 				"/>
				<path id="XMLID_241_" class="st5" d="M23.3,15.8c-0.1,0-0.1,0-0.2,0l0,0L23.3,15.8z"/>
				<path id="XMLID_240_" class="st5" d="M23.2,15.8c-0.2-0.2-0.5-0.5-0.7-0.8l0.2-0.2c0.4,0.4,0.7,0.7,0.9,0.9l-0.1,0h0L23.2,15.8z
					"/>
				<path id="XMLID_239_" class="st3" d="M22.8,15.9c0.1,0,0.1,0,0.2-0.1C22.9,15.9,22.9,15.9,22.8,15.9z"/>
				<path id="XMLID_238_" class="st3" d="M23.1,15.8L23.1,15.8c0,0-0.1,0-0.2,0L23.1,15.8L23.1,15.8z"/>
				<polygon id="XMLID_237_" class="st3" points="23.1,15.8 23.1,15.8 23.1,15.8 				"/>
				<polygon id="XMLID_236_" class="st3" points="23.1,15.8 23.2,15.8 23.2,15.8 				"/>
				<polygon id="XMLID_235_" class="st3" points="23.2,15.8 23.2,15.8 23.1,15.8 23.1,15.8 				"/>
				<path id="XMLID_234_" class="st3" d="M23.2,15.8L23.2,15.8L23.2,15.8l-0.2,0l0,0c-0.1,0-0.1,0-0.2,0.1l0,0
					c-0.2-0.2-0.4-0.4-0.6-0.6l0.2-0.2l0,0l0,0C22.7,15.3,23,15.6,23.2,15.8z"/>
			</g>
			<g id="XMLID_850_">
				<path id="XMLID_233_" class="st4" d="M25.1,18.8l0.1,0.1c0,0.2,0.7,0.8,1.9,1.2c0,0,0,0,0,0l-0.1,0.4c-0.8-0.3-1.5-0.8-1.8-1.4
					C24.9,18.9,24.9,18.7,25.1,18.8z"/>
				<path id="XMLID_232_" class="st2" d="M25.2,18.9c0.2-0.1,0.6,0.4,2,0.9c0,0,0,0,0,0l0,0c-0.5-0.2-0.9-0.4-1.2-0.5
					c-0.2-0.1-0.3-0.2-0.4-0.2c-0.1-0.1-0.2-0.1-0.2-0.1c0,0,0,0,0,0c0,0.2,0.6,0.7,1.7,1.1l0,0.1l0,0c0,0,0,0,0,0
					C25.8,19.8,25.2,19.2,25.2,18.9C25.2,18.9,25.2,18.9,25.2,18.9z"/>
				<path id="XMLID_231_" class="st5" d="M25.3,19C25.3,19,25.3,19,25.3,19c0,0,0.1,0,0.2,0c0.1,0,0.2,0.1,0.4,0.2
					c0.3,0.2,0.7,0.4,1.2,0.5L27,20.1C25.9,19.7,25.3,19.1,25.3,19z"/>
			</g>
		</g>
		<g id="XMLID_783_">
			<path id="XMLID_230_" class="st0" d="M20.5,13.6c0.2,0.4,0.2,0.8,0.1,1l0,0l0,0c0.1,0.3,0.2,0.6,0.4,0.9c0.1,0.2,0.3,0.4,0.5,0.5
				l-0.8,0.9c-0.4-0.4-0.8-0.8-1-1.2c-0.2-0.4-0.3-0.8-0.3-1.1c0-0.2,0.1-0.4,0.2-0.6l0.3-0.3C20.1,13.6,20.3,13.6,20.5,13.6z"/>
			<path id="XMLID_229_" class="st1" d="M20.5,13.6L20.5,13.6c-0.2,0.1-0.4,0.1-0.5,0.2l-0.3,0.3c-0.2,0.1-0.2,0.4-0.2,0.6
				c0,0.3,0.1,0.7,0.3,1.1c0.2,0.4,0.5,0.8,0.9,1.2c-0.4-0.4-0.8-0.8-1-1.2c-0.2-0.4-0.3-0.8-0.3-1.1c0-0.2,0.1-0.4,0.2-0.6l0.3-0.3
				C20.1,13.6,20.3,13.6,20.5,13.6z"/>
			<path id="XMLID_228_" class="st2" d="M19.8,15.7c0.1,0.3,0.3,0.6,0.6,0.9C20.1,16.3,19.9,16,19.8,15.7c-0.3-0.4-0.4-0.8-0.4-1.1
				c0-0.2,0.1-0.4,0.2-0.6l0.2-0.2c-0.2,0.2-0.3,0.4-0.3,0.7C19.5,14.8,19.6,15.2,19.8,15.7z"/>
			<path id="XMLID_227_" class="st0" d="M19.4,12.3L19.4,12.3L19.4,12.3L19.4,12.3l-0.1-0.1l0,0l-0.1,0l0,0l-0.1,0l0,0l-0.1,0l0,0
				c-0.2-0.1-0.4-0.1-0.6-0.1v0l0,0l0,0c-0.3-0.1-0.6-0.3-0.8-0.5c0,0,0.1-0.1,0.1-0.1c0.8-0.6,2.1-0.2,3,0.8
				c0.4,0.5,0.7,1.1,0.8,1.7c0.1,0.4,0,0.7-0.1,1c-0.1,0.2-0.2,0.3-0.3,0.4c0,0-0.1,0.1-0.1,0.1c-0.2-0.3-0.4-0.6-0.4-0.9l0,0
				c0.1-0.2,0.1-0.6-0.1-1c-0.1-0.2-0.2-0.5-0.5-0.7C19.8,12.6,19.6,12.4,19.4,12.3L19.4,12.3L19.4,12.3z"/>
			<path id="XMLID_226_" class="st3" d="M20.7,12.3c0.4,0.5,0.7,1.1,0.8,1.7c0.1,0.4,0,0.7-0.1,1c-0.1,0.2-0.2,0.3-0.3,0.4
				c0,0-0.1,0.1-0.1,0.1l0,0l0.1-0.1c0.1-0.1,0.2-0.3,0.3-0.4c0.1-0.3,0.2-0.7,0.1-1C21.4,13.4,21.1,12.8,20.7,12.3
				c-0.9-1-2.2-1.4-3.1-0.8l-0.1,0.1l0,0c0,0,0.1-0.1,0.1-0.1C18.5,10.8,19.9,11.2,20.7,12.3z"/>
			<path id="XMLID_225_" class="st0" d="M18.2,13.3c0.1,0.2,0.2,0.5,0.5,0.8c0.2,0.3,0.5,0.4,0.7,0.6c0,0.3,0.1,0.7,0.3,1.1
				c-0.6-0.1-1.2-0.5-1.7-1.1c-0.5-0.6-0.8-1.2-0.8-1.8C17.6,13.1,17.9,13.3,18.2,13.3L18.2,13.3z"/>
			<path id="XMLID_224_" class="st3" d="M17.3,12.9c0.1,0.6,0.3,1.2,0.8,1.7c0.5,0.5,1.1,0.9,1.6,1l0,0.1c-0.6-0.1-1.2-0.5-1.7-1.1
				C17.5,14.1,17.2,13.4,17.3,12.9L17.3,12.9z"/>
			<path id="XMLID_223_" class="st4" d="M17.4,13c0.1,0.1,0.2,0.1,0.3,0.1c0.2,0.4,0.4,0.8,0.7,1.2c0.3,0.4,0.7,0.7,1.1,0.9
				c0,0.1,0.1,0.2,0.1,0.3c-0.5-0.1-1-0.4-1.4-0.9C17.7,14.1,17.5,13.5,17.4,13z"/>
			<path id="XMLID_222_" class="st2" d="M17.9,13.2c-0.2,0.1,0,0.6,0.5,1.1c0.4,0.5,1,0.8,1.1,0.6c0.1-0.2-0.4-0.3-0.8-0.8
				C18.2,13.7,18,13.2,17.9,13.2z"/>
			<path id="XMLID_221_" class="st5" d="M18.4,14.3c0.4,0.4,0.7,0.6,0.8,0.6c0,0,0,0,0,0c0,0,0,0,0-0.1c0-0.1,0,0-0.1-0.1
				c-0.2-0.1-0.4-0.3-0.5-0.5c-0.2-0.2-0.3-0.4-0.4-0.6c-0.1-0.1-0.1-0.2-0.2-0.2c0-0.1-0.1-0.1-0.1,0c0,0,0,0,0,0
				C17.9,13.4,18,13.9,18.4,14.3z"/>
			<path id="XMLID_220_" class="st1" d="M20.6,13.9c0.1,0.3,0.1,0.5,0,0.7l0,0l0,0c0,0.2,0.1,0.4,0.2,0.5c-0.3-0.5-0.5-0.9-0.9-1.1
				C19.7,14,20.2,13.6,20.6,13.9z"/>
			<path id="XMLID_219_" class="st2" d="M21.4,14.2c0.1-0.5-0.2-1.3-0.9-2.1c-0.9-0.9-2-0.8-2-0.8c0,0,1.1,0.2,1.9,1.1
				C21.2,13.4,21.2,14.7,21.4,14.2z"/>
			<path id="XMLID_218_" class="st5" d="M21.3,13.8c0-0.4-0.2-0.9-0.7-1.4c-0.1-0.1-0.1-0.2-0.2-0.2c-0.5-0.5-0.5-0.3,0,0.2
				c0.5,0.6,0.7,1.2,0.8,1.6C21.3,14.1,21.4,13.9,21.3,13.8z"/>
			<path id="XMLID_217_" class="st4" d="M20,12.7c-0.5-0.6-0.9-0.9-1.4-1.2c-0.2-0.1-0.3-0.3,0-0.2c0.6,0.2,1.3,0.6,1.7,1.1
				c0.5,0.6,0.7,1.3,0.9,1.9c0.1,0.3-0.1,0.3-0.2,0.1C20.8,13.8,20.6,13.3,20,12.7z"/>
			<path id="XMLID_216_" class="st3" d="M20.1,12.9c0.5,0.6,0.8,1.4,0.8,2.4c-0.1-0.2-0.2-0.5-0.3-0.7l0,0c0.1-0.2,0.1-0.6-0.1-1
				C20.4,13.3,20.3,13.1,20.1,12.9L20.1,12.9L20.1,12.9L20.1,12.9z"/>
			<path id="XMLID_215_" class="st1" d="M20.1,12.9L20.1,12.9c-0.2-0.2-0.4-0.4-0.7-0.5l0,0l0,0l0,0l0,0l0,0l0,0l0,0l-0.1,0l0,0
				l-0.1,0l0,0l-0.1,0l0,0c-0.2-0.1-0.4-0.1-0.6-0.1v0l0,0l0,0c-0.2-0.1-0.4-0.2-0.6-0.4C18.7,11.8,19.5,12.2,20.1,12.9z"/>
			<path id="XMLID_214_" class="st4" d="M18.7,12.1c-0.1,0-0.2,0-0.3,0v0l0,0l0,0c-0.1,0-0.2-0.1-0.3-0.2C18.3,12,18.5,12,18.7,12.1
				z"/>
			<path id="XMLID_213_" class="st4" d="M20.6,14.6L20.6,14.6L20.6,14.6c-0.1-0.3-0.1-0.5,0-0.5l0,0C20.7,14.3,20.7,14.4,20.6,14.6z
				"/>
			<path id="XMLID_212_" class="st1" d="M21,15.3c-0.2-0.3-0.3-0.5-0.4-0.8l0,0c0-0.1,0-0.2,0-0.2C20.7,14.6,20.8,15,21,15.3z"/>
			<path id="XMLID_211_" class="st2" d="M18.5,11.6c0,0.1,0.2,0.2,0.4,0.3c0.3,0.2,0.6,0.4,0.6,0.3c0-0.1-0.3-0.3-0.6-0.5
				C18.6,11.5,18.4,11.4,18.5,11.6z"/>
			<path id="XMLID_210_" class="st2" d="M20.3,13.9c0,0.1,0,0.2-0.2,0.1c-0.2,0-0.2-0.1-0.1-0.2C20.1,13.8,20.3,13.8,20.3,13.9z"/>
			<path id="XMLID_209_" class="st0" d="M17.6,11.6c0.3,0.3,0.6,0.4,0.8,0.5l0,0l0,0c0.2-0.1,0.6,0,1,0.2c0,0.2-0.1,0.4-0.3,0.6
				l-0.3,0.3c-0.2,0.1-0.4,0.2-0.6,0.1c-0.3,0-0.7-0.2-1-0.5c-0.4-0.3-0.8-0.6-1.1-1.1l1-0.7C17.3,11.2,17.4,11.4,17.6,11.6z"/>
			<path id="XMLID_208_" class="st1" d="M18.2,13.2c0.2,0,0.4,0,0.6-0.2l0.3-0.3c0.1-0.1,0.2-0.3,0.3-0.4l0.1,0
				c0,0.2-0.1,0.4-0.3,0.6l-0.3,0.3c-0.2,0.1-0.4,0.2-0.6,0.1c-0.3,0-0.7-0.2-1-0.5c-0.4-0.3-0.8-0.6-1.1-1.1c0.3,0.4,0.7,0.8,1,1
				C17.5,13,17.9,13.1,18.2,13.2z"/>
			<path id="XMLID_207_" class="st2" d="M17.2,12.8c0.4,0.2,0.8,0.4,1.2,0.4c0.3,0,0.5-0.1,0.7-0.2l-0.3,0.2
				c-0.2,0.1-0.4,0.2-0.6,0.1C17.9,13.3,17.6,13.1,17.2,12.8c-0.3-0.1-0.5-0.4-0.8-0.6C16.7,12.4,17,12.6,17.2,12.8z"/>
			<path id="XMLID_206_" class="st1" d="M18.4,12.1L18.4,12.1L18.4,12.1c0.2,0,0.3,0,0.5,0c0,0.4-0.2,0.8-0.3,0.6
				c0-0.2-0.1-0.4-0.6-0.7C18.2,12,18.3,12.1,18.4,12.1z"/>
			<g id="XMLID_809_">
				<path id="XMLID_205_" class="st0" d="M22.1,15.4c-0.2-0.2-0.4-0.4-0.6-0.5c0-0.1,0.1-0.1,0.1-0.2c0.2,0.2,0.4,0.3,0.7,0.6
					L22.1,15.4z"/>
				<path id="XMLID_204_" class="st0" d="M21.6,14L21.6,14l0-0.1c0.4,0.2,0.8,0.5,1.1,0.8l-0.1,0.1C22.3,14.5,21.9,14.2,21.6,14z"/>
				<polygon id="XMLID_203_" class="st2" points="21.6,14.1 21.6,14 21.6,14.1 				"/>
				<path id="XMLID_202_" class="st2" d="M22.6,14.8L22.6,14.8c-0.4-0.3-0.8-0.6-1.1-0.7l0-0.1l0,0C21.9,14.2,22.3,14.5,22.6,14.8z"
					/>
				<path id="XMLID_201_" class="st5" d="M21.6,14.2L21.6,14.2c0,0.1,0,0.1,0,0.2l0,0c0-0.1,0-0.2,0-0.3L21.6,14.2z"/>
				<path id="XMLID_200_" class="st5" d="M21.6,14.2L21.6,14.2L21.6,14.2z"/>
				<polygon id="XMLID_199_" class="st5" points="21.6,14.2 21.6,14.1 21.6,14.1 				"/>
				<path id="XMLID_198_" class="st5" d="M21.6,14.4L21.6,14.4c0,0,0-0.1,0-0.1L21.6,14.4z"/>
				<path id="XMLID_197_" class="st5" d="M22.6,14.9L22.4,15c-0.3-0.3-0.6-0.5-0.9-0.7v0l0-0.1v0l0-0.1
					C21.8,14.2,22.2,14.5,22.6,14.9z"/>
				<path id="XMLID_196_" class="st3" d="M21.6,14.4L21.6,14.4c0,0.1,0,0.2-0.1,0.3C21.5,14.6,21.6,14.5,21.6,14.4L21.6,14.4z"/>
				<polygon id="XMLID_195_" class="st3" points="21.6,14.4 21.6,14.4 21.6,14.4 				"/>
				<polygon id="XMLID_194_" class="st3" points="21.6,14.4 21.6,14.4 21.6,14.4 				"/>
				<polygon id="XMLID_193_" class="st3" points="21.6,14.4 21.6,14.4 21.6,14.4 21.6,14.4 				"/>
				<path id="XMLID_192_" class="st3" d="M22.4,15L22.4,15L22.4,15l-0.2,0.3c-0.2-0.2-0.5-0.4-0.7-0.6c0-0.1,0-0.2,0.1-0.3l0,0l0,0
					v0C21.8,14.5,22.1,14.8,22.4,15z"/>
			</g>
			<g id="XMLID_805_">
				<path id="XMLID_191_" class="st4" d="M18.3,12.9L18.3,12.9c0.2,0.1,0,0.2-0.3,0.1c-0.6-0.2-1.3-0.7-1.7-1.3l0.3-0.3
					C17.3,12.3,18,12.9,18.3,12.9z"/>
				<path id="XMLID_190_" class="st2" d="M18.1,12.5c-0.1-0.1-0.2-0.2-0.3-0.3c-0.2-0.2-0.5-0.6-0.9-1l0,0c0.8,1.1,1.4,1.5,1.4,1.7
					c0,0,0,0-0.1,0c-0.2,0-1-0.5-1.7-1.5l0,0l0.1,0c0.7,1,1.4,1.4,1.5,1.4c0,0,0,0,0,0C18.2,12.7,18.2,12.6,18.1,12.5z"/>
				<path id="XMLID_189_" class="st5" d="M17.8,12.2c0.1,0.1,0.2,0.3,0.3,0.3c0.1,0.1,0.1,0.2,0.1,0.2c0,0,0,0,0,0
					c-0.1,0-0.8-0.4-1.5-1.4l0.3-0.2C17.3,11.6,17.6,11.9,17.8,12.2z"/>
			</g>
			<g id="XMLID_788_">
				<path id="XMLID_188_" class="st0" d="M18.4,11.2L18.4,11.2c-0.1,0-0.1,0-0.2,0c-0.1-0.2-0.3-0.5-0.4-0.7l0.1-0.1
					C18.1,10.7,18.3,10.9,18.4,11.2z"/>
				<path id="XMLID_187_" class="st0" d="M18.4,10L18.4,10c0.4,0.4,0.6,0.8,0.8,1.2l-0.1,0C18.9,10.9,18.7,10.4,18.4,10z"/>
				<path id="XMLID_186_" class="st0" d="M18.6,11.2L18.6,11.2L18.6,11.2z"/>
				<polygon id="XMLID_185_" class="st2" points="19,11.2 19.1,11.2 19,11.2 19,11.2 				"/>
				<path id="XMLID_184_" class="st2" d="M19.1,11.2L19.1,11.2c-0.2-0.3-0.4-0.7-0.7-1.1l0,0C18.7,10.4,18.9,10.9,19.1,11.2z"/>
				<path id="XMLID_183_" class="st5" d="M18.9,11.2L18.9,11.2l0.1,0c-0.1,0-0.2,0-0.3,0h0C18.8,11.2,18.8,11.2,18.9,11.2z"/>
				<path id="XMLID_182_" class="st5" d="M18.9,11.2L18.9,11.2L18.9,11.2z"/>
				<polygon id="XMLID_181_" class="st5" points="19,11.2 19,11.2 19,11.2 18.9,11.2 				"/>
				<path id="XMLID_180_" class="st5" d="M18.9,11.2c-0.1,0-0.1,0-0.2,0l0,0L18.9,11.2z"/>
				<path id="XMLID_179_" class="st5" d="M18.8,11.2c-0.1-0.3-0.3-0.6-0.6-0.9l0.2-0.1c0.3,0.4,0.5,0.9,0.7,1.1l-0.1,0l0,0
					L18.8,11.2z"/>
				<path id="XMLID_178_" class="st3" d="M18.4,11.2c0.1,0,0.1,0,0.2,0C18.5,11.2,18.4,11.2,18.4,11.2z"/>
				<path id="XMLID_177_" class="st3" d="M18.7,11.2L18.7,11.2c0,0-0.1,0-0.2,0L18.7,11.2L18.7,11.2z"/>
				<polygon id="XMLID_176_" class="st3" points="18.7,11.2 18.7,11.2 18.7,11.2 				"/>
				<polygon id="XMLID_175_" class="st3" points="18.7,11.2 18.7,11.2 18.7,11.2 				"/>
				<polygon id="XMLID_174_" class="st3" points="18.8,11.2 18.7,11.2 18.7,11.2 18.7,11.2 				"/>
				<path id="XMLID_173_" class="st3" d="M18.8,11.2L18.8,11.2L18.8,11.2l-0.2,0h0c-0.1,0-0.1,0-0.2,0l0,0c-0.1-0.2-0.3-0.5-0.5-0.7
					l0.2-0.2l0,0l0,0C18.4,10.5,18.6,10.9,18.8,11.2z"/>
			</g>
			<g id="XMLID_784_">
				<path id="XMLID_172_" class="st4" d="M19.8,14.6l0.1,0.1c0,0.2,0.4,0.9,1.3,1.7c0,0,0,0,0,0l-0.3,0.3c-0.6-0.5-1-1.2-1.2-1.9
					C19.6,14.6,19.7,14.4,19.8,14.6z"/>
				<path id="XMLID_171_" class="st2" d="M19.9,14.7c0.2-0.1,0.5,0.5,1.5,1.5c0,0,0,0,0,0l0,0c-0.4-0.4-0.7-0.7-0.9-0.9
					c-0.1-0.1-0.2-0.2-0.3-0.3c-0.1-0.1-0.2-0.1-0.2-0.1c0,0,0,0,0,0c0,0.1,0.3,0.8,1.2,1.6l0,0l0,0c0,0,0,0,0,0
					C20.2,15.7,19.8,14.9,19.9,14.7C19.9,14.7,19.9,14.7,19.9,14.7z"/>
				<path id="XMLID_170_" class="st5" d="M20,14.8C20,14.8,20,14.8,20,14.8c0.1,0,0.1,0,0.2,0.1c0.1,0.1,0.2,0.2,0.3,0.3
					c0.2,0.2,0.5,0.6,0.9,0.9l-0.2,0.2C20.3,15.6,20,15,20,14.8z"/>
			</g>
		</g>
		<g id="XMLID_717_">
			<path id="XMLID_169_" class="st0" d="M16.5,8.4c0.1,0.4,0.1,0.8-0.1,1l0,0l0,0c0,0.3,0.1,0.6,0.3,1c0.1,0.2,0.2,0.4,0.4,0.6
				l-1,0.7c-0.3-0.5-0.6-0.9-0.7-1.4c-0.1-0.4-0.2-0.8-0.1-1.1c0-0.2,0.1-0.4,0.3-0.5l0.3-0.2C16.1,8.4,16.3,8.4,16.5,8.4z"/>
			<path id="XMLID_168_" class="st1" d="M16.5,8.4L16.5,8.4c-0.2,0.1-0.4,0-0.5,0.1l-0.4,0.2c-0.2,0.1-0.2,0.4-0.3,0.6
				c-0.1,0.3,0,0.7,0.1,1.1c0.1,0.4,0.3,0.9,0.7,1.3c-0.3-0.5-0.6-0.9-0.7-1.4c-0.1-0.4-0.2-0.8-0.1-1.1c0-0.2,0.1-0.4,0.3-0.5
				l0.3-0.2C16.1,8.4,16.3,8.4,16.5,8.4z"/>
			<path id="XMLID_167_" class="st2" d="M15.4,10.4c0.1,0.3,0.2,0.6,0.4,0.9C15.6,11,15.5,10.7,15.4,10.4c-0.2-0.4-0.2-0.8-0.2-1.1
				c0-0.2,0.1-0.4,0.3-0.5l0.3-0.2c-0.2,0.1-0.4,0.3-0.4,0.6C15.3,9.5,15.3,9.9,15.4,10.4z"/>
			<path id="XMLID_166_" class="st0" d="M15.6,7L15.6,7L15.6,7L15.6,7l-0.1-0.1l0,0l0,0l0,0l0,0l0,0l-0.1,0l0,0
				c-0.2-0.1-0.4-0.2-0.6-0.1v0l0,0l0,0c-0.2-0.1-0.5-0.3-0.8-0.6c0,0,0.1-0.1,0.1-0.1C15,5.4,16.2,6,17,7.1
				c0.4,0.6,0.6,1.2,0.5,1.8c0,0.4-0.1,0.7-0.3,1c-0.1,0.1-0.2,0.3-0.3,0.4c0,0-0.1,0.1-0.2,0.1c-0.2-0.3-0.3-0.7-0.3-1l0,0
				c0.1-0.2,0.2-0.6,0.1-1c-0.1-0.2-0.2-0.5-0.3-0.8C16,7.4,15.8,7.1,15.6,7L15.6,7L15.6,7z"/>
			<path id="XMLID_165_" class="st3" d="M17,7.1c0.4,0.6,0.6,1.2,0.5,1.8c0,0.4-0.1,0.7-0.3,1c-0.1,0.1-0.2,0.3-0.3,0.4
				c0,0-0.1,0.1-0.2,0.1l0,0l0.1-0.1c0.1-0.1,0.2-0.2,0.3-0.4c0.2-0.3,0.3-0.6,0.3-1C17.5,8.4,17.3,7.8,17,7.1
				C16.2,6,14.9,5.4,14,5.9L13.9,6l0,0c0,0,0.1-0.1,0.1-0.1C15,5.4,16.2,6,17,7.1z"/>
			<path id="XMLID_164_" class="st0" d="M14.3,7.8c0.1,0.3,0.2,0.5,0.3,0.8c0.2,0.3,0.4,0.5,0.6,0.7c-0.1,0.3,0,0.7,0.1,1.1
				c-0.5-0.2-1.1-0.7-1.5-1.3c-0.4-0.6-0.6-1.3-0.5-1.9C13.7,7.5,14,7.7,14.3,7.8L14.3,7.8z"/>
			<path id="XMLID_163_" class="st3" d="M13.4,7.2c0,0.6,0.2,1.2,0.5,1.8c0.4,0.6,0.9,1,1.4,1.3l0,0.1c-0.5-0.2-1.1-0.7-1.5-1.3
				C13.5,8.5,13.3,7.8,13.4,7.2L13.4,7.2z"/>
			<path id="XMLID_162_" class="st4" d="M13.6,7.4c0.1,0.1,0.2,0.1,0.2,0.2c0.1,0.4,0.3,0.8,0.5,1.2c0.3,0.4,0.6,0.8,0.9,1
				c0,0.1,0,0.2,0.1,0.3C14.8,9.9,14.4,9.5,14,9C13.7,8.5,13.6,7.9,13.6,7.4z"/>
			<path id="XMLID_161_" class="st2" d="M14,7.7c-0.2,0-0.1,0.6,0.3,1.2c0.3,0.5,0.8,0.9,0.9,0.7c0.1-0.1-0.3-0.4-0.7-0.9
				C14.2,8.1,14.1,7.7,14,7.7z"/>
			<path id="XMLID_160_" class="st5" d="M14.3,8.8c0.3,0.4,0.6,0.7,0.7,0.7c0,0,0,0,0,0c0,0,0,0,0-0.1c0-0.1,0,0-0.1-0.1
				c-0.1-0.1-0.3-0.3-0.5-0.6c-0.2-0.2-0.2-0.5-0.3-0.6c0-0.1-0.1-0.2-0.1-0.3C14,7.7,14,7.7,14,7.7c0,0,0,0,0,0
				C13.9,7.9,14,8.4,14.3,8.8z"/>
			<path id="XMLID_159_" class="st1" d="M16.6,8.7c0,0.3,0,0.5-0.1,0.7l0,0l0,0c0,0.2,0,0.4,0.1,0.6c-0.2-0.5-0.4-1-0.7-1.2
				C15.6,8.7,16.3,8.4,16.6,8.7z"/>
			<path id="XMLID_158_" class="st2" d="M17.3,9.1c0.2-0.5,0.1-1.4-0.6-2.2c-0.8-1-1.9-1.1-1.9-1.1c0,0,1,0.3,1.7,1.4
				C17.2,8.3,17.1,9.6,17.3,9.1z"/>
			<path id="XMLID_157_" class="st5" d="M17.3,8.8c0-0.4-0.1-1-0.5-1.5c-0.1-0.1-0.1-0.2-0.2-0.3c-0.4-0.5-0.5-0.4-0.1,0.2
				c0.4,0.7,0.5,1.4,0.6,1.7C17.2,9,17.3,8.9,17.3,8.8z"/>
			<path id="XMLID_156_" class="st4" d="M16.2,7.4c-0.4-0.7-0.8-1-1.3-1.4c-0.2-0.1-0.2-0.4,0.1-0.2c0.6,0.3,1.2,0.8,1.6,1.4
				c0.4,0.6,0.5,1.4,0.6,2c0,0.3-0.2,0.3-0.2,0.1C16.8,8.7,16.6,8.1,16.2,7.4z"/>
			<path id="XMLID_155_" class="st3" d="M16.2,7.6c0.5,0.7,0.6,1.6,0.4,2.5c-0.1-0.2-0.1-0.5-0.2-0.7l0,0c0.1-0.2,0.2-0.6,0.1-1
				C16.5,8.2,16.4,7.9,16.2,7.6L16.2,7.6L16.2,7.6L16.2,7.6z"/>
			<path id="XMLID_154_" class="st1" d="M16.2,7.6L16.2,7.6C16,7.4,15.8,7.1,15.6,7l0,0l0,0l0,0l0,0l0,0l0,0l0,0l0,0l0,0l0,0l0,0
				l-0.1,0l0,0c-0.2-0.1-0.4-0.2-0.6-0.1v0l0,0l0,0c-0.2-0.1-0.4-0.2-0.6-0.4C15,6.4,15.7,6.9,16.2,7.6z"/>
			<path id="XMLID_153_" class="st4" d="M15,6.6c-0.1,0-0.2,0-0.3,0v0l0,0l0,0c-0.1-0.1-0.2-0.1-0.3-0.2C14.6,6.5,14.8,6.6,15,6.6z"
				/>
			<path id="XMLID_152_" class="st4" d="M16.5,9.4L16.5,9.4L16.5,9.4c-0.1-0.3,0-0.5,0.1-0.5l0,0C16.6,9.1,16.5,9.3,16.5,9.4z"/>
			<path id="XMLID_151_" class="st1" d="M16.7,10.2c-0.1-0.3-0.2-0.6-0.2-0.8l0,0c0-0.1,0.1-0.1,0.1-0.2
				C16.5,9.4,16.6,9.9,16.7,10.2z"/>
			<path id="XMLID_150_" class="st2" d="M14.8,6.1c0,0.1,0.2,0.2,0.4,0.4c0.3,0.2,0.5,0.5,0.6,0.4c0.1-0.1-0.2-0.3-0.5-0.6
				C14.9,6,14.8,5.9,14.8,6.1z"/>
			<path id="XMLID_149_" class="st2" d="M16.2,8.7c0,0.1-0.1,0.2-0.2,0.1c-0.2-0.1-0.2-0.1-0.1-0.2C16.1,8.6,16.2,8.6,16.2,8.7z"/>
			<path id="XMLID_148_" class="st0" d="M13.9,6c0.2,0.3,0.5,0.5,0.8,0.6l0,0v0c0.2,0,0.6,0.1,0.9,0.4c-0.1,0.2-0.2,0.4-0.3,0.5
				l-0.4,0.2c-0.2,0.1-0.4,0.1-0.6,0.1c-0.3-0.1-0.6-0.3-1-0.6C13,6.9,12.7,6.5,12.4,6l1.1-0.6C13.6,5.6,13.8,5.8,13.9,6z"/>
			<path id="XMLID_147_" class="st1" d="M14.3,7.6c0.2,0.1,0.4,0,0.6-0.1l0.4-0.2c0.1-0.1,0.3-0.2,0.3-0.4l0.1,0
				c-0.1,0.2-0.2,0.4-0.3,0.5l-0.4,0.2c-0.2,0.1-0.4,0.1-0.6,0.1c-0.3-0.1-0.6-0.3-1-0.6C13,6.9,12.7,6.5,12.4,6
				c0.3,0.5,0.6,0.8,0.9,1.1C13.6,7.4,14,7.6,14.3,7.6z"/>
			<path id="XMLID_146_" class="st2" d="M13.4,7.2c0.4,0.3,0.7,0.5,1.1,0.5c0.3,0,0.5,0,0.7-0.1l-0.3,0.2c-0.2,0.1-0.4,0.1-0.6,0.1
				C14,7.7,13.7,7.5,13.4,7.2c-0.3-0.2-0.5-0.4-0.7-0.7C12.9,6.7,13.2,7,13.4,7.2z"/>
			<path id="XMLID_145_" class="st1" d="M14.7,6.6L14.7,6.6L14.7,6.6c0.2,0,0.3,0,0.5,0.1c0,0.4-0.3,0.7-0.3,0.5
				c0-0.2-0.1-0.4-0.5-0.8C14.5,6.5,14.6,6.6,14.7,6.6z"/>
			<g id="XMLID_743_">
				<path id="XMLID_144_" class="st0" d="M17.8,10.5c-0.2-0.2-0.3-0.4-0.5-0.6c0-0.1,0.1-0.1,0.1-0.2c0.2,0.2,0.4,0.4,0.6,0.7
					L17.8,10.5z"/>
				<path id="XMLID_143_" class="st0" d="M17.5,9L17.5,9l0-0.1c0.3,0.3,0.7,0.6,1,1.1L18.4,10C18.1,9.6,17.8,9.3,17.5,9z"/>
				<polygon id="XMLID_142_" class="st2" points="17.5,9.1 17.5,9 17.5,9.1 				"/>
				<path id="XMLID_141_" class="st2" d="M18.4,10L18.4,10c-0.4-0.4-0.7-0.7-0.9-0.9l0-0.1l0,0C17.8,9.3,18.1,9.6,18.4,10z"/>
				<path id="XMLID_140_" class="st5" d="M17.5,9.2L17.5,9.2c0,0.1,0,0.1,0,0.2l0,0c0-0.1,0-0.2,0.1-0.3L17.5,9.2z"/>
				<path id="XMLID_139_" class="st5" d="M17.5,9.2L17.5,9.2L17.5,9.2z"/>
				<polygon id="XMLID_138_" class="st5" points="17.5,9.2 17.5,9.1 17.5,9.1 				"/>
				<path id="XMLID_137_" class="st5" d="M17.5,9.4L17.5,9.4c0,0,0-0.1,0-0.1L17.5,9.4z"/>
				<path id="XMLID_136_" class="st5" d="M18.4,10.1l-0.2,0.1c-0.2-0.3-0.5-0.6-0.7-0.8v0l0-0.1v0l0-0.1C17.7,9.3,18,9.6,18.4,10.1z
					"/>
				<path id="XMLID_135_" class="st3" d="M17.4,9.4L17.4,9.4c0,0.1-0.1,0.2-0.1,0.3C17.4,9.6,17.4,9.5,17.4,9.4L17.4,9.4z"/>
				<polygon id="XMLID_134_" class="st3" points="17.4,9.4 17.4,9.4 17.4,9.4 				"/>
				<polygon id="XMLID_133_" class="st3" points="17.4,9.4 17.4,9.4 17.4,9.4 				"/>
				<polygon id="XMLID_132_" class="st3" points="17.4,9.4 17.4,9.4 17.4,9.4 17.5,9.4 				"/>
				<path id="XMLID_131_" class="st3" d="M18.2,10.2L18.2,10.2L18.2,10.2l-0.3,0.2c-0.2-0.3-0.4-0.5-0.6-0.7c0-0.1,0.1-0.2,0.1-0.3
					l0,0l0,0v0C17.7,9.6,17.9,9.9,18.2,10.2z"/>
			</g>
			<g id="XMLID_739_">
				<path id="XMLID_130_" class="st4" d="M14.4,7.4L14.4,7.4c0.2,0.2,0,0.2-0.3,0.1c-0.6-0.3-1.1-0.9-1.5-1.5L13,5.7
					C13.5,6.7,14.2,7.3,14.4,7.4z"/>
				<path id="XMLID_129_" class="st2" d="M14.3,7c-0.1-0.1-0.1-0.2-0.3-0.4c-0.2-0.3-0.5-0.6-0.7-1.1l0,0c0.7,1.2,1.2,1.7,1.1,1.9
					c0,0,0,0-0.1,0c-0.2,0-0.9-0.7-1.4-1.7l0,0l0.1,0c0.6,1.1,1.2,1.6,1.3,1.6c0,0,0,0,0,0C14.4,7.2,14.4,7.1,14.3,7z"/>
				<path id="XMLID_128_" class="st5" d="M14.1,6.6c0.1,0.2,0.2,0.3,0.3,0.4c0.1,0.1,0.1,0.2,0.1,0.2c0,0,0,0,0,0
					c-0.2,0-0.7-0.5-1.3-1.6l0.3-0.2C13.6,6,13.9,6.3,14.1,6.6z"/>
			</g>
			<g id="XMLID_722_">
				<path id="XMLID_127_" class="st0" d="M14.8,5.7L14.8,5.7c-0.1,0-0.1,0-0.2,0c-0.1-0.2-0.2-0.5-0.3-0.7l0.2-0.1
					C14.5,5.2,14.7,5.5,14.8,5.7z"/>
				<path id="XMLID_126_" class="st0" d="M14.9,4.6L14.9,4.6c0.4,0.4,0.5,0.9,0.6,1.3l-0.1,0C15.3,5.5,15.2,5,14.9,4.6z"/>
				<path id="XMLID_125_" class="st0" d="M14.9,5.7L14.9,5.7L14.9,5.7z"/>
				<polygon id="XMLID_124_" class="st2" points="15.4,5.8 15.5,5.8 15.4,5.8 15.4,5.8 				"/>
				<path id="XMLID_123_" class="st2" d="M15.5,5.8L15.5,5.8c-0.1-0.3-0.3-0.7-0.6-1.2l0,0C15.2,5,15.3,5.5,15.5,5.8z"/>
				<path id="XMLID_122_" class="st5" d="M15.3,5.8L15.3,5.8l0.1,0c-0.1,0-0.2-0.1-0.3-0.1h0C15.2,5.7,15.2,5.8,15.3,5.8z"/>
				<path id="XMLID_121_" class="st5" d="M15.3,5.8L15.3,5.8L15.3,5.8z"/>
				<polygon id="XMLID_120_" class="st5" points="15.4,5.8 15.4,5.8 15.4,5.8 15.3,5.8 				"/>
				<path id="XMLID_119_" class="st5" d="M15.3,5.8c-0.1,0-0.1,0-0.2,0l0,0L15.3,5.8z"/>
				<path id="XMLID_118_" class="st5" d="M15.1,5.7c-0.1-0.3-0.3-0.7-0.5-1l0.2-0.1c0.3,0.5,0.4,0.9,0.5,1.2l-0.1,0l0,0L15.1,5.7z"
					/>
				<path id="XMLID_117_" class="st3" d="M14.8,5.7c0.1,0,0.1,0,0.2,0C14.9,5.7,14.8,5.7,14.8,5.7z"/>
				<path id="XMLID_116_" class="st3" d="M15.1,5.7L15.1,5.7c0,0-0.1,0-0.2,0L15.1,5.7L15.1,5.7z"/>
				<polygon id="XMLID_115_" class="st3" points="15.1,5.7 15.1,5.7 15.1,5.7 				"/>
				<polygon id="XMLID_114_" class="st3" points="15.1,5.7 15.1,5.7 15.1,5.7 				"/>
				<polygon id="XMLID_113_" class="st3" points="15.1,5.7 15.1,5.7 15.1,5.7 15.1,5.7 				"/>
				<path id="XMLID_112_" class="st3" d="M15.1,5.7L15.1,5.7L15.1,5.7l-0.2,0h0c-0.1,0-0.1,0-0.2,0h0c-0.1-0.2-0.2-0.5-0.4-0.8
					l0.2-0.1l0,0l0.1,0C14.9,5.1,15,5.4,15.1,5.7z"/>
			</g>
			<g id="XMLID_718_">
				<path id="XMLID_111_" class="st4" d="M15.7,9.3l0,0.2c-0.1,0.2,0.2,1,0.9,1.9c0,0,0,0,0,0l-0.3,0.3c-0.5-0.6-0.7-1.4-0.8-2
					C15.5,9.3,15.6,9.1,15.7,9.3z"/>
				<path id="XMLID_110_" class="st2" d="M15.8,9.4c0.2,0,0.4,0.6,1.2,1.7c0,0,0,0,0,0l0,0c-0.3-0.4-0.5-0.8-0.7-1.1
					c-0.1-0.2-0.2-0.3-0.2-0.4c-0.1-0.1-0.1-0.2-0.2-0.2c0,0,0,0,0,0c-0.1,0.1,0.2,0.8,0.8,1.8l-0.1,0l0,0c0,0,0,0,0,0
					C15.9,10.4,15.6,9.7,15.8,9.4C15.7,9.4,15.7,9.4,15.8,9.4z"/>
				<path id="XMLID_109_" class="st5" d="M15.8,9.5C15.8,9.5,15.8,9.5,15.8,9.5c0.1,0,0.1,0,0.2,0.1c0.1,0.1,0.1,0.2,0.2,0.4
					c0.2,0.3,0.4,0.6,0.7,1.1l-0.3,0.2C16,10.4,15.8,9.7,15.8,9.5z"/>
			</g>
		</g>
		<g id="XMLID_656_">
			<path id="XMLID_108_" class="st0" d="M13.2,2.7c0.1,0.4,0,0.8-0.2,1l0,0l0,0c0,0.3,0,0.6,0.2,1c0.1,0.2,0.2,0.4,0.3,0.7L12.4,6
				c-0.3-0.5-0.5-1-0.5-1.4c-0.1-0.4-0.1-0.8,0-1.1c0.1-0.2,0.2-0.4,0.4-0.5l0.4-0.2C12.8,2.7,13,2.7,13.2,2.7z"/>
			<path id="XMLID_107_" class="st1" d="M13.2,2.7L13.2,2.7c-0.2,0-0.4,0-0.5,0.1L12.3,3C12.1,3.1,12,3.3,12,3.6
				c-0.1,0.3-0.1,0.7,0,1.1C12,5.1,12.2,5.5,12.4,6c-0.3-0.5-0.5-1-0.5-1.4c-0.1-0.4-0.1-0.8,0-1.1c0.1-0.2,0.2-0.4,0.4-0.5l0.4-0.2
				C12.8,2.7,13,2.7,13.2,2.7z"/>
			<path id="XMLID_106_" class="st2" d="M11.9,4.5c0,0.3,0.1,0.6,0.3,1C12,5.2,11.9,4.9,11.9,4.5c-0.1-0.4-0.1-0.8,0-1.1
				c0.1-0.2,0.2-0.4,0.4-0.5l0.3-0.2c-0.2,0.1-0.4,0.3-0.5,0.6C11.9,3.7,11.9,4.1,11.9,4.5z"/>
			<path id="XMLID_105_" class="st0" d="M12.4,1.2L12.4,1.2L12.4,1.2L12.4,1.2l-0.1-0.1l0,0l0,0l0,0l0,0l0,0l0,0l0,0
				c-0.2-0.1-0.4-0.2-0.6-0.2v0l0,0l0,0c-0.2-0.2-0.5-0.4-0.7-0.7C10.9,0,11,0,11,0c0.9-0.4,2.1,0.3,2.8,1.5
				c0.3,0.6,0.4,1.3,0.4,1.9c0,0.4-0.2,0.7-0.4,1c-0.1,0.1-0.2,0.2-0.4,0.3c-0.1,0-0.1,0.1-0.2,0.1C13.1,4.3,13,4,13,3.7l0,0
				c0.1-0.2,0.2-0.5,0.2-1c0-0.3-0.1-0.5-0.3-0.8C12.8,1.6,12.6,1.4,12.4,1.2L12.4,1.2L12.4,1.2z"/>
			<path id="XMLID_104_" class="st3" d="M13.8,1.5c0.3,0.6,0.4,1.3,0.4,1.9c0,0.4-0.2,0.7-0.4,1c-0.1,0.1-0.2,0.2-0.4,0.3
				c-0.1,0-0.1,0.1-0.2,0.1l0,0l0.1,0c0.1-0.1,0.3-0.2,0.4-0.3c0.2-0.3,0.3-0.6,0.4-1C14.1,2.8,14,2.2,13.8,1.5
				C13.1,0.3,11.9-0.4,11,0l-0.1,0l0,0C10.9,0,11,0,11,0C11.9-0.4,13.1,0.3,13.8,1.5z"/>
			<path id="XMLID_103_" class="st0" d="M11.1,1.9c0,0.3,0.1,0.5,0.3,0.8c0.1,0.3,0.3,0.5,0.5,0.7c-0.1,0.3-0.1,0.7,0,1.1
				c-0.5-0.3-1-0.8-1.3-1.4c-0.3-0.7-0.4-1.4-0.4-1.9C10.5,1.6,10.8,1.8,11.1,1.9L11.1,1.9z"/>
			<path id="XMLID_102_" class="st3" d="M10.2,1.3c-0.1,0.6,0,1.2,0.4,1.8c0.3,0.6,0.8,1.1,1.3,1.4l0,0.1c-0.5-0.3-1-0.8-1.3-1.4
				C10.2,2.5,10.1,1.8,10.2,1.3L10.2,1.3z"/>
			<path id="XMLID_101_" class="st4" d="M10.4,1.4c0.1,0.1,0.1,0.1,0.2,0.2C10.7,2,10.8,2.5,11,2.9c0.2,0.4,0.5,0.8,0.8,1.1
				c0,0.1,0,0.2,0,0.3C11.4,4,11,3.6,10.7,3.1C10.4,2.5,10.3,1.9,10.4,1.4z"/>
			<path id="XMLID_100_" class="st2" d="M10.8,1.8c-0.2,0-0.1,0.6,0.2,1.2c0.3,0.6,0.7,1,0.9,0.8c0.1-0.1-0.3-0.4-0.6-1
				C10.9,2.2,10.9,1.7,10.8,1.8z"/>
			<path id="XMLID_99_" class="st5" d="M11,2.9c0.2,0.5,0.5,0.7,0.7,0.7c0,0,0,0,0,0c0,0,0,0,0-0.1c0-0.1,0,0-0.1-0.1
				c-0.1-0.2-0.3-0.4-0.4-0.6c-0.1-0.3-0.2-0.5-0.3-0.7c0-0.1-0.1-0.2-0.1-0.3c0-0.1-0.1-0.1-0.1-0.1c0,0,0,0,0,0
				C10.7,2,10.8,2.4,11,2.9z"/>
			<path id="XMLID_98_" class="st1" d="M13.2,3.1c0,0.3-0.1,0.5-0.2,0.7l0,0l0,0c0,0.2,0,0.4,0,0.6c-0.1-0.5-0.3-1-0.6-1.3
				C12.3,2.9,13,2.7,13.2,3.1z"/>
			<path id="XMLID_97_" class="st2" d="M13.9,3.6c0.3-0.4,0.2-1.4-0.3-2.3C12.9,0.2,11.8,0,11.8,0c0,0,1,0.4,1.6,1.6
				C13.9,2.7,13.6,4,13.9,3.6z"/>
			<path id="XMLID_96_" class="st5" d="M14,3.2c0.1-0.4,0-1-0.3-1.6c0-0.1-0.1-0.2-0.2-0.3c-0.4-0.6-0.4-0.4-0.1,0.2
				c0.3,0.7,0.4,1.4,0.4,1.8C13.8,3.4,13.9,3.3,14,3.2z"/>
			<path id="XMLID_95_" class="st4" d="M13,1.7c-0.4-0.7-0.7-1.1-1.2-1.5c-0.1-0.1-0.2-0.4,0.1-0.2c0.5,0.4,1.1,0.9,1.4,1.5
				c0.3,0.7,0.4,1.4,0.4,2.1c0,0.3-0.2,0.2-0.2,0C13.4,3,13.4,2.5,13,1.7z"/>
			<path id="XMLID_94_" class="st3" d="M13,1.9c0.4,0.8,0.4,1.6,0.2,2.5C13.1,4.2,13,3.9,13,3.7l0,0c0.1-0.2,0.2-0.5,0.2-1
				C13.2,2.5,13.1,2.2,13,1.9L13,1.9L13,1.9L13,1.9z"/>
			<path id="XMLID_93_" class="st1" d="M13,1.9L13,1.9c-0.2-0.3-0.3-0.5-0.5-0.7v0l0,0l0,0l0,0l0,0l0,0l0,0l0,0l0,0l0,0l0,0l0,0l0,0
				c-0.2-0.1-0.4-0.2-0.6-0.2v0l0,0l0,0c-0.2-0.1-0.4-0.3-0.5-0.5C11.9,0.6,12.6,1.2,13,1.9z"/>
			<path id="XMLID_92_" class="st4" d="M11.8,0.8c-0.1,0-0.2,0-0.3,0v0l0,0l0,0c-0.1-0.1-0.2-0.1-0.3-0.2
				C11.5,0.6,11.7,0.7,11.8,0.8z"/>
			<path id="XMLID_91_" class="st4" d="M13.1,3.7L13.1,3.7L13.1,3.7c0-0.3,0.1-0.5,0.2-0.5l0,0C13.2,3.4,13.1,3.6,13.1,3.7z"/>
			<path id="XMLID_90_" class="st1" d="M13.2,4.6C13.1,4.3,13,4,13,3.7l0,0c0-0.1,0.1-0.1,0.1-0.2C13.1,3.8,13.1,4.2,13.2,4.6z"/>
			<path id="XMLID_89_" class="st2" d="M11.7,0.3c0,0.1,0.2,0.3,0.3,0.4c0.3,0.3,0.5,0.5,0.6,0.4c0.1-0.1-0.2-0.4-0.5-0.6
				C11.9,0.2,11.7,0.1,11.7,0.3z"/>
			<path id="XMLID_88_" class="st2" d="M12.9,3c0,0.1-0.1,0.1-0.2,0.1c-0.1-0.1-0.2-0.2,0-0.2C12.8,2.9,12.9,2.9,12.9,3z"/>
			<path id="XMLID_87_" class="st0" d="M10.9,0.1c0.2,0.3,0.5,0.6,0.7,0.7l0,0l0,0c0.2,0,0.6,0.1,0.9,0.4c-0.1,0.2-0.2,0.4-0.4,0.5
				l-0.4,0.2c-0.2,0.1-0.4,0.1-0.6,0c-0.3-0.1-0.6-0.3-0.9-0.7C9.9,0.9,9.6,0.4,9.4-0.1l1.1-0.5C10.6-0.3,10.7-0.1,10.9,0.1z"/>
			<path id="XMLID_86_" class="st1" d="M11,1.8c0.2,0.1,0.4,0.1,0.6,0L12,1.5c0.2-0.1,0.3-0.2,0.4-0.4l0.1,0.1
				c-0.1,0.2-0.2,0.4-0.4,0.5l-0.4,0.2c-0.2,0.1-0.4,0.1-0.6,0c-0.3-0.1-0.6-0.3-0.9-0.7C9.9,0.9,9.6,0.4,9.4-0.1
				c0.2,0.5,0.5,0.9,0.8,1.2C10.4,1.4,10.7,1.7,11,1.8z"/>
			<path id="XMLID_85_" class="st2" d="M10.2,1.2c0.3,0.3,0.7,0.5,1,0.6c0.3,0.1,0.5,0,0.7-0.1l-0.3,0.1c-0.2,0.1-0.4,0.1-0.6,0
				C10.8,1.8,10.5,1.6,10.2,1.2C10,1,9.8,0.7,9.6,0.4C9.8,0.7,10,1,10.2,1.2z"/>
			<path id="XMLID_84_" class="st1" d="M11.5,0.8L11.5,0.8L11.5,0.8c0.2,0,0.3,0,0.5,0.2c0,0.4-0.4,0.7-0.4,0.5c0-0.2,0-0.4-0.4-0.9
				C11.4,0.7,11.5,0.7,11.5,0.8z"/>
			<g id="XMLID_677_">
				<path id="XMLID_83_" class="st0" d="M14.2,5c-0.1-0.2-0.3-0.5-0.5-0.7c0-0.1,0.1-0.1,0.1-0.2c0.2,0.2,0.3,0.5,0.5,0.8L14.2,5z"
					/>
				<path id="XMLID_82_" class="st0" d="M14.1,3.5L14.1,3.5l0-0.1c0.3,0.3,0.6,0.7,0.9,1.2l-0.1,0.1C14.7,4.1,14.4,3.8,14.1,3.5z"/>
				<polygon id="XMLID_81_" class="st2" points="14.1,3.5 14.1,3.5 14.1,3.5 				"/>
				<path id="XMLID_80_" class="st2" d="M14.9,4.6L14.9,4.6c-0.3-0.5-0.6-0.8-0.8-1.1l0-0.1l0,0C14.4,3.8,14.7,4.1,14.9,4.6z"/>
				<path id="XMLID_79_" class="st5" d="M14.1,3.7L14.1,3.7c0,0.1,0,0.1,0,0.2l0,0c0-0.1,0.1-0.2,0.1-0.3L14.1,3.7z"/>
				<path id="XMLID_78_" class="st5" d="M14.1,3.7L14.1,3.7L14.1,3.7z"/>
				<polygon id="XMLID_77_" class="st5" points="14.1,3.7 14.1,3.5 14.1,3.5 				"/>
				<path id="XMLID_76_" class="st5" d="M14,3.8L14,3.8c0,0,0-0.1,0-0.1L14,3.8z"/>
				<path id="XMLID_75_" class="st5" d="M14.9,4.6l-0.2,0.1c-0.2-0.4-0.4-0.7-0.6-0.9v0l0-0.1v0l0-0.1C14.3,3.8,14.6,4.1,14.9,4.6z"
					/>
				<path id="XMLID_74_" class="st3" d="M14,3.8L14,3.8c0,0.1-0.1,0.2-0.1,0.3C13.9,4,14,3.9,14,3.8L14,3.8z"/>
				<polygon id="XMLID_73_" class="st3" points="14,3.9 14,3.8 14,3.8 				"/>
				<polygon id="XMLID_72_" class="st3" points="14,3.8 14,3.8 14,3.8 				"/>
				<polygon id="XMLID_71_" class="st3" points="14,3.8 14,3.8 14,3.8 14,3.8 				"/>
				<path id="XMLID_70_" class="st3" d="M14.7,4.7L14.7,4.7L14.7,4.7l-0.3,0.2c-0.2-0.3-0.3-0.5-0.5-0.8C13.9,4.1,14,4,14,3.9l0,0
					l0,0v0C14.3,4.1,14.5,4.4,14.7,4.7z"/>
			</g>
			<g id="XMLID_673_">
				<path id="XMLID_69_" class="st4" d="M11.2,1.5L11.2,1.5c0.2,0.2,0,0.2-0.3,0c-0.6-0.4-1.1-0.9-1.4-1.7l0.4-0.2
					C10.4,0.7,11,1.4,11.2,1.5z"/>
				<path id="XMLID_68_" class="st2" d="M11.2,1.1c0-0.1-0.1-0.2-0.2-0.4c-0.2-0.3-0.4-0.7-0.6-1.2l0,0c0.6,1.2,1.1,1.8,1,2
					c0,0,0,0-0.1,0C11,1.4,10.4,0.7,9.9-0.3l0,0l0.1,0c0.5,1.1,1,1.7,1.2,1.7c0,0,0,0,0,0C11.2,1.3,11.2,1.2,11.2,1.1z"/>
				<path id="XMLID_67_" class="st5" d="M10.9,0.7C11,0.9,11.1,1,11.2,1.1c0.1,0.1,0.1,0.2,0,0.2c0,0,0,0,0,0
					c-0.2,0-0.7-0.6-1.2-1.7l0.3-0.1C10.5,0,10.8,0.4,10.9,0.7z"/>
			</g>
			<g id="XMLID_661_">
				<path id="XMLID_66_" class="st0" d="M11.9-0.1L11.9-0.1L11.9-0.1z"/>
				<polygon id="XMLID_65_" class="st2" points="12.3,0 12.4,0.1 12.3,0 12.3,0 				"/>
				<path id="XMLID_64_" class="st5" d="M12.2,0L12.2,0L12.3,0C12.2,0,12.1,0,12-0.1l0,0C12.1-0.1,12.2,0,12.2,0z"/>
				<path id="XMLID_63_" class="st5" d="M12.2,0L12.2,0L12.2,0z"/>
				<polygon id="XMLID_62_" class="st5" points="12.3,0 12.3,0 12.3,0 12.2,0 				"/>
				<path id="XMLID_61_" class="st5" d="M12.2,0c-0.1,0-0.1,0-0.2-0.1l0,0L12.2,0z"/>
				<path id="XMLID_60_" class="st3" d="M11.7-0.1c0.1,0,0.1,0,0.2,0C11.8-0.1,11.8-0.1,11.7-0.1z"/>
				<path id="XMLID_59_" class="st3" d="M12-0.1L12-0.1c0,0-0.1,0-0.2,0L12-0.1L12-0.1z"/>
				<polygon id="XMLID_58_" class="st3" points="12,-0.1 12,-0.1 12,-0.1 				"/>
				<polygon id="XMLID_57_" class="st3" points="12,-0.1 12,-0.1 12,-0.1 				"/>
				<polygon id="XMLID_56_" class="st3" points="12.1,-0.1 12,-0.1 12,-0.1 12,-0.1 				"/>
			</g>
			<g id="XMLID_657_">
				<path id="XMLID_55_" class="st4" d="M12.3,3.5l0,0.2c-0.1,0.2,0.1,1,0.7,2c0,0,0,0,0,0l-0.4,0.2c-0.4-0.7-0.6-1.4-0.5-2.1
					C12.1,3.5,12.3,3.3,12.3,3.5z"/>
				<path id="XMLID_54_" class="st2" d="M12.4,3.6c0.2,0,0.3,0.6,1,1.8c0,0,0,0,0,0l0,0c-0.3-0.5-0.4-0.9-0.6-1.1
					C12.7,4.2,12.6,4,12.6,4c-0.1-0.1-0.1-0.2-0.2-0.2c0,0,0,0,0,0c-0.1,0.1,0.1,0.9,0.6,1.9l-0.1,0l0,0c0,0,0,0,0,0
					C12.4,4.7,12.2,3.9,12.4,3.6C12.3,3.6,12.3,3.6,12.4,3.6z"/>
				<path id="XMLID_53_" class="st5" d="M12.4,3.8C12.4,3.8,12.4,3.8,12.4,3.8c0.1,0,0.1,0,0.2,0.2c0.1,0.1,0.1,0.2,0.2,0.4
					c0.1,0.3,0.3,0.7,0.6,1.1L13,5.6C12.5,4.6,12.3,3.9,12.4,3.8z"/>
			</g>
		</g>
	</g>
	<g id="XMLID_635_">
		<g id="XMLID_648_">
			<path id="XMLID_652_" class="st0" d="M30.6,27c-1.8,0-3.2,1.5-3.2,3.2c0,1.8,1.5,3.2,3.2,3.2c1.8,0,3.2-1.5,3.2-3.2
				C33.8,28.5,32.3,27,30.6,27z M30.6,32c-1,0-1.7-0.8-1.7-1.7c0-1,0.8-1.7,1.7-1.7c1,0,1.7,0.8,1.7,1.7C32.3,31.2,31.5,32,30.6,32z
				"/>
			<path id="XMLID_50_" class="st3" d="M27.8,30.3c0-1.8,1.2-3.2,2.7-3.2c-1.8,0-3.2,1.5-3.2,3.2c0,1.8,1.5,3.2,3.2,3.2
				C29,33.5,27.8,32.1,27.8,30.3z"/>
			<path id="XMLID_49_" class="st6" d="M30.6,28.4c1.1,0,1.9,0.9,1.9,1.9c0,0.4-0.1,0.7-0.3,1c0.3-0.3,0.5-0.8,0.5-1.3
				c0-1-0.9-1.9-1.9-1.9c-0.7,0-1.3,0.4-1.6,0.9C29.5,28.6,30,28.4,30.6,28.4z"/>
			<path id="XMLID_48_" class="st5" d="M30.3,27.5c1.8,0,3.2,1.4,3.2,3.2c0,0.2,0,0.4-0.1,0.6c0.1-0.3,0.2-0.7,0.2-1
				c0-1.7-1.4-3.1-3.1-3.1c-0.9,0-1.8,0.4-2.4,1.1C28.8,27.8,29.5,27.5,30.3,27.5z"/>
		</g>
		<path id="XMLID_47_" class="st5" d="M30.5,32.2c-1.1,0-1.9-0.9-1.9-1.9c0-0.4,0.1-0.7,0.3-1c-0.3,0.3-0.5,0.8-0.5,1.3
			c0,1.1,0.9,1.9,1.9,1.9c0.7,0,1.3-0.4,1.6-0.9C31.6,31.9,31.1,32.2,30.5,32.2z"/>
		<g id="XMLID_636_">
			<g id="XMLID_637_">
				<path id="XMLID_46_" class="st3" d="M32.1,29.3c-0.1,0.6-0.3,1-0.6,1c-0.8,0-1.2,0-2,0c-0.2,0-0.5-0.5-0.6-1
					c-0.5-3.9-0.9-7.8-1.4-11.7c-0.1-0.6,0.3-1,0.8-1c1.7,0,2.5,0,4.2,0c0.5,0,0.9,0.5,0.8,1C33,21.4,32.6,25.4,32.1,29.3z"/>
				<path id="XMLID_45_" class="st0" d="M31.9,29.3c-0.1,0.6-0.3,1-0.5,1c-0.7,0-1,0-1.7,0c-0.2,0-0.4-0.5-0.5-1
					c-0.4-3.9-0.8-7.8-1.2-11.7c-0.1-0.6,0.3-1,0.7-1c1.5,0,2.2,0,3.6,0c0.4,0,0.8,0.5,0.7,1C32.7,21.4,32.3,25.4,31.9,29.3z"/>
				<path id="XMLID_44_" class="st6" d="M31.5,29.3c-0.7,0-1.1,0-1.9,0c-0.2,0-0.5-0.5-0.5-1c0,0.4,0.1,0.6,0.1,1
					c0.1,0.6,0.3,1,0.5,1c0.7,0,1,0,1.7,0c0.2,0,0.4-0.5,0.5-1c0-0.4,0.1-0.6,0.1-1C32,28.8,31.7,29.3,31.5,29.3z"/>
				<g id="XMLID_642_">
					<path id="XMLID_43_" class="st5" d="M33.1,17.7c0,0.2-0.1,0.7-0.9,0.8c-1.8,0.2-4.1-0.5-3.9,1.2c-0.1-0.6-0.1-0.8-0.1-1.4
						C28,16.6,29.2,17,31.9,17C33.2,17,33.1,17.5,33.1,17.7z"/>
				</g>
				<g id="XMLID_640_">
					<path id="XMLID_42_" class="st5" d="M32.7,21.6c0,0.2-0.1,0.7-0.8,0.8c-1.5,0.2-3.4-0.5-3.3,1.2c-0.1-1.4-0.2-2-0.3-3.4
						c-0.2-1.7,2.1-1,3.9-1.2c0.8-0.1,0.8-0.3,0.8-0.3S32.7,21.3,32.7,21.6z"/>
				</g>
				<path id="XMLID_41_" class="st6" d="M32.6,22.9c0,0.2-0.1,0.7-0.7,0.8c-1.5,0.2-3.3-0.5-3.1,1.2c0-0.6-0.1-0.9-0.1-1.5
					c-0.2-1.7,1.8-1,3.4-1.2c0.7-0.1,0.7-0.3,0.7-0.3S32.6,22.7,32.6,22.9z"/>
				<path id="XMLID_40_" class="st1" d="M32.4,24.2c0,0.2-0.1,0.7-0.7,0.8c-1.4,0.2-3.1-0.5-2.9,1.2c-0.1-0.6-0.1-0.9-0.1-1.5
					c-0.2-1.7,1.6-1,3.1-1.2c0.6-0.1,0.7-0.3,0.7-0.3S32.4,24,32.4,24.2z"/>
			</g>
		</g>
	</g>
</g>
<g id="XMLID_593_">
	<path id="XMLID_39_" class="st7" d="M30.6,57.7c-0.6,0-1-0.2-1.3-0.4l0,0c-1.6-0.9-3-2.1-4.2-3.2c-1.5-1.4-2.9-2.8-4.2-4.3
		c-2.9-3.5-4.5-6.8-5.1-10.1c-0.4-2.1-0.1-3.9,0.8-5.5c1-1.7,2.6-3,4.5-3.7c0.8-0.3,1.7-0.4,2.5-0.4c2.3,0,4.7,1,6.6,2.8l0.3,0.3
		l0.3-0.3c0.9-0.8,1.8-1.5,2.8-2c1.2-0.6,2.6-0.9,3.8-0.9c0.5,0,1,0,1.4,0.1c0,0,0.1,0,0.2,0l0,0c2.1,0.5,3.6,1.4,4.8,2.9
		c1.1,1.4,1.7,3,1.7,4.9c0,0.8-0.1,1.6-0.4,2.6c-0.1,0.6-0.3,1.2-0.5,1.7c0,0.1-0.1,0.2-0.1,0.3c-0.1,0.3-0.2,0.7-0.4,0.9l0,0l0,0
		c-1.4,3.2-3.6,6.2-6.8,9.4c-1.6,1.5-2.9,2.7-4.3,3.6l-0.1,0c-0.5,0.3-1,0.7-1.7,0.9C31,57.7,30.8,57.7,30.6,57.7z"/>
	<path id="XMLID_38_" class="st3" d="M37.5,47.5c-5.8,0-11.2,1.2-15.5,3.2c1,1.1,2.1,2.2,3.2,3.3c1.2,1.1,2.6,2.3,4.1,3.1l0,0
		c0.3,0.2,0.7,0.4,1.2,0.4c0.2,0,0.3,0,0.5-0.1c0.6-0.2,1.2-0.6,1.7-0.9l0.1-0.1c1.4-0.9,2.7-2.1,4.3-3.6c1.8-1.7,3.2-3.4,4.4-5.2
		C40.2,47.6,38.9,47.5,37.5,47.5z"/>
	<path id="XMLID_37_" class="st2" d="M17.2,43.4c4.8-3.7,12.2-6.1,20.3-6.1c2.7,0,5.3,0.3,7.8,0.7c0,0,0-0.1,0-0.1
		c0-1.8-0.6-3.4-1.6-4.7C42.5,31.9,41,31,39,30.5l-0.2,0c-0.4-0.1-0.9-0.1-1.4-0.1c-1.2,0-2.5,0.3-3.7,0.9c-1,0.5-1.9,1.1-2.7,1.9
		l-0.5,0.5l-0.5-0.5c-1.9-1.8-4.2-2.8-6.4-2.8c-0.8,0-1.7,0.1-2.5,0.4c-1.9,0.6-3.5,1.9-4.4,3.6c-0.9,1.5-1.1,3.3-0.8,5.3
		C16.2,40.9,16.6,42.2,17.2,43.4z"/>
	<path id="XMLID_36_" class="st1" d="M30.6,56.8c-0.3,0-0.6-0.1-0.8-0.3l0,0c-1.5-0.8-2.9-2-4-3c-1.5-1.3-2.8-2.7-4-4.2
		c-2.8-3.4-4.4-6.5-4.9-9.6c-0.3-1.9-0.1-3.5,0.7-4.9c0.8-1.5,2.2-2.7,4-3.2c0.7-0.2,1.5-0.4,2.2-0.4c2.5,0,5,1.3,6.9,3.6l0.1,0.1
		l0.1-0.1c1-1.2,2.2-2.2,3.5-2.8c1.1-0.5,2.3-0.8,3.4-0.8c0.5,0,0.9,0,1.3,0.1c1.9,0.4,3.3,1.3,4.3,2.6c0.9,1.2,1.4,2.7,1.4,4.3v0.3
		l0,0.1c0,0.7-0.2,1.4-0.4,2.3c-0.1,0.5-0.3,0.9-0.4,1.4c-0.1,0.2-0.2,0.5-0.3,0.7c0,0,0,0.1,0,0.1c0,0.2-0.1,0.3-0.2,0.4
		c-1.4,3.1-3.5,6.1-6.7,9.2c-1.5,1.5-2.8,2.6-4.2,3.5l-0.1,0c-0.4,0.3-0.9,0.6-1.5,0.8C30.7,56.7,30.7,56.8,30.6,56.8z"/>
	<g id="XMLID_594_">
		<polyline id="XMLID_35_" class="st8" points="35.6,47.7 30.5,51.5 33.1,52.8 35.6,47.7 		"/>
		<polygon id="XMLID_34_" class="st9" points="37.5,38.3 33.2,36.3 37.7,32.6 		"/>
		<path id="XMLID_33_" class="st10" d="M33.7,32.3l3.9,0.3l0.9-1.2C37,31.2,35.4,31.4,33.7,32.3z"/>
		<path id="XMLID_32_" class="st11" d="M38.6,31.4l-0.9,1.2l5.5,1.7C42.1,32.8,40.5,31.7,38.6,31.4z"/>
		<polygon id="XMLID_31_" class="st12" points="43.2,34.3 37.7,32.6 37.5,38.3 41.8,40.3 		"/>
		<polygon id="XMLID_30_" class="st8" points="41.8,40.3 37.5,38.3 37.5,42.9 		"/>
		<path id="XMLID_29_" class="st13" d="M41.8,40.3l2.1,0.1c0.1-0.6,0.2-1.1,0.3-1.7c0.2-1.7-0.3-3.2-1.1-4.4L41.8,40.3z"/>
		<path id="XMLID_28_" class="st14" d="M44,40.4l-2.1-0.1l0.9,3.4C43.3,42.6,43.7,41.5,44,40.4L44,40.4z"/>
		<polyline id="XMLID_27_" class="st9" points="37.5,42.9 39.4,46.1 35.6,47.7 37.5,42.9 		"/>
		<polygon id="XMLID_26_" class="st15" points="39.4,46.1 37.5,42.9 41.8,40.3 42.8,43.7 		"/>
		<path id="XMLID_25_" class="st16" d="M37.9,50.6l-4.9,2.2l0.9,1.6C35.2,53.4,36.6,52.1,37.9,50.6z"/>
		<polygon id="XMLID_24_" class="st17" points="37.9,50.6 33.1,52.8 35.6,47.7 39.4,46.1 		"/>
		<path id="XMLID_23_" class="st18" d="M37.9,50.6c1.8-2,3.6-4.4,4.9-7l0,0l-3.4,2.4L37.9,50.6z"/>
		<path id="XMLID_22_" class="st9" d="M33.9,54.4l-0.9-1.6l-2.5,3.7C31,56.5,32.3,55.7,33.9,54.4L33.9,54.4z"/>
		<polygon id="XMLID_21_" class="st19" points="30.5,35.1 30.5,38.7 33.2,36.3 		"/>
		<path id="XMLID_20_" class="st20" d="M37.7,32.6l-3.9-0.3l0,0c-1.1,0.6-2.2,1.5-3.2,2.8l2.7,1.1L37.7,32.6z"/>
		<polygon id="XMLID_19_" class="st21" points="33.2,36.3 30.5,38.7 27.9,36.3 23.6,38.3 23.6,42.9 25.5,47.7 30.5,51.5 35.6,47.7 
			37.5,42.9 37.5,38.3 		"/>
		<polyline id="XMLID_18_" class="st8" points="25.5,47.7 30.5,51.5 28,52.8 25.5,47.7 		"/>
		<polygon id="XMLID_17_" class="st9" points="23.6,38.3 27.9,36.3 23.4,32.6 		"/>
		<path id="XMLID_16_" class="st22" d="M27.3,32.3l-3.9,0.3l-0.9-1.2C24,31.2,25.7,31.4,27.3,32.3z"/>
		<path id="XMLID_15_" class="st23" d="M22.5,31.4l0.9,1.2l-5.5,1.7C18.9,32.8,20.6,31.7,22.5,31.4z"/>
		<polygon id="XMLID_14_" class="st24" points="17.9,34.3 23.4,32.6 23.6,38.3 19.3,40.3 		"/>
		<polygon id="XMLID_13_" class="st25" points="19.3,40.3 23.6,38.3 23.6,42.9 		"/>
		<path id="XMLID_12_" class="st9" d="M19.3,40.3l-2.1,0.1c-0.1-0.6-0.2-1.1-0.3-1.7c-0.2-1.7,0.3-3.2,1.1-4.4L19.3,40.3z"/>
		<path id="XMLID_11_" class="st26" d="M17.1,40.4l2.1-0.1l-0.9,3.4C17.8,42.6,17.4,41.5,17.1,40.4L17.1,40.4z"/>
		<polyline id="XMLID_10_" class="st27" points="23.6,42.9 21.7,46.1 25.5,47.7 23.6,42.9 		"/>
		<polygon id="XMLID_9_" class="st9" points="21.7,46.1 23.6,42.9 19.3,40.3 18.3,43.7 		"/>
		<path id="XMLID_8_" class="st28" d="M23.2,50.6l4.9,2.2l-0.9,1.6C25.9,53.4,24.5,52.1,23.2,50.6z"/>
		<polygon id="XMLID_7_" class="st29" points="23.2,50.6 28,52.8 25.5,47.7 21.7,46.1 		"/>
		<path id="XMLID_6_" class="st30" d="M23.2,50.6c-1.8-2-3.6-4.4-4.9-7l0,0l3.4,2.4L23.2,50.6z"/>
		<path id="XMLID_5_" class="st31" d="M27.2,54.4l0.9-1.6l2.5,3.7C30.1,56.5,28.8,55.7,27.2,54.4L27.2,54.4z"/>
		<polygon id="XMLID_4_" class="st32" points="30.5,51.5 28,52.8 30.5,56.5 33.1,52.8 		"/>
		<polygon id="XMLID_3_" class="st33" points="30.5,35.1 30.5,38.7 27.9,36.3 		"/>
		<path id="XMLID_2_" class="st34" d="M23.4,32.6l3.9-0.3l0,0c1.1,0.6,2.2,1.5,3.2,2.8l-2.7,1.1L23.4,32.6z"/>
		<polygon id="XMLID_1_" class="st35" points="37.5,38.3 33.2,36.3 30.5,38.7 27.9,36.3 23.6,38.3 23.6,42.9 24.7,45.7 37.5,40.6 		
			"/>
	</g>
</g>
<g id="XMLID_592_">
</g>
<g id="XMLID_595_">
</g>
<g id="XMLID_596_">
</g>
<g id="XMLID_597_">
</g>
<g id="XMLID_598_">
</g>
<g id="XMLID_599_">
</g>
</svg>
