<?xml version="1.0" encoding="utf-8"?>
<!-- Generator: Adobe Illustrator 19.0.0, SVG Export Plug-In . SVG Version: 6.00 Build 0)  -->
<svg version="1.1" id="图层_1" xmlns="http://www.w3.org/2000/svg" xmlns:xlink="http://www.w3.org/1999/xlink" x="0px" y="0px"
	 viewBox="-119 121 60 60" style="enable-background:new -119 121 60 60;" xml:space="preserve">
<style type="text/css">
	.st0{fill-rule:evenodd;clip-rule:evenodd;fill:#00469B;}
	.st1{fill-rule:evenodd;clip-rule:evenodd;fill:#006FBB;}
	.st2{fill-rule:evenodd;clip-rule:evenodd;fill:#009FE8;}
	.st3{fill-rule:evenodd;clip-rule:evenodd;fill:#9ED8F5;}
</style>
<g id="XMLID_592_">
</g>
<g id="XMLID_595_">
</g>
<g id="XMLID_596_">
</g>
<g id="XMLID_597_">
</g>
<g id="XMLID_598_">
</g>
<path class="st0" d="M-113.7,142.3l8.9-3.2l0-6.6l0-0.3l0.3,0l3.7,0l0.3,0l0,0.3l0,5l12.4-4.6l0.2,0l25.5,11.6l-0.3,0.6l-25.4-11.5
	l-12.7,4.7l-0.4,0.2l0-0.5l0-5.1l-3,0l0,6.5l0,0.2l-0.2,0.1l-9.1,3.3L-113.7,142.3L-113.7,142.3z M-59,169.9
	c-6.7-5.1-34.1-13.9-58.8-0.8c2.9-2,6.2-3.6,9.8-4.9h-0.5v-22.3l0.3,0l37.6-0.2l0.3,0v22.3h-0.5C-66.3,165.4-62.3,167.3-59,169.9
	L-59,169.9z M-107.8,164.1c11.3-3.8,25.5-3.9,36.9-0.2v-21.6l-36.9,0.2V164.1L-107.8,164.1z"/>
<path class="st1" d="M-97.1,151.7c3.5,7.2,13,7.3,16.1,0C-81,167.3-97.1,167.3-97.1,151.7L-97.1,151.7z M-89.1,147.8
	c2,0,3.6,1.6,3.6,3.6c0,2-1.6,3.6-3.6,3.6c-2,0-3.6-1.6-3.6-3.6C-92.7,149.4-91.1,147.8-89.1,147.8L-89.1,147.8z"/>
<path class="st2" d="M-105.5,158.3c2.5,5.1,9.2,5.2,11.4,0C-94.1,169.3-105.5,169.3-105.5,158.3L-105.5,158.3z M-99.8,155.6
	c1.4,0,2.5,1.1,2.5,2.5c0,1.4-1.1,2.5-2.5,2.5c-1.4,0-2.5-1.1-2.5-2.5C-102.3,156.7-101.2,155.6-99.8,155.6L-99.8,155.6z"/>
<path class="st3" d="M-83.2,158.5c2.2,4.5,8.2,4.6,10.1,0C-73,168.3-83.2,168.3-83.2,158.5L-83.2,158.5z M-78.1,156.1
	c1.2,0,2.2,1,2.2,2.2s-1,2.2-2.2,2.2c-1.2,0-2.2-1-2.2-2.2S-79.4,156.1-78.1,156.1L-78.1,156.1z"/>
</svg>
