<?xml version="1.0" encoding="utf-8"?>
<!-- Generator: Adobe Illustrator 19.0.0, SVG Export Plug-In . SVG Version: 6.00 Build 0)  -->
<svg version="1.1" id="图层_1" xmlns="http://www.w3.org/2000/svg" xmlns:xlink="http://www.w3.org/1999/xlink" x="0px" y="0px"
	 viewBox="0 0 60 60" style="enable-background:new 0 0 60 60;" xml:space="preserve">
<style type="text/css">
	.st0{fill:#D0E7EF;}
	.st1{fill:#CFC1A1;}
	.st2{fill:#B0A68B;}
	.st3{fill:#F2A6BD;}
	.st4{fill:#DB5F88;}
	.st5{fill:#3A4554;}
</style>
<g id="XMLID_19_">
</g>
<g id="XMLID_20_">
</g>
<g id="XMLID_28_">
</g>
<g id="XMLID_29_">
</g>
<g id="XMLID_58_">
</g>
<path class="st0" d="M52.6,46.6H7.4c0-0.6,0-1.2,0-1.7C8.2,30.9,18,19,30,19h0c4.2,0,8.2,1.5,11.6,4c1.8,1.4,3.5,3,4.9,4.9
	C50.3,32.9,52.6,39.5,52.6,46.6z"/>
<path class="st1" d="M30,19L30,19L30,19C30,19,30,19,30,19L30,19c-0.6,0.2-16,5.9-15.5,27.6H30h0h15.5C45.9,24.9,30.6,19.2,30,19z"
	/>
<path class="st2" d="M15.2,38.2c-0.5,2.5-0.8,5.3-0.7,8.4H30h0h15.5c0.1-3.1-0.2-5.9-0.7-8.4H15.2z"/>
<path class="st3" d="M30,19c0,0-16,5.5-15.5,27.6h12.7L30,19z"/>
<polygon class="st4" points="30,19 27.2,47 24.9,47 "/>
<path class="st3" d="M30,19c0,0,16,5.5,15.5,27.6h-3.3l-2.5-13.8L30,19z"/>
<path class="st4" d="M40.4,32.4c0,0-2.7-2.5-4.4-5.9c0,0,4.1,5.7,4.7,5.9H40.4z"/>
<path class="st4" d="M41.2,32.1c0,0-2.1-2.7-2.3-3.6c0,0,2.3,3.6,2.7,3.6H41.2z"/>
<path class="st4" d="M40.8,32.8c0,0,0.6,7.1,2.1,10.3c0,0-2.2-8.9-1.7-10.4L40.8,32.8z"/>
<path class="st4" d="M41.9,32.4c0,0,0.9,2.7,1,4.4c0,0-0.5-4.8-0.7-4.6L41.9,32.4z"/>
<path class="st5" d="M42.7,31.6l-3.2,1c-0.1,0-0.1,0.2,0,0.3c0,0.1,0.1,0.2,0.2,0.2l3.2-1L42.7,31.6z"/>
<polygon class="st4" points="39.7,33.1 41.2,47.4 42.9,47 "/>
</svg>
