<?xml version="1.0" encoding="utf-8"?>
<!-- Generator: Adobe Illustrator 19.0.0, SVG Export Plug-In . SVG Version: 6.00 Build 0)  -->
<svg version="1.1" id="图层_1" xmlns="http://www.w3.org/2000/svg" xmlns:xlink="http://www.w3.org/1999/xlink" x="0px" y="0px"
	 viewBox="-119 121 60 60" style="enable-background:new -119 121 60 60;" xml:space="preserve">
<style type="text/css">
	.st0{fill:url(#SVGID_1_);}
	.st1{fill:url(#SVGID_2_);}
	.st2{fill:url(#SVGID_3_);}
	.st3{fill:url(#SVGID_4_);}
	.st4{fill:url(#SVGID_5_);}
	.st5{fill:url(#SVGID_6_);}
	.st6{fill:url(#SVGID_7_);}
	.st7{fill:url(#SVGID_8_);}
	.st8{fill:url(#SVGID_9_);}
	.st9{fill:url(#SVGID_10_);}
	.st10{fill:url(#SVGID_11_);}
	.st11{fill:url(#SVGID_12_);}
	.st12{fill:url(#SVGID_13_);}
</style>
<g id="XMLID_592_">
</g>
<g id="XMLID_595_">
</g>
<g id="XMLID_596_">
</g>
<g id="XMLID_597_">
</g>
<g id="XMLID_598_">
</g>
<g>
	
		<linearGradient id="SVGID_1_" gradientUnits="userSpaceOnUse" x1="-61.9427" y1="-1152.1685" x2="-59.31" y2="-1155.5537" gradientTransform="matrix(-0.492 0.8705 0.8705 0.492 860.9448 766.7027)">
		<stop  offset="0" style="stop-color:#8BC53F"/>
		<stop  offset="1" style="stop-color:#BED63A"/>
	</linearGradient>
	<path class="st0" d="M-111.1,135c-0.7,4.9,8.5,6.4,10.5,11.3c1.5,3.6-0.4,7.8-4,9.2c-0.1,0-0.2,0.1-0.3,0.1c-2.6-1.8-4.8-4.5-6.2-8
		c-1.2-3.1-1.5-6.3-1.1-9.2c-0.7,3.1-0.5,6.6,0.9,10c1.2,3.1,3.1,5.6,5.4,7.4c-3.3,0.6-6.7-1.1-8-4.4
		C-117.6,142.3-111.1,135-111.1,135z"/>
	
		<linearGradient id="SVGID_2_" gradientUnits="userSpaceOnUse" x1="1369.6522" y1="-571.5735" x2="1356.4962" y2="-555.932" gradientTransform="matrix(-0.4493 -0.8934 0.8934 -0.4493 1009.9024 1114.4537)">
		<stop  offset="1.226990e-02" style="stop-color:#DAE696"/>
		<stop  offset="0.2699" style="stop-color:#BED63A"/>
		<stop  offset="1" style="stop-color:#8BC53F"/>
	</linearGradient>
	<path class="st1" d="M-108.8,154.7c-1.5-1.6-2.7-3.6-3.5-5.7c-0.8-2-1.2-4-1.3-6c-0.5,2.4-0.4,5.2,0.8,8.2
		C-112.1,152.9-110.6,154.2-108.8,154.7L-108.8,154.7z"/>
	
		<linearGradient id="SVGID_3_" gradientUnits="userSpaceOnUse" x1="572.4008" y1="-1076.4008" x2="586.7208" y2="-1076.4008" gradientTransform="matrix(-0.9305 0.3661 0.3661 0.9305 829.4001 935.5922)">
		<stop  offset="0" style="stop-color:#8BC53F"/>
		<stop  offset="1" style="stop-color:#BED63A"/>
	</linearGradient>
	<path class="st2" d="M-105,155.5c-0.1-0.1-0.2-0.1-0.3-0.2c-0.3-0.2-0.6-0.4-0.8-0.7c-0.1-0.1-0.2-0.2-0.4-0.3
		c-0.3-0.2-0.5-0.5-0.7-0.7c-0.1-0.1-0.2-0.2-0.3-0.3c-0.3-0.4-0.6-0.7-0.9-1.1c-0.1-0.1-0.1-0.2-0.2-0.3c-0.2-0.3-0.5-0.6-0.7-1
		c-0.1-0.1-0.2-0.3-0.3-0.4c-0.2-0.3-0.4-0.6-0.5-1c-0.1-0.1-0.2-0.3-0.2-0.4c-0.2-0.5-0.5-1-0.7-1.5c-0.2-0.5-0.4-1-0.5-1.5
		c0-0.2-0.1-0.3-0.1-0.5c-0.1-0.4-0.2-0.7-0.3-1.1c0-0.2-0.1-0.3-0.1-0.5c-0.1-0.4-0.1-0.8-0.2-1.2c0-0.1,0-0.2,0-0.3
		c0-0.5-0.1-1-0.1-1.5c0-0.1,0-0.3,0-0.4c0-0.4,0-0.7,0.1-1.1c0-0.1,0-0.3,0-0.4c0-0.4,0.1-0.8,0.2-1.1c0-0.1,0-0.2,0-0.3
		c0-0.1,0-0.1,0-0.2c0,0,0,0.1,0,0.1c0.2-0.9,0.5-1.9,0.9-2.7c0,0,0-0.1,0-0.1c-0.7,4.9,8.5,6.4,10.5,11.3c1.4,3.4-0.1,7.3-3.4,8.9
		c3,1.8,6.3,2.2,9.4,1.1c0.7-0.3,1.3-0.6,1.9-1c-2.8,2.2-6.5,2.7-9.8,1.7c-0.8-0.3-1.6-0.8-2.4-1.3c0,0,0,0,0,0
		C-104.9,155.6-105,155.6-105,155.5z"/>
	
		<linearGradient id="SVGID_4_" gradientUnits="userSpaceOnUse" x1="585.2231" y1="-1078.0613" x2="577.3248" y2="-1075.7108" gradientTransform="matrix(-0.9305 0.3661 0.3661 0.9305 829.4001 935.5922)">
		<stop  offset="1.226990e-02" style="stop-color:#DAE696"/>
		<stop  offset="0.2699" style="stop-color:#BED63A"/>
		<stop  offset="1" style="stop-color:#8BC53F"/>
	</linearGradient>
	<path class="st3" d="M-104.5,154.2c2.7-1.4,4-4.7,2.8-7.5c-0.8-1.9-3-3.3-5.1-4.6c-1.6-1-3.2-2.1-4.3-3.4c0,0.2-0.1,0.4-0.1,0.6
		c0,0.1,0,0.3,0,0.4c0,0.3,0,0.7-0.1,1l0,0.4c0,0.5,0,0.9,0.1,1.4l0,0.3c0,0.4,0.1,0.7,0.2,1.1c0,0.2,0.1,0.3,0.1,0.5
		c0.1,0.3,0.2,0.7,0.2,1l0.1,0.4c0.1,0.5,0.3,1,0.5,1.4c0.2,0.5,0.4,0.9,0.6,1.4l0.2,0.4c0.2,0.3,0.3,0.6,0.5,0.9
		c0.1,0.1,0.2,0.3,0.3,0.4c0.2,0.3,0.4,0.6,0.6,0.9l0.2,0.3c0.3,0.4,0.6,0.7,0.9,1l0.3,0.3c0.2,0.2,0.5,0.5,0.7,0.7
		c0.1,0.1,0.2,0.2,0.3,0.3c0.2,0.2,0.5,0.4,0.7,0.5L-104.5,154.2z"/>
	
		<linearGradient id="SVGID_5_" gradientUnits="userSpaceOnUse" x1="584.1928" y1="-1079.528" x2="573.3709" y2="-1062.4325" gradientTransform="matrix(-0.9305 0.3661 0.3661 0.9305 829.4001 935.5922)">
		<stop  offset="0.3463" style="stop-color:#92C23E"/>
		<stop  offset="1" style="stop-color:#3E8B41"/>
	</linearGradient>
	<path class="st4" d="M-104.1,154.3c2.2-1.9,3.1-5,2-7.9c-0.7-1.7-2.3-2.9-4-4.1c2,1.1,4,2.4,4.8,4.2
		C-100.1,149.3-101.4,152.5-104.1,154.3z"/>
</g>
<g>
	
		<linearGradient id="SVGID_6_" gradientUnits="userSpaceOnUse" x1="460.757" y1="-592.1086" x2="456.3975" y2="-593.7036" gradientTransform="matrix(0.9254 -0.3791 0.3791 0.9254 -311.1471 884.3129)">
		<stop  offset="0" style="stop-color:#8BC53F"/>
		<stop  offset="1" style="stop-color:#BED63A"/>
	</linearGradient>
	<path class="st5" d="M-103.4,160c-1.7-0.4-3.7-0.2-5.7,0.6c-1.8,0.7-3.2,1.8-4.2,3.2c1-1.5,2.5-2.8,4.5-3.6
		c1.7-0.7,3.5-0.9,5.1-0.7c-1-1.6-3.1-2.3-4.9-1.6c-5.2,2.1-5.6,7.6-5.6,7.6c1.7-2.2,5.9,1,8.7-0.1c2.1-0.8,3-3.2,2.2-5.3
		C-103.3,160.1-103.4,160-103.4,160z"/>
	
		<linearGradient id="SVGID_7_" gradientUnits="userSpaceOnUse" x1="644.7457" y1="-644.8732" x2="641.7137" y2="-645.4709" gradientTransform="matrix(0.3347 -0.9423 0.9423 0.3347 284.4109 981.4432)">
		<stop  offset="0" style="stop-color:#8BC53F"/>
		<stop  offset="1" style="stop-color:#BED63A"/>
	</linearGradient>
	<path class="st6" d="M-105.3,158.7c-1.2,0-2.5,0.3-3.7,0.8c-1.1,0.5-2.1,1.1-3,1.8c0.8-1.1,1.9-2.1,3.6-2.8l0.1,0
		C-107.3,158.1-106.2,158.2-105.3,158.7L-105.3,158.7z"/>
	
		<linearGradient id="SVGID_8_" gradientUnits="userSpaceOnUse" x1="460.6879" y1="-590.2969" x2="461.2133" y2="-592.8679" gradientTransform="matrix(0.9254 -0.3791 0.3791 0.9254 -311.1471 884.3129)">
		<stop  offset="0" style="stop-color:#8BC53F"/>
		<stop  offset="1" style="stop-color:#BED63A"/>
	</linearGradient>
	<path class="st7" d="M-103.4,160L-103.4,160L-103.4,160c-0.2,0-0.4-0.1-0.6-0.1c0,0-0.1,0-0.1,0c-0.2,0-0.4,0-0.6-0.1
		c-0.1,0-0.1,0-0.2,0c-0.2,0-0.3,0-0.5,0c-0.1,0-0.2,0-0.2,0c-0.2,0-0.3,0-0.5,0c-0.1,0-0.2,0-0.3,0c-0.1,0-0.3,0-0.4,0.1
		c-0.1,0-0.2,0-0.4,0.1c-0.1,0-0.3,0-0.4,0.1c-0.2,0-0.3,0.1-0.5,0.1c-0.1,0-0.2,0.1-0.3,0.1c-0.3,0.1-0.5,0.2-0.8,0.3
		c-0.3,0.1-0.6,0.2-0.8,0.4c-0.1,0-0.2,0.1-0.2,0.1c-0.2,0.1-0.4,0.2-0.5,0.3c-0.1,0.1-0.2,0.1-0.2,0.2c-0.2,0.1-0.4,0.3-0.6,0.4
		c0,0-0.1,0.1-0.1,0.1c-0.2,0.2-0.4,0.4-0.6,0.5c-0.1,0-0.1,0.1-0.1,0.2c-0.1,0.1-0.3,0.3-0.4,0.5c-0.1,0.1-0.1,0.1-0.2,0.2
		c-0.1,0.2-0.3,0.3-0.4,0.5c0,0-0.1,0.1-0.1,0.1c0,0,0,0.1-0.1,0.1c0,0,0,0,0,0c-0.3,0.5-0.6,0.9-0.8,1.4c0,0,0,0,0,0
		c1.7-2.2,5.9,1,8.7-0.1c1.9-0.8,2.9-2.9,2.3-4.9C-103.2,160.3-103.4,160-103.4,160z"/>
	
		<linearGradient id="SVGID_9_" gradientUnits="userSpaceOnUse" x1="461.2551" y1="-590.2455" x2="461.6612" y2="-592.2327" gradientTransform="matrix(0.9254 -0.3791 0.3791 0.9254 -311.1471 884.3129)">
		<stop  offset="0" style="stop-color:#8BC53F"/>
		<stop  offset="1" style="stop-color:#BED63A"/>
	</linearGradient>
	<path class="st8" d="M-105.7,164.8c-1.1,0.4-2.5,0.1-3.9-0.2c-1.1-0.3-2.1-0.5-3.1-0.4c0.1-0.1,0.1-0.2,0.2-0.3
		c0-0.1,0.1-0.1,0.1-0.2c0.1-0.1,0.3-0.3,0.4-0.4l0.1-0.1c0.2-0.2,0.4-0.3,0.6-0.5l0.1-0.1c0.2-0.1,0.3-0.3,0.5-0.4
		c0.1,0,0.1-0.1,0.2-0.1c0.2-0.1,0.4-0.2,0.5-0.3l0.2-0.1c0.2-0.1,0.5-0.2,0.8-0.4c0.2-0.1,0.5-0.2,0.7-0.3c0.1,0,0.3-0.1,0.3-0.1
		c0.2,0,0.3-0.1,0.4-0.1c0.1,0,0.2,0,0.3-0.1l0.1,0c0.2,0,0.2-0.1,0.3-0.1c0.1,0,0.3,0,0.4-0.1c0.1,0,0.2,0,0.3,0c0.2,0,0.3,0,0.5,0
		l0.2,0c0.2,0,0.3,0,0.5,0l0.1,0c0.2,0,0.4,0,0.5,0c0,0,0.2,0,0.3,0l0,0.1C-103.3,162.4-104.1,164.1-105.7,164.8L-105.7,164.8z"/>
</g>
<g>
	
		<linearGradient id="SVGID_10_" gradientUnits="userSpaceOnUse" x1="-103.3042" y1="284.6827" x2="-70.5989" y2="284.6827" gradientTransform="matrix(0.9902 0.1398 -0.1398 0.9902 44.0242 -124.0703)">
		<stop  offset="0" style="stop-color:#9D523F"/>
		<stop  offset="0.1863" style="stop-color:#934836"/>
		<stop  offset="0.5006" style="stop-color:#792E1D"/>
		<stop  offset="0.5395" style="stop-color:#752A19"/>
		<stop  offset="1" style="stop-color:#632B23"/>
	</linearGradient>
	<path class="st9" d="M-78.4,140.5c5.7,3.2,9.3,9.7,8.4,16.6l3,0.4c1.2-8.7-4.6-16.8-13.2-18.4l0.2-1.1c0.3,0,0.7,0.1,1,0.1
		c0.4,0.1,0.7-0.2,0.6-0.6c-0.1-0.4-0.4-0.9-0.8-1c-0.8-0.3-1.7-0.5-2.6-0.4c-0.3,0-0.8,0.4-1,0.8c-0.2,0.3,0,0.7,0.4,0.8
		c0.3,0,0.7,0.1,1,0.1l-0.2,1.1c-8.7-0.8-16.5,5.3-17.8,14l26.2,3.7C-72.4,150.5-74.6,144.7-78.4,140.5z"/>
	
		<linearGradient id="SVGID_11_" gradientUnits="userSpaceOnUse" x1="-79.8279" y1="288.6001" x2="-96.1997" y2="285.2128" gradientTransform="matrix(0.9902 0.1398 -0.1398 0.9902 44.0242 -124.0703)">
		<stop  offset="0" style="stop-color:#9D523F"/>
		<stop  offset="0.1863" style="stop-color:#934836"/>
		<stop  offset="0.5006" style="stop-color:#792E1D"/>
		<stop  offset="0.5395" style="stop-color:#752A19"/>
		<stop  offset="1" style="stop-color:#632B23"/>
	</linearGradient>
	<path class="st10" d="M-94.6,153.6l21.3,3c0.8-6.1-1.3-11.9-5.2-16.1c5.7,3.2,9.3,9.7,8.4,16.6l3,0.4c1.2-8.7-4.6-16.8-13.2-18.4
		l0,0C-87.7,141.8-93.2,147-94.6,153.6z"/>
</g>
<g>
	<linearGradient id="SVGID_12_" gradientUnits="userSpaceOnUse" x1="-101.4838" y1="159.3111" x2="-65.2278" y2="159.3111">
		<stop  offset="0" style="stop-color:#9D523F"/>
		<stop  offset="0.1863" style="stop-color:#934836"/>
		<stop  offset="0.5006" style="stop-color:#792E1D"/>
		<stop  offset="0.5395" style="stop-color:#752A19"/>
		<stop  offset="1" style="stop-color:#632B23"/>
	</linearGradient>
	<path class="st11" d="M-65.9,158.6h-34.8c-0.4,0-0.7,0.3-0.7,0.7c0,0.4,0.3,0.7,0.7,0.7h34.8c0.4,0,0.7-0.3,0.7-0.7
		C-65.2,158.9-65.5,158.6-65.9,158.6z"/>
	<linearGradient id="SVGID_13_" gradientUnits="userSpaceOnUse" x1="-77.9503" y1="159.7985" x2="-94.3223" y2="156.4112">
		<stop  offset="0" style="stop-color:#9D523F"/>
		<stop  offset="0.1863" style="stop-color:#934836"/>
		<stop  offset="0.5006" style="stop-color:#792E1D"/>
		<stop  offset="0.5395" style="stop-color:#752A19"/>
		<stop  offset="1" style="stop-color:#632B23"/>
	</linearGradient>
	<path class="st12" d="M-65.9,158.6h-28.9c0,0.5,0,1,0.1,1.4h28.8c0.4,0,0.7-0.3,0.7-0.7C-65.2,158.9-65.5,158.6-65.9,158.6z"/>
</g>
</svg>
