<?xml version="1.0" encoding="utf-8"?>
<!-- Generator: Adobe Illustrator 19.0.0, SVG Export Plug-In . SVG Version: 6.00 Build 0)  -->
<svg version="1.1" id="图层_1" xmlns="http://www.w3.org/2000/svg" xmlns:xlink="http://www.w3.org/1999/xlink" x="0px" y="0px"
	 viewBox="-267 390.9 60 60" style="enable-background:new -267 390.9 60 60;" xml:space="preserve">
<style type="text/css">
	.st0{fill:#C4C4C4;}
	.st1{fill:#666565;}
	.st2{fill:#61A9C9;}
	.st3{fill:#D0E7EF;}
</style>
<g id="XMLID_592_">
</g>
<g id="XMLID_595_">
</g>
<g id="XMLID_596_">
</g>
<g id="XMLID_597_">
</g>
<g id="XMLID_598_">
</g>
<rect x="-239.5" y="428.7" class="st0" width="1.1" height="20.6"/>
<rect x="-238.4" y="428.7" class="st1" width="1.1" height="20.6"/>
<path class="st2" d="M-225.7,418.2c0,6.7-5.1,12.1-11.6,12.7c-0.3,0-0.6,0-0.9,0.1c-0.1,0-0.1,0-0.2-0.1c-0.2-0.1-0.4-0.1-0.5-0.2
	c-0.2-0.1-0.4-0.1-0.6-0.2c-0.4-0.1-0.7-0.3-1.1-0.4c-1.1-0.5-2.1-1.2-3.1-2c-1.8-1.7-3.1-4.3-3.2-7.1c0-1.4,0.2-2.8,0.8-4.1
	c0.3-0.7,0.6-1.3,1.1-1.9c0.4-0.6,0.9-1.1,1.5-1.6c0.6-0.5,1.2-0.8,1.9-1.1c0.7-0.3,1.4-0.5,2.1-0.5c1.5-0.2,3,0.1,4.3,0.9
	c0.7,0.4,1.3,0.8,1.7,1.3c0.5,0.5,0.9,1.2,1.1,1.8c0.5,1.3,0.5,2.8,0,4.1c-0.2,0.6-0.6,1.3-1,1.7c-0.4,0.5-1,0.9-1.6,1.1
	c-1.2,0.5-2.6,0.5-3.7-0.1c-0.6-0.3-1.1-0.6-1.4-1.1c-0.4-0.5-0.6-1-0.7-1.6c-0.1-0.6-0.1-1.2,0.1-1.7c0.1-0.3,0.2-0.5,0.3-0.8
	l0.1-0.2l0.1-0.2c0.1-0.1,0.2-0.2,0.3-0.3c0.4-0.4,0.9-0.6,1.4-0.7c0.1,0,0.3,0,0.4,0c0.1,0,0.1,0,0.2,0l0.2,0c0.1,0,0.3,0,0.4,0
	l0.4,0.1c1,0.3,1.6,1.2,1.6,2.1c0,0.5-0.1,0.9-0.4,1.3c-0.2,0.4-0.6,0.6-1,0.8c-0.8,0.3-1.7-0.1-2.1-0.7c-0.4-0.6-0.1-1.5,0.4-1.9
	c0.5-0.4,1.3-0.2,1.6,0.3c0.3,0.5,0.2,1.1-0.2,1.3c-0.4,0.3-0.8,0.2-1-0.1c-0.2-0.2-0.2-0.5-0.2-0.7c0-0.2,0.1-0.2,0.1-0.2
	c0,0-0.1,0.1-0.1,0.2c-0.1,0.2-0.1,0.5,0.2,0.7c0.2,0.3,0.7,0.4,1.2,0.2c0.5-0.3,0.7-1,0.4-1.7c-0.4-0.6-1.3-0.9-2.1-0.5
	c-0.8,0.4-1.2,1.6-0.7,2.5c0.4,1,1.7,1.6,2.8,1.2c0.6-0.1,1.1-0.5,1.5-1c0.4-0.5,0.6-1.1,0.6-1.8c0-0.7-0.2-1.4-0.6-1.9
	c-0.1-0.1-0.2-0.3-0.3-0.4l-0.4-0.4c-0.1-0.1-0.3-0.2-0.5-0.3c-0.2-0.1-0.3-0.2-0.5-0.2l-0.5-0.2c-0.2,0-0.4-0.1-0.5-0.1l-0.3,0
	c-0.1,0-0.2,0-0.3,0c-0.2,0-0.4,0-0.6,0c-0.7,0.1-1.5,0.5-2.1,1c-0.1,0.1-0.3,0.3-0.4,0.4l-0.2,0.2l-0.2,0.2
	c-0.2,0.3-0.4,0.7-0.5,1.1c-0.3,0.8-0.4,1.6-0.2,2.4c0.1,0.8,0.4,1.6,0.9,2.3c0.5,0.7,1.2,1.3,2,1.6c1.5,0.8,3.5,0.9,5.2,0.2
	c0.8-0.3,1.6-0.9,2.3-1.5c0.7-0.7,1.1-1.5,1.5-2.3c0.7-1.7,0.7-3.7,0.1-5.5c-0.3-0.9-0.8-1.7-1.5-2.5c-0.7-0.7-1.5-1.3-2.3-1.8
	c-1.7-0.9-3.7-1.3-5.5-1.1c-0.9,0.1-1.8,0.4-2.7,0.7c-0.8,0.4-1.6,0.9-2.3,1.4c-0.7,0.6-1.3,1.3-1.8,2c-0.5,0.7-0.9,1.5-1.2,2.3
	c-0.6,1.6-0.8,3.2-0.7,4.8c0.2,3.2,1.8,6,4,7.8c0.9,0.7,1.8,1.3,2.8,1.7c-5.5-1.4-9.6-6.4-9.6-12.3c0-7,5.7-12.7,12.7-12.7
	c2.6,0,5,0.8,7,2.1c1.5,1,2.7,2.2,3.7,3.7C-226.5,413.2-225.7,415.6-225.7,418.2z"/>
<path class="st3" d="M-230.5,420.6c-0.4,0.9-0.8,1.6-1.5,2.3c-0.6,0.7-1.4,1.2-2.3,1.5c-1.7,0.7-3.6,0.6-5.2-0.2
	c-0.8-0.4-1.5-0.9-2-1.6c-0.5-0.7-0.8-1.5-0.9-2.3c-0.1-0.8,0-1.7,0.2-2.4c0.1-0.4,0.3-0.7,0.5-1.1l0.2-0.2l0.2-0.2
	c0.1-0.1,0.3-0.3,0.4-0.4c0.6-0.5,1.3-0.8,2.1-1c0.2,0,0.4,0,0.6,0c0.1,0,0.2,0,0.3,0l0.3,0c0.2,0,0.4,0,0.5,0.1l0.5,0.2
	c0.2,0.1,0.3,0.2,0.5,0.2c0.2,0.1,0.3,0.2,0.5,0.3l0.4,0.4c0.1,0.1,0.2,0.3,0.3,0.4c0.4,0.6,0.6,1.3,0.6,1.9c0,0.7-0.3,1.3-0.6,1.8
	c-0.4,0.5-0.9,0.9-1.5,1c-1.2,0.3-2.4-0.3-2.8-1.2c-0.4-1-0.1-2.1,0.7-2.5c0.8-0.4,1.8-0.1,2.1,0.5c0.4,0.6,0.1,1.4-0.4,1.7
	c-0.5,0.3-1,0.1-1.2-0.2c-0.2-0.3-0.2-0.6-0.2-0.7c0-0.2,0.1-0.2,0.1-0.2c0,0-0.1,0.1-0.1,0.2c0,0.2,0,0.4,0.2,0.7
	c0.2,0.2,0.7,0.3,1,0.1c0.4-0.3,0.5-0.9,0.2-1.3c-0.3-0.4-1.1-0.6-1.6-0.3c-0.5,0.3-0.8,1.2-0.4,1.9c0.3,0.6,1.3,1,2.1,0.7
	c0.4-0.1,0.7-0.4,1-0.8c0.2-0.4,0.4-0.8,0.4-1.3c0-0.9-0.6-1.8-1.6-2.1l-0.4-0.1c-0.1,0-0.3,0-0.4,0l-0.2,0c-0.1,0-0.1,0-0.2,0
	c-0.1,0-0.3,0-0.4,0c-0.5,0.1-1,0.4-1.4,0.7c-0.1,0.1-0.2,0.2-0.3,0.3l-0.1,0.2l-0.1,0.2c-0.2,0.2-0.3,0.5-0.3,0.8
	c-0.2,0.5-0.2,1.1-0.1,1.7c0.1,0.6,0.4,1.1,0.7,1.6c0.4,0.5,0.9,0.8,1.4,1.1c1.1,0.5,2.5,0.6,3.7,0.1c0.6-0.3,1.1-0.6,1.6-1.1
	c0.4-0.5,0.8-1.1,1-1.7c0.5-1.3,0.5-2.8,0-4.1c-0.3-0.7-0.6-1.3-1.1-1.8c-0.5-0.5-1.1-1-1.7-1.3c-1.3-0.7-2.9-1-4.3-0.9
	c-0.7,0.1-1.5,0.3-2.1,0.5c-0.7,0.3-1.3,0.6-1.9,1.1c-0.6,0.4-1,1-1.5,1.6c-0.4,0.6-0.8,1.2-1.1,1.9c-0.6,1.3-0.8,2.7-0.8,4.1
	c0.1,2.8,1.3,5.3,3.2,7.1c0.9,0.9,2,1.5,3.1,2c0.4,0.1,0.7,0.3,1.1,0.4c0.2,0.1,0.4,0.1,0.6,0.2c0.2,0.1,0.4,0.1,0.5,0.2
	c0.1,0,0.1,0,0.2,0.1c-0.1,0-0.1,0-0.2,0c-0.4,0-0.7,0-1.1-0.1c-0.7-0.1-1.4-0.2-2-0.3c-1-0.5-1.9-1-2.8-1.7c-2.1-1.8-3.8-4.6-4-7.8
	c-0.1-1.6,0.1-3.3,0.7-4.8c0.3-0.8,0.7-1.6,1.2-2.3c0.5-0.7,1.1-1.4,1.8-2c0.7-0.6,1.5-1.1,2.3-1.4c0.8-0.4,1.7-0.6,2.7-0.7
	c1.9-0.2,3.8,0.1,5.5,1.1c0.8,0.5,1.6,1,2.3,1.8c0.7,0.7,1.2,1.6,1.5,2.5C-229.8,416.9-229.8,418.9-230.5,420.6z"/>
</svg>
