<?xml version="1.0" encoding="utf-8"?>
<!-- Generator: Adobe Illustrator 19.0.0, SVG Export Plug-In . SVG Version: 6.00 Build 0)  -->
<svg version="1.1" id="图层_1" xmlns="http://www.w3.org/2000/svg" xmlns:xlink="http://www.w3.org/1999/xlink" x="0px" y="0px"
	 viewBox="-267 390.9 60 60" style="enable-background:new -267 390.9 60 60;" xml:space="preserve">
<style type="text/css">
	.st0{fill:#86CCEF;}
	.st1{fill:#2C6277;}
	.st2{fill:#35ADC9;}
	.st3{fill:#FFFFFF;}
	.st4{fill:#2C76A8;}
	.st5{fill:#D0E7EF;}
	.st6{fill:#EF615E;}
</style>
<g id="XMLID_592_">
</g>
<g id="XMLID_595_">
</g>
<g id="XMLID_596_">
</g>
<g id="XMLID_597_">
</g>
<g id="XMLID_598_">
</g>
<path class="st0" d="M-226.3,437.8c0,2.1-1.7,3.8-3.8,3.8h-15.6c-2.1,0-3.8-1.7-3.8-3.8V402c0-2.1,1.7-3.8,3.8-3.8h15.7
	c2.1,0,3.8,1.7,3.8,3.8v35.8H-226.3z"/>
<g>
	<path class="st1" d="M-226.2,400.9c-0.4-1.4-1.4-2.4-2.8-2.8c-0.3-0.1-0.7-0.1-1-0.1h-15.7c-2.2,0-4,1.8-4,4v35.8
		c0,0.2,0,0.4,0,0.6c0.3,1.7,1.6,3,3.3,3.3c0.2,0,0.4,0,0.6,0h15.7c2.2,0,4-1.8,4-4V402C-226.1,401.6-226.2,401.3-226.2,400.9z
		 M-230.1,441.4h-15.6c-0.3,0-0.7-0.1-1-0.1c-1.2-0.3-2.2-1.3-2.5-2.5c-0.1-0.3-0.1-0.7-0.1-1V402c0-2,1.6-3.7,3.7-3.7h15.7
		c0.5,0,1.1,0.1,1.5,0.3c0.8,0.4,1.4,1,1.8,1.8c0.2,0.5,0.3,1,0.3,1.5v35.8C-226.4,439.8-228.1,441.4-230.1,441.4z"/>
</g>
<g>
	<path class="st1" d="M-226.4,400.8c-0.4-1.2-1.4-2.2-2.6-2.6c-0.4-0.1-0.7-0.2-1.1-0.2h-15.6c-2.1,0-3.9,1.7-3.9,3.9v35.8
		c0,0.2,0,0.5,0.1,0.7c0.3,1.6,1.5,2.8,3.1,3.1c0.2,0,0.5,0.1,0.7,0.1h15.7c2.1,0,3.9-1.7,3.9-3.9V402
		C-226.2,401.6-226.3,401.2-226.4,400.8z M-230.1,441.5h-15.6c-0.3,0-0.6,0-0.9-0.1c-1.3-0.3-2.4-1.4-2.7-2.7
		c-0.1-0.3-0.1-0.6-0.1-0.9V402c0-2.1,1.7-3.7,3.7-3.7h15.7c0.5,0,1,0.1,1.4,0.3c0.9,0.3,1.6,1,2,2c0.2,0.4,0.3,0.9,0.3,1.4v35.8
		C-226.3,439.8-228,441.5-230.1,441.5z"/>
</g>
<path class="st2" d="M-226.4,400.8c-0.4-1.2-1.3-2.1-2.5-2.5c-0.4-0.1-0.8-0.2-1.2-0.2h-15.6c-2.1,0-3.9,1.7-3.9,3.9v35.8
	c0,0.3,0,0.5,0.1,0.7c0.3,1.5,1.5,2.8,3.1,3.1c0.2,0,0.5,0.1,0.7,0.1h15.7c2.1,0,3.9-1.7,3.9-3.9V402
	C-226.2,401.6-226.3,401.2-226.4,400.8z M-226.3,437.8c0,2.1-1.7,3.8-3.8,3.8h-15.6c-0.3,0-0.5,0-0.8-0.1c-1.5-0.3-2.6-1.5-2.9-2.9
	c-0.1-0.3-0.1-0.5-0.1-0.8V402c0-2.1,1.7-3.8,3.8-3.8h15.7c0.4,0,0.9,0.1,1.3,0.2c1.1,0.4,2,1.3,2.3,2.3c0.1,0.4,0.2,0.8,0.2,1.3
	v35.8H-226.3z"/>
<rect x="-248.9" y="403.5" class="st3" width="22" height="34.1"/>
<g>
	<path class="st1" d="M-235.6,401.4c0,0.1-0.1,0.2-0.2,0.2h-4.1c-0.1,0-0.2-0.1-0.2-0.2l0,0c0-0.1,0.1-0.2,0.2-0.2h4.1
		C-235.7,401.2-235.6,401.3-235.6,401.4L-235.6,401.4z"/>
	<circle class="st1" cx="-237.9" cy="400.3" r="0.3"/>
</g>
<path class="st4" d="M-249.6,404.9v2.9l0,0h-0.1c-0.1,0-0.2-0.2-0.2-0.3v-2.2C-249.9,405.2-249.8,405-249.6,404.9
	C-249.7,404.9-249.6,404.9-249.6,404.9L-249.6,404.9z"/>
<path class="st4" d="M-249.6,408.7v2.9l0,0h-0.1c-0.1,0-0.2-0.2-0.2-0.3v-2.2c0-0.1,0.1-0.3,0.2-0.3
	C-249.7,408.8-249.6,408.8-249.6,408.7L-249.6,408.7z"/>
<path class="st1" d="M-249.6,412.3v2.9l0,0h-0.1c-0.1,0-0.2-0.2-0.2-0.3v-2.2c0-0.1,0.1-0.3,0.2-0.3
	C-249.7,412.3-249.6,412.3-249.6,412.3L-249.6,412.3z"/>
<path class="st4" d="M-226.2,404.8c0.2,0,0.3,0.1,0.3,0.2v1.8c0,0.1-0.1,0.2-0.3,0.2V404.8z"/>
<g>
	<path class="st4" d="M-248.9,403.5v34.1h22.1v-34.1H-248.9z M-226.9,437.6h-22v-34h22V437.6z"/>
</g>
<rect x="-247.1" y="410.7" class="st5" width="7" height="6.4"/>
<rect x="-247.1" y="419" class="st5" width="7" height="6.4"/>
<rect x="-247.1" y="427.5" class="st5" width="7" height="6.4"/>
<g>
	<rect x="-237.7" y="410.5" class="st5" width="9.1" height="0.5"/>
	<rect x="-237.7" y="412.2" class="st5" width="9.1" height="0.5"/>
	<rect x="-237.7" y="413.9" class="st5" width="9.1" height="0.5"/>
	<rect x="-237.7" y="415.6" class="st5" width="9.1" height="0.5"/>
	<rect x="-237.7" y="417.3" class="st5" width="9.1" height="0.5"/>
	<rect x="-237.7" y="419" class="st5" width="9.1" height="0.5"/>
	<rect x="-237.7" y="420.7" class="st5" width="9.1" height="0.5"/>
	<rect x="-237.7" y="422.4" class="st5" width="9.1" height="0.5"/>
	<rect x="-237.7" y="424.1" class="st5" width="9.1" height="0.5"/>
</g>
<rect x="-237.8" y="427.3" class="st5" width="9.1" height="0.5"/>
<rect x="-237.8" y="429" class="st5" width="9.1" height="0.5"/>
<rect x="-237.8" y="430.7" class="st5" width="9.1" height="0.5"/>
<rect x="-237.8" y="432.4" class="st5" width="9.1" height="0.5"/>
<rect x="-237.8" y="434" class="st5" width="9.1" height="0.5"/>
<g>
	<path class="st6" d="M-242,406.6c0,0.4-0.1,0.7-0.3,0.9c-0.2,0.2-0.5,0.4-0.8,0.4c-0.4,0-0.7-0.1-0.9-0.4c-0.2-0.2-0.4-0.6-0.4-0.9
		c0-0.4,0.1-0.7,0.3-0.9c0.2-0.2,0.5-0.4,0.9-0.4c0.3,0,0.6,0.1,0.9,0.4C-242.1,405.9-242,406.2-242,406.6z M-242.5,406.6
		c0-0.4-0.1-0.8-0.3-1c-0.1-0.2-0.3-0.2-0.5-0.2c-0.3,0-0.5,0.1-0.6,0.4c-0.1,0.2-0.1,0.5-0.1,0.8c0,0.4,0.1,0.7,0.2,0.9
		c0.1,0.2,0.3,0.3,0.5,0.3C-242.7,407.7-242.5,407.4-242.5,406.6z"/>
	<path class="st6" d="M-239.4,407.6c0,0.1-0.1,0.2-0.3,0.2s-0.4-0.1-0.5-0.2c-0.1-0.1-0.1-0.1-0.1-0.2c0-0.1,0-0.2-0.1-0.5
		c0-0.2-0.1-0.3-0.1-0.3c-0.1-0.1-0.2-0.1-0.4-0.1v1.1c0,0.1,0.1,0.1,0.3,0.1h0.1c0,0,0,0-0.1,0h-0.1h-0.3c-0.1,0-0.2,0-0.3,0
		c-0.1,0-0.2,0-0.2,0h-0.1c-0.1,0-0.2,0-0.2,0s0,0,0.1,0c0,0,0,0,0.1,0l0,0c0.1,0,0.2,0,0.2-0.1v-2.2v-0.1c0,0-0.1,0-0.2,0
		c-0.1,0-0.1,0-0.1,0s0,0,0.1,0l0,0c0.1,0,0.2,0,0.5,0c0.1,0,0.2,0,0.3,0c0.1,0,0.1,0,0.2,0c0.2,0,0.4,0,0.6,0.1
		c0.1,0.1,0.2,0.2,0.2,0.4c0,0.2-0.1,0.3-0.2,0.4c-0.2,0.1-0.4,0.2-0.7,0.2c0.3,0,0.5,0.1,0.6,0.2c0.1,0.1,0.2,0.4,0.2,0.7
		c0,0.2,0.1,0.3,0.2,0.3l0,0l0,0l0,0c0-0.1,0-0.1,0.1-0.1C-239.5,407.5-239.4,407.6-239.4,407.6z M-240.3,405.9
		c0-0.3-0.2-0.5-0.5-0.5c-0.1,0-0.1,0-0.2,0v0.1v0.9C-240.5,406.4-240.3,406.2-240.3,405.9z"/>
	<path class="st6" d="M-236.8,406.5c0,0.4-0.2,0.8-0.5,1c-0.2,0.2-0.5,0.3-0.9,0.3c0,0,0,0-0.1,0c-0.1,0-0.2,0-0.4,0h-0.1
		c0,0,0,0-0.1,0c-0.1,0-0.1,0-0.2,0l0,0c-0.1,0-0.1,0-0.1-0.1c0,0,0,0,0.1,0h0.1c0.1,0,0.1,0,0.1-0.1c0,0,0-0.1,0-0.2v-1.7
		c0-0.2,0-0.3,0-0.3s-0.1,0-0.2,0c-0.1,0-0.1,0-0.1,0s0,0,0.1,0l0,0c0,0,0.1,0,0.2,0h0.4c0.5,0,0.8,0,1,0.1s0.4,0.2,0.6,0.4
		C-236.9,406-236.8,406.3-236.8,406.5z M-237.3,406.5c0-0.8-0.3-1.1-0.9-1.1c-0.2,0-0.3,0-0.3,0s0,0.1,0,0.2v1.9c0,0.1,0,0.1,0,0.1
		s0.1,0,0.2,0C-237.6,407.7-237.3,407.3-237.3,406.5z"/>
	<path class="st6" d="M-234.4,407.2L-234.4,407.2c0,0.1,0,0.2,0,0.2v0.3v0.1h-0.9h-1c-0.1,0-0.1,0-0.1,0s0,0,0.1,0
		c0.1,0,0.2,0,0.2,0s0-0.1,0-0.2v-1.9c0-0.1,0-0.2,0-0.2s-0.1,0-0.2,0h-0.1c0,0,0,0,0.1,0h0.1h0.1h0.1l0,0c0,0,0.1,0,0.3,0
		s0.4,0,0.6,0h0.3c0.1,0,0.2,0,0.2,0l0,0v0.1c0,0.1,0,0.2,0,0.5c0,0,0,0,0,0.1v0.1c0,0-0.1,0-0.1-0.1c-0.1-0.3-0.1-0.4-0.3-0.5
		c-0.1,0-0.3,0-0.6,0h-0.3v1h0.1c0.2,0,0.4,0,0.4-0.1c0.1,0,0.1-0.1,0.1-0.3c0-0.1,0-0.2,0.1-0.2c0,0,0.1,0,0.1,0.1c0,0,0,0.1,0,0.2
		c0,0.1,0,0.2,0,0.2c0,0.2,0,0.4,0,0.5v0.1c0,0.1,0,0.1-0.1,0.1c0,0-0.1,0-0.1-0.1c0-0.2-0.1-0.3-0.1-0.4s-0.2-0.1-0.4-0.1h-0.1v1.2
		c0.5,0,0.8,0,0.9,0c0.1,0,0.2-0.2,0.3-0.5c0-0.1,0-0.1,0.1-0.1C-234.4,407-234.4,407.1-234.4,407.2z"/>
	<path class="st6" d="M-231.9,407.6c0,0.1-0.1,0.2-0.3,0.2s-0.4-0.1-0.5-0.2c-0.1-0.1-0.1-0.1-0.1-0.2c0-0.1,0-0.2-0.1-0.5
		c0-0.2-0.1-0.3-0.1-0.3c-0.1-0.1-0.2-0.1-0.4-0.1v1.1c0,0.1,0.1,0.1,0.3,0.1h0.1c0,0,0,0-0.1,0h-0.1h-0.2c-0.1,0-0.2,0-0.3,0
		s-0.2,0-0.2,0h-0.1c-0.1,0-0.2,0-0.2,0s0,0,0.1,0c0,0,0,0,0.1,0l0,0c0.1,0,0.2,0,0.2-0.1v-2.2v-0.1c0,0-0.1,0-0.2,0s-0.1,0-0.1,0
		s0,0,0.1,0l0,0c0.1,0,0.2,0,0.5,0c0.1,0,0.2,0,0.3,0c0.1,0,0.1,0,0.2,0c0.2,0,0.4,0,0.6,0.1c0.1,0.1,0.2,0.2,0.2,0.4
		c0,0.2-0.1,0.3-0.2,0.4c-0.2,0.1-0.4,0.2-0.7,0.2c0.3,0,0.5,0.1,0.6,0.2c0.1,0.1,0.2,0.4,0.2,0.7c0,0.2,0.1,0.3,0.2,0.3l0,0l0,0
		l0,0c0-0.1,0-0.1,0.1-0.1C-232,407.5-231.9,407.6-231.9,407.6z M-232.8,405.9c0-0.3-0.2-0.5-0.5-0.5c-0.1,0-0.1,0-0.2,0v0.1v0.9
		C-233,406.4-232.8,406.2-232.8,405.9z"/>
</g>
</svg>
