<?xml version="1.0" encoding="utf-8"?>
<!-- Generator: Adobe Illustrator 19.0.0, SVG Export Plug-In . SVG Version: 6.00 Build 0)  -->
<svg version="1.1" id="图层_1" xmlns="http://www.w3.org/2000/svg" xmlns:xlink="http://www.w3.org/1999/xlink" x="0px" y="0px"
	 viewBox="-267 390.9 60 60" style="enable-background:new -267 390.9 60 60;" xml:space="preserve">
<style type="text/css">
	.st0{fill:#00A1B3;}
	.st1{fill:#4ECDDA;}
	.st2{fill:#D0E7EF;}
	.st3{fill:#525E6E;}
	.st4{fill:#3A4554;}
</style>
<g id="XMLID_592_">
</g>
<g id="XMLID_595_">
</g>
<g id="XMLID_596_">
</g>
<g id="XMLID_597_">
</g>
<g id="XMLID_598_">
</g>
<polygon class="st0" points="-223.4,406.6 -223.5,407 -226.5,415.5 -228.7,414.7 -234.3,428.3 -235.8,431.9 -236.9,431.5 
	-237.5,431.3 -236.9,429.8 -236.2,428.1 -234.6,424.1 -233.7,422 -233.7,422 -230.5,414.1 -233,413.2 -229.8,404.3 -228.3,404.8 
	-230.4,410.6 -229.2,411 -227.2,405.2 -225.7,405.8 -227.8,411.6 -226.9,411.9 -224.8,406.1 -224.2,406.3 "/>
<g>
	<path class="st1" d="M-237.8,429.8l-0.8,0.2l-0.7-1.8l-5.2-13.2c-1.9-0.1-3.7-1.9-4.3-4.4c-0.7-2.9,0.5-5.7,2.6-6.2l3.3,10.1
		l0.2,0.5l4.3,13.1L-237.8,429.8z"/>
	<path class="st0" d="M-242.8,414.5l0.2,0.5L-242.8,414.5C-242.8,414.5-242.8,414.5-242.8,414.5z"/>
	<path class="st0" d="M-242.8,414.5l-3.3-10.1c2.1-0.5,4.4,1.4,5.1,4.3C-240.4,411.2-241.2,413.6-242.8,414.5z"/>
	<polygon class="st0" points="-236.9,429.6 -237.8,429.8 -238.3,428.1 -242.6,415 -238,427 -237.5,428.1 	"/>
</g>
<g>
	<path class="st1" d="M-233.5,426.3c0,0-1.9,0.2-2.4,1.8h-2l0-1.2l-0.9-27.1l0-0.9c0,0,4.1,1.4,4.4,9.7l0.7,13.4L-233.5,426.3
		L-233.5,426.3z"/>
	<path class="st2" d="M-233.5,426.3L-233.5,426.3c-0.1,0-0.5,0.1-0.9,0.3l-0.1-2.5l-0.8-15.1c-0.2-5.6-2.2-8.1-3.4-9.1c0,0,0,0,0,0
		v-1c0,0,4.1,1.4,4.4,9.7l0.7,13.4L-233.5,426.3z"/>
</g>
<g>
	<path class="st3" d="M-236.9,428.1v21h-3.7c-0.1,0-0.3,0-0.4,0c-1.1-0.1-2-0.3-2-0.7v-19.7c0-0.3,0.7-0.5,1.6-0.6
		c0.2,0,0.5,0,0.8,0H-236.9z"/>
	<path class="st4" d="M-233.2,428.1h-3.7v21h3.7c1.3,0,2.4-0.3,2.4-0.7v-19.7C-230.8,428.4-231.9,428.1-233.2,428.1z"/>
</g>
</svg>
