<?xml version="1.0" encoding="utf-8"?>
<!-- Generator: Adobe Illustrator 19.0.0, SVG Export Plug-In . SVG Version: 6.00 Build 0)  -->
<svg version="1.1" id="图层_1" xmlns="http://www.w3.org/2000/svg" xmlns:xlink="http://www.w3.org/1999/xlink" x="0px" y="0px"
	 viewBox="-119 121 60 60" style="enable-background:new -119 121 60 60;" xml:space="preserve">
<style type="text/css">
	.st0{fill:#D2D2B3;}
	.st1{fill:#FFAC86;}
	.st2{fill:#D2D7D2;}
	.st3{fill:#C07C2B;}
	.st4{fill:#FFAC00;}
	.st5{fill:#FF472B;}
	.st6{fill:#6EB3ED;}
	.st7{fill:#B36242;}
	.st8{fill:#E8472B;}
	.st9{fill:none;stroke:#000000;stroke-width:0.25;}
	.st10{fill:#7C5614;}
	.st11{fill:#478897;}
	.st12{fill:#FFFFFF;}
</style>
<g id="XMLID_592_">
</g>
<g id="XMLID_595_">
</g>
<g id="XMLID_596_">
</g>
<g id="XMLID_597_">
</g>
<g id="XMLID_598_">
</g>
<polygon class="st0" points="-72.4,141.8 -77.5,175.3 -76.6,175.2 -71.3,141.4 "/>
<polygon class="st0" points="-108.7,142.1 -109.9,141.7 -104.8,175.2 -103.9,175.3 "/>
<polygon class="st1" points="-99.7,157 -102.6,157.3 -102,158.1 -100.2,157.7 -99.7,158.4 -99.4,158.3 "/>
<path class="st2" d="M-95.4,155.8c0,0-1,4.8-1.1,5.1l-2.1-3.1l-1.7,0.8l4.2,5.4l1.4-2.6l-0.4,4.7l5.3,0.1l-2-10.3H-95.4z"/>
<path class="st3" d="M-82,163.4c0,0-0.3-1.4,1.9-1.6c0,0,1.5,0,1.2,1.6L-82,163.4z"/>
<path class="st4" d="M-83,164.8c0,0,0.6-1.9,2.6-2c0,0,1.8,0.2,2.3,1.9L-83,164.8z"/>
<path class="st5" d="M-86.6,162.2c0,0,0.4-2.1,2.2-2.1c0,0,1.3,0,1.4,2.1L-86.6,162.2z"/>
<path class="st3" d="M-90.5,163.7c0,0,2.5-2.6,5,0H-90.5z"/>
<path class="st6" d="M-81,124.9l3.5,13.3c0,0,0,4.4,4.7,4c0,0,2.7-0.8,3.4-3.7l-0.3-0.1l-5.2-13.4L-81,124.9z"/>
<path class="st6" d="M-94.6,124.9l0.3,13.2c0,0,1.2,4.3,4.7,3.9c0,0,2.6-0.3,3.8-3.9l0.1-0.3l-1.7-13L-94.6,124.9z"/>
<path class="st6" d="M-105,124.7l-7,13.2c0,0,0.5,4,3.7,4.3c0,0,3.3,0.5,5.1-4.3l2.8-13.2H-105z"/>
<path class="st7" d="M-104.9,167.8c0,0,27.5-0.2,28.6-0.2l-1.3,7.7c0,0-1.6-0.1-2.9,0.1h-3.2c0,0,0-6.4-7.9-6.5c0,0-5.4,1-5.8,6.2
	h-6.6L-104.9,167.8z"/>
<path class="st8" d="M-95.2,155.1l-0.2,0.8c0,0,1.2,1.9,3.6,0.3l-0.2-0.9C-92,155.4-94,155.5-95.2,155.1z"/>
<path class="st9" d="M-103.5,168.7c0.7,0.2-0.2,1.1-0.4,0.4C-104.1,168.9-103.7,168.6-103.5,168.7"/>
<path class="st9" d="M-77.9,168.7c0.7,0.2-0.2,1.1-0.4,0.4C-78.4,168.9-78.1,168.6-77.9,168.7"/>
<path class="st9" d="M-94.8,171.3c0.7,0.2-0.2,1.1-0.4,0.4C-95.4,171.5-95,171.2-94.8,171.3"/>
<path class="st9" d="M-96.3,176.1c0.7,0.2-0.2,1.1-0.4,0.4C-96.9,176.3-96.5,176-96.3,176.1"/>
<path class="st9" d="M-94,180.3c0.7,0.2-0.2,1.1-0.4,0.4C-94.6,180.4-94.2,180.2-94,180.3"/>
<path class="st9" d="M-90,181.2c0.7,0.2-0.2,1.1-0.4,0.4C-90.6,181.3-90.2,181.1-90,181.2"/>
<path class="st9" d="M-86.1,179.3c0.7,0.2-0.2,1.1-0.4,0.4C-86.7,179.5-86.3,179.2-86.1,179.3"/>
<path class="st9" d="M-84.5,174.5c0.7,0.2-0.2,1.1-0.4,0.4C-85.1,174.6-84.7,174.4-84.5,174.5"/>
<path class="st9" d="M-86.9,170.7c0.7,0.2-0.2,1.1-0.4,0.4C-87.5,170.8-87.1,170.6-86.9,170.7"/>
<path class="st9" d="M-90.5,169.5c0.7,0.2-0.2,1.1-0.4,0.4C-91.1,169.6-90.7,169.4-90.5,169.5"/>
<path class="st9" d="M-93.3,157.4c0.9,0.2-0.2,1.3-0.5,0.5C-94,157.5-93.5,157.3-93.3,157.4"/>
<path class="st9" d="M-93.1,161.1c0.9,0.2-0.2,1.3-0.5,0.5C-93.8,161.2-93.3,160.9-93.1,161.1"/>
<path class="st9" d="M-81.6,164c0.5,0.1-0.1,0.8-0.3,0.3C-82,164.1-81.7,163.9-81.6,164"/>
<path class="st9" d="M-80.4,163.5c0.5,0.1-0.1,0.8-0.3,0.3C-80.8,163.5-80.5,163.4-80.4,163.5"/>
<path class="st9" d="M-101.6,155.3c0.5,0.1-0.1,0.8-0.3,0.3C-102.1,155.4-101.8,155.2-101.6,155.3"/>
<path class="st9" d="M-102.5,156.3c0.5,0.1-0.1,0.8-0.3,0.3C-102.9,156.4-102.7,156.3-102.5,156.3"/>
<path class="st9" d="M-100.8,156c0.5,0.1-0.1,0.8-0.3,0.3C-101.2,156.1-100.9,155.9-100.8,156"/>
<path class="st9" d="M-98.9,153.2c0.6,0.2-0.2,1-0.4,0.4C-99.4,153.3-99.1,153.1-98.9,153.2"/>
<path class="st9" d="M-79.4,164c0.5,0.1-0.1,0.8-0.3,0.3C-79.8,164.1-79.5,164-79.4,164"/>
<path class="st9" d="M-88.4,169.3c5.8,2,5.9,8.6,2,11.8c-3.3,2.7-9.2,1.8-10.7-3.6c-1.7-6,4.1-9.7,8.4-8.3"/>
<path class="st9" d="M-88.9,170.9c4.3,1.5,4.5,6.6,1.5,8.8c-2.2,1.6-6.5,1.6-8-2.6c-1.5-4.2,3-7.5,6.3-6.3"/>
<path class="st1" d="M-95.1,146.2c0,0-2.2,1.1-2.3,3.2c0,0-0.4,2.3,3.4,3.1c0,0,0.4,1.1,0.5,3.1l0.8-0.2l-0.2-3.1
	c0,0,2.2-0.4,2.7-1.1l-1.4-3L-95.1,146.2z"/>
<path class="st10" d="M-97.1,148.1c0,0,0.1-1.9,3.9-3.6c0,0,3.3,0.8,4.2,3.2c0,0,2,3.6-3.9,5.3l-0.1-0.8c0,0,1.8-0.3,2.6-1.3
	l-0.6-0.9l-1.2-0.9c0,0-2.7-2.4-3-3.1C-95.1,146.1-96.5,147.1-97.1,148.1z"/>
<path class="st9" d="M-92.6,147.1"/>
<path class="st9" d="M-90.4,151.1c-4,3-9.5,0.1-5.9-4.1l0.4-0.4"/>
<path class="st9" d="M-95.9,147.5c-0.3,0-0.2,0.4,0,0.3C-95.7,147.8-95.7,147.4-95.9,147.5"/>
<path class="st9" d="M-93.8,148.5c-0.3,0-0.2,0.4,0,0.3C-93.5,148.7-93.6,148.4-93.8,148.5"/>
<path class="st9" d="M-96.4,148.8c0.1,1.1,1.4,1.6,2.3,1"/>
<path class="st9" d="M-95.5,148.5c-0.1,0.4,0.1,0.5,0.5,0.4"/>
<path class="st9" d="M-95,146.1c1,1.4,3.3,3.2,4.5,4.5"/>
<path class="st9" d="M-95,146.1c-0.5,0.3-1,0.6-1.4,1"/>
<path class="st9" d="M-92.4,144.3c-2.5,0.7-4.2,2.4-4.7,3.8"/>
<path class="st9" d="M-94,145.6c1.3,1.9,3.6,4.7,3.7,5.7"/>
<path class="st9" d="M-92.9,152.4c0.1,1.2,0.2,1.9,0.3,3.1"/>
<path class="st9" d="M-94.1,152.3c0.3,1,0.4,2.5,0.5,3.4"/>
<path class="st9" d="M-93.4,144.6c5,0.8,7.1,7,0.6,8.4"/>
<path class="st9" d="M-96.5,148.8c-0.6,2,1.2,2.6,2.4,1.1"/>
<path class="st9" d="M-109.9,141.3c0.9,6.6,4.7,30,5.2,34.1"/>
<path class="st9" d="M-108.8,142.2c0.9,6.6,4.5,29.4,5,33.4"/>
<path class="st9" d="M-71.3,141.1c-1.1,8.2-4.3,28.4-5.3,34.1"/>
<path class="st9" d="M-72.3,141.4c-1.1,8.2-4.3,28.4-5.3,34.1"/>
<path class="st9" d="M-104.5,123.7c-2.2,4.7-4.5,8.6-8.1,15.2"/>
<path class="st9" d="M-106.3,124.7c13.9,0.2,22.9,0,32.2,0.3"/>
<path class="st9" d="M-75.1,123.9c1.8,5.2,4,10.3,5.8,14.7"/>
<path class="st9" d="M-113,137.9c16.7,0,30.9,0.2,44.3,0.5"/>
<path class="st9" d="M-112.5,138.6c16.4,0,30.4,0.2,43.6,0.5"/>
<path class="st9" d="M-112.1,137.3c0.5,7,7.6,6.2,9-0.1"/>
<path class="st9" d="M-103,137.5c0.7,6.4,7.4,6.1,8.6-0.1"/>
<path class="st9" d="M-94.4,137.6c1.1,5.8,7.3,5.8,8.6,0.1"/>
<path class="st9" d="M-85.8,137.7c0.6,5.8,7.2,5.8,8.2,0.4"/>
<path class="st9" d="M-77.6,138.1c0.7,6.3,8.3,4.7,8.2-0.4"/>
<path class="st9" d="M-100.1,123.9c-1.2,5.1-2.3,10.6-3.2,14"/>
<path class="st9" d="M-94.6,124.7c0.1,5.7,0.3,9.4,0.2,13.9"/>
<path class="st9" d="M-87.5,124.3c0.6,4,1.5,9.5,1.8,14.2"/>
<path class="st9" d="M-81.1,124.4c1.8,6.4,2.5,9.5,3.6,13.8"/>
<path class="st9" d="M-107.3,166.1c10.7-0.1,26,0.2,32.4-0.2"/>
<path class="st9" d="M-104.8,167.8c9.6-0.1,23.3,0.1,29.1-0.2"/>
<path class="st9" d="M-107.5,175.2c2.8-0.1,6.9-0.1,10.5-0.1"/>
<path class="st9" d="M-94.7,157.4c-0.2,4.6-0.1,5.4-0.4,9"/>
<path class="st9" d="M-92,155.4c0.8,3.4,1.4,7.4,2.1,11"/>
<path class="st9" d="M-95.3,155.1c1,0.3,2.2,0.4,3.4,0.3"/>
<path class="st9" d="M-95.2,155c-0.5,2.5-0.9,5.1-1.4,6.7"/>
<path class="st9" d="M-98.8,157.6c1.4,2.1,1.2,1.9,2.3,3.7"/>
<path class="st9" d="M-100.6,158.6c1.1-0.5,1.2-0.6,2.4-1"/>
<path class="st9" d="M-100.4,158.6c2,2.6,3.2,4.1,4.1,5.3"/>
<path class="st9" d="M-94.8,160.3c-0.9,2.2-1.2,3.5-1.4,3.8"/>
<path class="st9" d="M-92.3,158.2c0.4,2.4,1,6.4,1.2,8.1"/>
<path class="st9" d="M-93.9,141.3c-3.3-3.8,0.7-6.6,3.6-1.6"/>
<path class="st9" d="M-91.4,138.6c1.8-1.1,3.3-0.8,3.8,1.6"/>
<path class="st9" d="M-87.8,139.6c1.2-0.2,4.1,0.5,3.4,2.2c-0.5,1.3-2.8,1.5-3.8,1.6"/>
<path class="st9" d="M-95.4,155.8c0.8,1.3,2.4,1.5,3.5,0.5"/>
<path class="st9" d="M-100.9,159c0.1,0.1,0.3,0.5,0.4,0.6"/>
<path class="st9" d="M-103,158.8c0.2,0.2,0.4,0.4,0.6,0.6"/>
<path class="st9" d="M-102.6,159.5c0.5-0.1,1.1-0.2,1.6-0.3"/>
<path class="st9" d="M-99.7,157c0.1,0.3,0.2,0.7,0.3,1"/>
<path class="st9" d="M-103.9,157.4c2.1-0.2,5.8-0.7,7.5-0.9"/>
<path class="st9" d="M-104.3,155.6c2.1-0.2,6-0.7,7.8-0.9"/>
<path class="st9" d="M-103.5,156c0.2-4.8,4.7-5.6,6.1-1"/>
<path class="st9" d="M-95.1,162.6c0,1.3,0.1,3.1,0.1,4.3"/>
<path class="st9" d="M-92.2,170.9c0.6,1.7,1,2.9,1.4,4"/>
<path class="st9" d="M-88.8,170.9c-0.5,1.4-1,3-1.6,4.2"/>
<path class="st9" d="M-90,175.3c1.5-0.8,3.1-1.8,4.2-2.5"/>
<path class="st9" d="M-90.1,175.7c0.9,0.3,3.3,1.2,4.7,1.8"/>
<path class="st9" d="M-90.3,175.8c0.6,1.4,1.4,3.5,1.9,4.4"/>
<path class="st9" d="M-90.8,175.9c-0.4,1.6-0.8,3.8-1.2,5.3"/>
<path class="st9" d="M-91.1,175.7c-1.4,0.9-2.6,1.5-3.9,2.4"/>
<path class="st9" d="M-96,173.5c1.7,0.7,4.2,1.6,4.9,1.8"/>
<g>
	<path class="st11" d="M-102.8,164.2c-0.6,0.6,0.1,1.5,0.8,1C-101.4,164.6-102.1,163.9-102.8,164.2"/>
	<path class="st9" d="M-102.7,164.2c-1,0.5,0.3,1.9,0.8,0.6C-101.7,164.2-102.4,163.9-102.7,164.2"/>
	<path class="st9" d="M-103.7,162.6c0,1.2,0.1,2.4,0.4,3.4"/>
	<path class="st9" d="M-104.7,162.8c1.2,0,2.5,0,3.7,0"/>
	<path class="st9" d="M-101.2,162.6c0,1.3,0,2.6-0.1,4"/>
	<path class="st9" d="M-101.4,163.8c0.5-0.1,0.9,0,1.1,0.3c0.2,0.8-0.8,0.8-1.2,0.8"/>
	<path class="st9" d="M-101.6,160.5c-0.1,0.9-0.3,1.7-0.5,2.6"/>
</g>
<path class="st9" d="M-91,163.6c0.2,0.9,0.5,2,0.6,2.7"/>
<path class="st9" d="M-91.3,163.8c2.3-0.1,5.3,0.1,6.9-0.1"/>
<path class="st9" d="M-84.7,163.5c-0.3,0.9-0.5,1.9-0.7,2.9"/>
<path class="st9" d="M-90.5,163.9c1.4-1.7,3.9-1.9,5.1,0.1"/>
<path class="st9" d="M-86.6,162.6c0.4-3,4-3.3,3.8,0"/>
<path class="st9" d="M-85.1,160.3c0.3-0.8,0.6-0.9,0.8,0"/>
<path class="st9" d="M-89.6,163.5c0.2,0.8,0.4,2.1,0.5,2.7"/>
<path class="st9" d="M-88.4,163.7c0,0.8,0.2,2,0.3,2.5"/>
<path class="st9" d="M-86.9,163.8c-0.1,0.9-0.1,1.7-0.1,2.6"/>
<path class="st9" d="M-85.9,163.7c-0.1,0.8-0.2,1.6-0.4,2.5"/>
<path class="st9" d="M-83.6,164.6c0.2,0.6,0.4,1.2,0.8,1.7"/>
<path class="st9" d="M-77.3,164.6c-0.2,0.6-0.5,1.1-0.7,1.7"/>
<path class="st9" d="M-83.8,165c2.2-0.2,4.5-0.1,6.7-0.1"/>
<path class="st9" d="M-83.1,165.1c0.9-2.9,4.1-3.1,5.1,0"/>
<path class="st9" d="M-82,163.5c-0.2-2.2,3.6-2.4,3.1,0.1"/>
<path class="st9" d="M-102.5,167.7c0.4,2.7,0.9,5.4,1.3,8"/>
<path class="st9" d="M-99.5,167c0.2,2.8,0.6,5.8,1.1,8.5"/>
<path class="st9" d="M-96.4,167.8c0.1,1.2,0.2,2.6,0.4,3.8"/>
<path class="st9" d="M-93.4,167.6c0.2,0.6,0.2,1.2,0.2,1.9"/>
<path class="st9" d="M-89.8,167.6c0,0.5,0,1.1,0,1.6"/>
<path class="st9" d="M-86.2,167.5c-0.1,1.6-0.1,2.2-0.1,3.1"/>
<path class="st9" d="M-82.5,167.5c-0.2,2.3-0.5,7.2-0.6,7.7"/>
<path class="st9" d="M-79.7,167.5c-0.3,2.7-0.5,5-0.9,7.7"/>
<path class="st9" d="M-84.4,180.9c-0.5,0.8-1.2,1.6-2.1,2.1"/>
<path class="st9" d="M-83.9,181.6c-0.4,0.6-1.2,1.4-1.9,1.9"/>
<path class="st12" d="M-94,141.2l-0.7,3.9c0,0,2.2,1.5,4.8,2l2.2-4.8l-6.2-1.8L-94,141.2z"/>
<path class="st8" d="M-94.3,143l-0.2,1c0,0,4,2,5,2.2l0.4-0.9L-94.3,143z"/>
<path class="st9" d="M-93.9,139.5c-0.1,2-0.5,4.2-0.9,6.2"/>
<path class="st9" d="M-87.5,141.9c-0.8,2-2.3,4.9-3,6.2"/>
<path class="st9" d="M-95.2,144.9c1.6,0.9,3.4,1.6,5.3,2.1"/>
<path class="st9" d="M-94.6,144c0.9,0.4,3.7,1.7,5.1,2.2"/>
<path class="st9" d="M-94,143.2c1.1,0.4,4,1.8,5.1,2.2"/>
<path class="st9" d="M-107,136.3c-0.3,1.3-0.6,2.5-0.9,3.8"/>
<path class="st9" d="M-87.5,136.3c0,1.1,0.2,3,0.2,3.5"/>
<path class="st9" d="M-96.6,154.6c0,0.6-0.1,1.5-0.2,2"/>
<path class="st9" d="M-104.3,157.3c0.3,0.7,0.4,0.9,0.6,1.5"/>
<path class="st9" d="M-97.8,154.7c-0.1,0.7-0.1,1.3-0.1,2"/>
<path class="st9" d="M-99.6,154.9c0,0.6,0.1,1.3,0.1,1.9"/>
<path class="st9" d="M-101.9,156.9c0.1,0.6,0.2,1.2,0.3,1.7"/>
<path class="st9" d="M-103.1,157.2c0.2,0.5,0.3,1,0.4,1.5"/>
<path class="st9" d="M-90.4,174.9c1.2,0.3-0.3,1.8-0.7,0.7C-91.4,175.1-90.7,174.7-90.4,174.9"/>
<path class="st9" d="M-94.6,180c-0.7,0.6-1.3,1.2-1.9,1.9"/>
<path class="st9" d="M-99.7,159.8c0.6-0.4,1.3-0.8,1.9-1.2"/>
<path class="st9" d="M-93.7,165.2c0.5,0,1,0,1.3-0.1"/>
<path class="st9" d="M-83.6,175.3c3.6,0,5.9,0,8.5-0.2"/>
</svg>
