<?xml version="1.0" encoding="utf-8"?>
<!-- Generator: Adobe Illustrator 19.0.0, SVG Export Plug-In . SVG Version: 6.00 Build 0)  -->
<svg version="1.1" id="图层_1" xmlns="http://www.w3.org/2000/svg" xmlns:xlink="http://www.w3.org/1999/xlink" x="0px" y="0px"
	 viewBox="0 0 60 60" style="enable-background:new 0 0 60 60;" xml:space="preserve">
<style type="text/css">
	.st0{fill:#515D6C;}
	.st1{fill:#EBE7DE;}
	.st2{fill:#E2A7CA;}
	.st3{fill:#B6CAD1;}
	.st4{fill:#D296C0;}
	.st5{fill:#CEE4EC;}
	.st6{fill:#353847;}
	.st7{fill:#F6EDD4;}
	.st8{fill:#CFAE47;}
	.st9{fill:#D2877D;}
	.st10{fill:#ECB03C;}
	.st11{fill:#DFD6D5;}
</style>
<rect id="XMLID_320_" x="-0.0076493" y="13.0754404" class="st0" width="60.0076485" height="41.9270096"/>
<path id="XMLID_313_" class="st1" d="M56.9788246,24.1663208h-2.1960602h-2.3111191h-2.7651711h-2.8012505H44.222538h-3.017025
	h-2.7196579h-2.6275482H33.384449h-2.7018089h-2.5732365h-2.7591801h-2.7659988h-2.740694h-2.5829887h-2.8008051h-2.2554703
	H9.7485104H7.3469381H5.0882163H2.8031685l-0.281368,0.4068813v3.7665329
	c0.6245046-0.1329708,1.0927076-0.6871643,1.0927076-1.3513184c0,0.7635307,0.6190224,1.3831272,1.3825536,1.3831272
	c0.7635951,0,1.3828087-0.6195965,1.3828087-1.3831272c0,0.7635307,0.6195965,1.3831272,1.3834462,1.3831272
	c0.7635312,0,1.3823628-0.6195965,1.3823628-1.3831272c0,0.7635307,0.6195955,1.3831272,1.3831911,1.3831272
	c0.7642326,0,1.3829994-0.6195965,1.3829994-1.3831272c0,0.7635307,0.6193419,1.3831272,1.3831911,1.3831272
	c0.7635956,0,1.3830004-0.6195965,1.3830004-1.3831272c0,0.7635307,0.6192141,1.3831272,1.3830004,1.3831272
	c0.7631474,0,1.3825531-0.6195965,1.3825531-1.3831272c0,0.7635307,0.6194057,1.3831272,1.3831921,1.3831272
	c0.7635937,0,1.3823624-0.6195965,1.3823624-1.3831272c0,0.7635307,0.6192131,1.3831272,1.3829994,1.3831272
	c0.7644234,0,1.3828087-0.6195965,1.3828087-1.3831272c0,0.7635307,0.6189594,1.3831272,1.3829994,1.3831272
	c0.7642326,0,1.3829365-0.6195965,1.3829365-1.3831272c0,0.7635307,0.619278,1.3831272,1.3828087,1.3831272
	c0.7644234,0,1.383255-0.6195965,1.383255-1.3831272c0,0.7635307,0.6191502,1.3831272,1.3831921,1.3831272
	c0.7635937,0,1.3827438-0.6195965,1.3827438-1.3831272c0,0.7635307,0.6192131,1.3831272,1.3823643,1.3831272
	c0.7640381,0,1.3836365-0.6195965,1.3836365-1.3831272c0,0.7635307,0.6192131,1.3831272,1.381916,1.3831272
	c0.7644234,0,1.3837013-0.6195965,1.3837013-1.3831272c0,0.7635307,0.6191483,1.3831272,1.3831253,1.3831272
	c0.7636604,0,1.3828087-0.6195965,1.3828087-1.3831272c0,0.7635307,0.6187706,1.3831272,1.3836403,1.3831272
	c0.762764,0,1.3823624-0.6195965,1.3823624-1.3831272c0,0.7635307,0.6187668,1.3831272,1.3823624,1.3831272
	s1.3831902-0.6195965,1.3831902-1.3831272c0,0.7635307,0.6192131,1.3831272,1.3823624,1.3831272
	c0.7648697,0,1.3831902-0.6195965,1.3831902-1.3831272c0,0.7635307,0.6192131,1.3831272,1.383255,1.3831272
	c0.7627029,0,1.383194-0.6195965,1.383194-1.3831272c0,0.7635307,0.6183205,1.3831272,1.3831902,1.3831272
	c0.7631493,0,1.3823624-0.6195965,1.3823624-1.3831272c0,0.7635307,0.6195946,1.3831272,1.3831902,1.3831272
	c0.7632141,0,1.3823624-0.6195965,1.3823624-1.3831272c0,0.7402,0.5826874,1.3393993,1.3131371,1.3768158v-3.4765587
	L56.9788246,24.1663208z"/>
<polygon id="XMLID_310_" class="st2" points="59.0364952,26.1198349 0.95885,26.1198349 2.5141513,23.8824043 2.5141513,23.87603 
	2.9158688,23.2959538 57.0858536,23.2959538 57.4683838,23.8505306 "/>
<path id="XMLID_309_" class="st3" d="M3.7254236,26.1198349c0,0.701189-0.5227683,1.2812634-1.2048979,1.3705063
	c0,0,0,0-0.0063744,0c-0.0572426,0.0063744-0.1146765,0.0127487-0.1721101,0.0127487
	c-0.7648699,0-1.3831912-0.6183224-1.3831912-1.383255H3.7254236z"/>
<path id="XMLID_308_" class="st4" d="M3.7245312,26.1198978L3.7245312,26.1198978
	c0,0.7635956,0.618959,1.3831921,1.382936,1.3831921c0.7638502,0,1.3834462-0.6195965,1.3834462-1.3831921l0,0H3.7245312z"/>
<path id="XMLID_307_" class="st3" d="M6.4909134,26.1198978L6.4909134,26.1198978
	c0,0.7635956,0.6181302,1.3831921,1.3826175,1.3831921c0.7635951,0,1.3827453-0.6195965,1.3827453-1.3831921l0,0H6.4909134z"/>
<path id="XMLID_306_" class="st4" d="M9.2562761,26.1198978L9.2562761,26.1198978
	c0,0.7635956,0.6189585,1.3831921,1.3828087,1.3831921c0.7642326,0,1.3829355-0.6195965,1.3829355-1.3831921l0,0H9.2562761z"/>
<path id="XMLID_305_" class="st3" d="M12.0220203,26.1198978L12.0220203,26.1198978
	c0,0.7635956,0.6194696,1.3831921,1.383255,1.3831921c0.7635956,0,1.3825541-0.6195965,1.3825541-1.3831921l0,0H12.0220203z"/>
<path id="XMLID_304_" class="st4" d="M14.7878294,26.1198978L14.7878294,26.1198978
	c0,0.7635956,0.6192141,1.3831921,1.3828096,1.3831921c0.7644234,0,1.3831902-0.6195965,1.3831902-1.3831921l0,0H14.7878294z"/>
<path id="XMLID_303_" class="st3" d="M17.5538292,26.1198978L17.5538292,26.1198978
	c0,0.7635956,0.6187668,1.3831921,1.3831921,1.3831921c0.7635937,0,1.3829994-0.6195965,1.3829994-1.3831921l0,0H17.5538292z"/>
<path id="XMLID_302_" class="st4" d="M20.3200207,26.1198978L20.3200207,26.1198978
	c0,0.7635956,0.6187668,1.3831921,1.3825531,1.3831921c0.7636585,0,1.3829994-0.6195965,1.3829994-1.3831921l0,0H20.3200207z"/>
<path id="XMLID_301_" class="st3" d="M23.0855732,26.1198978L23.0855732,26.1198978
	c0,0.7635956,0.6187687,1.3831921,1.3830643,1.3831921c0.7635307,0,1.3827457-0.6195965,1.3827457-1.3831921l0,0H23.0855732z"/>
<path id="XMLID_300_" class="st4" d="M25.8513832,26.1198978L25.8513832,26.1198978
	c0,0.7635956,0.6192131,1.3831921,1.3827438,1.3831921c0.7644234,0,1.3828087-0.6195965,1.3828087-1.3831921l0,0H25.8513832z"/>
<path id="XMLID_299_" class="st3" d="M28.6169357,26.1198978L28.6169357,26.1198978
	c0,0.7635956,0.6191502,1.3831921,1.3836384,1.3831921c0.7635937,0,1.381916-0.6195965,1.381916-1.3831921l0,0H28.6169357z"/>
<path id="XMLID_298_" class="st4" d="M31.3824902,26.1198978L31.3824902,26.1198978
	c0,0.7635956,0.6204891,1.3831921,1.3836384,1.3831921c0.7635956,0,1.3819771-0.6195965,1.3819771-1.3831921l0,0H31.3824902z"/>
<path id="XMLID_297_" class="st3" d="M34.1481056,26.1198978L34.1481056,26.1198978
	c0,0.7635956,0.6204262,1.3831921,1.3835754,1.3831921c0.7635956,0,1.3828087-0.6195965,1.3828087-1.3831921l0,0H34.1481056z"/>
<path id="XMLID_296_" class="st4" d="M36.9144897,26.1198978L36.9144897,26.1198978
	c0,0.7635956,0.6195946,1.3831921,1.3831902,1.3831921c0.7631493,0,1.3836365-0.6195965,1.3836365-1.3831921l0,0H36.9144897z"/>
<path id="XMLID_295_" class="st3" d="M39.6813164,26.1198978L39.6813164,26.1198978
	c0,0.7635956,0.6183853,1.3831921,1.383255,1.3831921c0.7630882,0,1.3814735-0.6195965,1.3814735-1.3831921l0,0H39.6813164z"/>
<path id="XMLID_294_" class="st4" d="M42.4460449,26.1198978L42.4460449,26.1198978
	c0,0.7635956,0.6200409,1.3831921,1.3827438,1.3831921c0.7644882,0,1.3836365-0.6195965,1.3836365-1.3831921l0,0H42.4460449z"/>
<path id="XMLID_293_" class="st3" d="M45.2124252,26.1198978L45.2124252,26.1198978
	c0,0.7635956,0.6183853,1.3831921,1.3824272,1.3831921c0.7639771,0,1.3831253-0.6195965,1.3831253-1.3831921l0,0H45.2124252z"/>
<path id="XMLID_292_" class="st4" d="M47.9779778,26.1198978L47.9779778,26.1198978
	c0,0.7635956,0.619278,1.3831921,1.383255,1.3831921c0.7635307,0,1.383194-0.6195965,1.383194-1.3831921l0,0H47.9779778z"/>
<path id="XMLID_291_" class="st3" d="M50.7444267,26.1198978L50.7444267,26.1198978
	c0,0.7635956,0.6187668,1.3831921,1.3823624,1.3831921c0.7635918,0,1.3831902-0.6195965,1.3831902-1.3831921l0,0H50.7444267z"/>
<path id="XMLID_290_" class="st4" d="M53.5099792,26.1198978L53.5099792,26.1198978
	c0,0.7635956,0.6192131,1.3831921,1.3823624,1.3831921c0.7640419,0,1.3831902-0.6195965,1.3831902-1.3831921l0,0H53.5099792z"/>
<path id="XMLID_289_" class="st3" d="M56.2755318,26.1198978L56.2755318,26.1198978
	c0,0.7635956,0.6192131,1.3831921,1.3823624,1.3831921c0.7640419,0,1.383255-0.6195965,1.383255-1.3831921l0,0H56.2755318z"/>
<polygon id="XMLID_286_" class="st5" points="5.1979208,23.2959538 4.7452073,24.1628799 4.738833,24.1692543 3.7254236,26.1198349 
	0.95885,26.1198349 2.5141513,23.8824043 2.5141513,23.87603 2.9158688,23.2959538 "/>
<polygon id="XMLID_283_" class="st5" points="6.4909134,26.1198978 7.4570885,23.2969742 9.8580875,23.2969742 
	9.2562761,26.1198978 "/>
<polygon id="XMLID_280_" class="st5" points="12.0220203,26.1198978 14.7878294,26.1198978 14.5697594,23.2969742 
	12.3146715,23.2969742 "/>
<polygon id="XMLID_277_" class="st5" points="17.5538292,26.1198978 17.370182,23.2969742 19.9531078,23.2969742 
	20.3200207,26.1198978 "/>
<polygon id="XMLID_274_" class="st5" points="23.0855732,26.1198978 22.6953297,23.2969742 25.4606285,23.2969742 
	25.8513832,26.1198978 "/>
<polygon id="XMLID_271_" class="st5" points="28.6169357,26.1198978 28.2194252,23.2969742 30.7922153,23.2969742 
	31.3824902,26.1198978 "/>
<polygon id="XMLID_268_" class="st5" points="33.494091,23.2969742 35.9678192,23.2969742 36.9144897,26.1198978 
	34.1481056,26.1198978 "/>
<polygon id="XMLID_265_" class="st5" points="39.6813164,26.1198978 42.4460449,26.1198978 41.315918,23.2969742 
	38.5962601,23.2969742 "/>
<polygon id="XMLID_262_" class="st5" points="45.2124252,26.1198978 47.9779778,26.1198978 47.0156288,23.2969742 
	44.332943,23.2969742 "/>
<polygon id="XMLID_259_" class="st5" points="50.7444267,26.1198978 53.5099792,26.1198978 52.5807762,23.2969742 
	49.8160515,23.2969742 "/>
<polygon id="XMLID_256_" class="st5" points="56.2755318,26.1198978 59.0411491,26.1198978 57.0884018,23.2969742 
	54.8923416,23.2969742 "/>
<rect id="XMLID_253_" x="4.8079319" y="30.5051994" class="st6" width="29.8659363" height="19.7479725"/>
<rect id="XMLID_250_" x="5.0911484" y="30.8666306" class="st5" width="29.0569592" height="19.0612526"/>
<rect id="XMLID_181_" x="38.7920647" y="33.3812218" class="st7" width="12.0593691" height="21.6228886"/>
<g id="XMLID_121_">
	<g id="XMLID_125_">
		<rect id="XMLID_144_" x="40.8734512" y="34.6357117" class="st8" width="8.1760569" height="18.8060207"/>
		<rect id="XMLID_141_" x="41.7109261" y="35.8430977" class="st5" width="2.6954985" height="4.8898382"/>
		<rect id="XMLID_138_" x="45.3734283" y="35.8430977" class="st5" width="2.6950524" height="4.8898382"/>
		<rect id="XMLID_135_" x="41.7109261" y="41.5934219" class="st5" width="2.6954985" height="4.8906665"/>
		<rect id="XMLID_132_" x="45.3734283" y="41.5934219" class="st5" width="2.6950524" height="4.8906665"/>
		<rect id="XMLID_129_" x="41.7109261" y="47.3440628" class="st5" width="2.6954985" height="4.8911767"/>
		<rect id="XMLID_126_" x="45.3734283" y="47.3440628" class="st5" width="2.6950524" height="4.8911767"/>
	</g>
	<g id="XMLID_122_">
		<circle id="XMLID_124_" class="st9" cx="41.5287437" cy="44.168251" r="0.3652558"/>
		<circle id="XMLID_123_" class="st3" cx="41.4338264" cy="44.0225945" r="0.3641721"/>
	</g>
</g>
<polygon id="XMLID_25_" class="st10" points="38.7920647,55.0041084 40.8734512,53.4417343 40.8734512,34.6357117 
	38.7920647,33.3812218 "/>
<polygon id="XMLID_24_" class="st10" points="50.8514366,55.0041084 48.7709427,53.4417343 48.7709427,34.6357117 
	50.8514366,33.3812218 "/>
<g id="XMLID_167_">
	<path id="XMLID_180_" class="st11" d="M12.9214315,20.0744591L12.2630177,18.08041
		c-0.1529989,0-0.3097725-0.0162888-0.4702864-0.0489025l-0.3536396,1.2415714
		c-0.0476799,0.163065-0.0714836,0.2997398-0.0714836,0.4100933c0,0.0852909,0.0288019,0.1517754,0.0865135,0.199419
		c0.0451622,0.037611,0.16677,0.0639324,0.3649673,0.0789986l-0.0263577,0.1128693h-1.5914707l0.0338717-0.1128693
		c0.1504822-0.0049992,0.2520609-0.0200653,0.304739-0.0451641c0.0827732-0.0350933,0.1429663-0.0814781,0.1805773-0.1391907
		c0.0652266-0.0952854,0.1329346-0.2633858,0.2031946-0.5041561l0.7186069-2.4794006
		c0.0476074-0.1655483,0.0714836-0.2934837,0.0714836-0.3837738c0-0.0927696-0.0382586-0.1717682-0.1147404-0.23703
		c-0.0765524-0.0651913-0.1850357-0.0965099-0.325449-0.0940647l0.037611-0.1128702h1.3394098
		c0.4464102,0,0.7687674,0.0853262,0.9669285,0.2558374c0.1981249,0.1706161,0.2972231,0.3938389,0.2972231,0.6697044
		c0,0.2633877-0.1015797,0.5048046-0.304738,0.7242527c-0.2031946,0.2195187-0.4816122,0.358099-0.8352528,0.4157734
		l0.4025784,1.2039585c0.0952873,0.2959652,0.1918678,0.4878693,0.2896719,0.5756416
		c0.0978403,0.0878086,0.2545776,0.1379681,0.4703217,0.1504822l-0.0338717,0.1128693H12.9214315z M11.8416338,17.8621845
		c0.1304169,0.0175838,0.2458038,0.0263214,0.3461609,0.0263214c0.3486061,0,0.6238956-0.0965099,0.8258314-0.2896729
		c0.2018652-0.1931267,0.3028688-0.4326744,0.3028688-0.7186432c0-0.2257385-0.0633564-0.3981552-0.1899986-0.5173168
		c-0.1266775-0.119091-0.3166761-0.178709-0.5699949-0.178709c-0.0627098,0-0.1391907,0.00881-0.229516,0.0263577
		L11.8416338,17.8621845z"/>
	<path id="XMLID_178_" class="st11" d="M15.953928,15.7665567l-0.8502827,2.9421721
		c0.36619-0.5543194,0.6521225-0.9223785,0.8577976-1.10425c0.2056408-0.1818352,0.4025784-0.2727718,0.5907078-0.2727718
		c0.0978031,0,0.1787071,0.0338364,0.2426758,0.1015797c0.0639668,0.0677071,0.0959339,0.1567726,0.0959339,0.2671261
		c0,0.1329708-0.0276146,0.2947426-0.0827732,0.4853516l-0.3687077,1.2678909
		c-0.047678,0.1530342-0.0714817,0.2383251-0.0714817,0.2558365c0,0.0276508,0.0087376,0.0502319,0.0263195,0.0677433
		c0.0175114,0.0175838,0.0376472,0.0263214,0.0601921,0.0263214c0.0250626,0,0.0551586-0.0125122,0.0903263-0.037611
		c0.1153145-0.0902882,0.2294788-0.2131557,0.3423481-0.3687057l0.0940647,0.0564156
		c-0.070261,0.107872-0.1661949,0.2257404-0.2878017,0.3536777c-0.1217155,0.1279354-0.226387,0.2163181-0.3141594,0.2652569
		c-0.0878429,0.0489006-0.1655464,0.0733528-0.2332916,0.0733528c-0.075222,0-0.1367092-0.0238762-0.1843529-0.0714836
		c-0.0476789-0.0476074-0.0714827-0.1077995-0.0714827-0.1805782c0-0.0903244,0.0350943-0.2558708,0.1053553-0.4966412
		l0.3499012-1.2114754c0.0426083-0.1529617,0.0639668-0.2721252,0.0639668-0.3574505
		c0-0.0400925-0.0125847-0.0727062-0.0376472-0.097805c-0.0250988-0.0250626-0.0577106-0.0376472-0.0978031-0.0376472
		c-0.0577488,0-0.1241608,0.0225811-0.199419,0.0677433c-0.137969,0.0852909-0.2959652,0.2433243-0.474062,0.474062
		c-0.0501966,0.0627098-0.2119684,0.314806-0.4853163,0.756218c-0.0853262,0.140522-0.155551,0.2947788-0.2107096,0.4627705
		l-0.1918678,0.6208038H14.257102l0.9970245-3.4651356l0.1053553-0.3762569c0-0.0526772-0.022006-0.0990257-0.0658379-0.1391907
		c-0.0439396-0.0400925-0.0972281-0.0601921-0.1599016-0.0601921c-0.0351667,0-0.0902891,0.0062923-0.1655483,0.0188046
		l-0.0639677,0.0075169v-0.1166105L15.953928,15.7665567z"/>
	<path id="XMLID_175_" class="st11" d="M20.099987,18.2797928c0,0.3035164-0.0802574,0.6038685-0.2407703,0.9010906
		c-0.1605129,0.297224-0.3837357,0.5323849-0.6696701,0.7054462c-0.2859325,0.1730633-0.5643845,0.259613-0.8352165,0.259613
		c-0.2760067,0-0.5017109-0.088419-0.6772556-0.2652569c-0.1756153-0.1768036-0.2633877-0.4044495-0.2633877-0.6828671
		c0-0.2984447,0.0852547-0.5969257,0.2558727-0.8954449c0.1705093-0.2984447,0.3988037-0.5348282,0.6847706-0.7091846
		c0.2859325-0.1743221,0.5617981-0.2614822,0.8275948-0.2614822c0.2683849,0,0.4885883,0.0883827,0.6603203,0.2652206
		C20.0141201,17.7737656,20.099987,18.0013752,20.099987,18.2797928z M19.5996056,18.0728951
		c0-0.1881294-0.0464573-0.3323536-0.1392269-0.4326744s-0.2120056-0.1505165-0.3574162-0.1505165
		c-0.2960014,0-0.5687008,0.2125778-0.8182449,0.6377373c-0.249651,0.4251232-0.3743877,0.8484135-0.3743877,1.2697983
		c0,0.1906452,0.0489025,0.3380337,0.1467419,0.4420586c0.0977688,0.1041317,0.2194481,0.1561623,0.3648586,0.1561623
		c0.2859325,0,0.5537434-0.2112846,0.8032875-0.6339626C19.4747601,18.9388542,19.5996056,18.5093098,19.5996056,18.0728951z"/>
	<path id="XMLID_173_" class="st11" d="M21.7027473,17.331707l-0.4025059,1.3807602
		c0.3761864-0.5643501,0.6652832-0.9355373,0.8672199-1.1136341c0.2018642-0.1780968,0.3956013-0.2671261,0.5812855-0.2671261
		c0.1002483,0,0.1830215,0.0338364,0.2483215,0.1015797c0.065155,0.0677071,0.0978031,0.1542568,0.0978031,0.2595749
		c0,0.1229382-0.0289097,0.2847099-0.0865841,0.4853516l-0.3687077,1.2754421
		c-0.0426445,0.148037-0.0639324,0.2383251-0.0639324,0.2709026c0,0.0276165,0.0081272,0.050808,0.0244522,0.0696144
		c0.016325,0.0188046,0.0332241,0.0282269,0.0507717,0.0282269c0.0225811,0,0.0514183-0.0125504,0.0865841-0.0376492
		c0.1078014-0.0852184,0.2257404-0.2144489,0.3536053-0.3875103l0.0940647,0.0564156
		c-0.1880569,0.2684212-0.36619,0.4603271-0.5342541,0.5756416c-0.1178684,0.0777397-0.2232227,0.1166458-0.3159943,0.1166458
		c-0.0752945,0-0.1349106-0.0225811-0.1787071-0.067709c-0.0439396-0.0451622-0.0658741-0.1053543-0.0658741-0.1806126
		c0-0.097805,0.0338726-0.2646103,0.1016159-0.5003815l0.3536034-1.2190266
		c0.0426464-0.1504803,0.0640049-0.2683487,0.0640049-0.3536396c0-0.0400925-0.0131607-0.0727406-0.0394821-0.0978394
		c-0.026392-0.0250263-0.058321-0.037611-0.0960045-0.037611c-0.0551586,0-0.1229019,0.0238743-0.2031593,0.0714817
		c-0.1480007,0.0902901-0.3028336,0.2401962-0.4646397,0.4496117c-0.1617374,0.2094517-0.3329659,0.4759312-0.5135441,0.7994747
		c-0.0953579,0.1730976-0.1743927,0.3611908-0.23703,0.5643864l-0.1505165,0.5003815h-0.4552212l0.5530243-1.896246
		c0.0652275-0.2281837,0.0978756-0.3649292,0.0978756-0.4100933c0-0.045126-0.0182667-0.0846424-0.0545826-0.118515
		c-0.0363884-0.0338707-0.0796814-0.0507717-0.1298065-0.0507717c-0.0250988,0-0.0677433,0.0050354-0.1279354,0.0150299
		l-0.1165733,0.0150661l-0.0188427-0.109129L21.7027473,17.331707z"/>
	<path id="XMLID_170_" class="st11" d="M24.8593693,17.331707l-0.5981865,2.1257248
		c-0.0401993,0.1429653-0.0601921,0.2282562-0.0601921,0.2558365c0,0.0326118,0.0093498,0.0589695,0.0281906,0.0789986
		c0.0188408,0.0201359,0.0407753,0.0301323,0.0658741,0.0301323c0.032505,0,0.0689659-0.0162888,0.1090946-0.0489388
		c0.1153507-0.0902882,0.2319965-0.2194481,0.349865-0.3875122l0.1053543,0.0714836
		c-0.1379318,0.2082291-0.2997398,0.385067-0.4853516,0.5304775c-0.135416,0.1053562-0.2658691,0.1580334-0.3912888,0.1580334
		c-0.0827732,0-0.150444-0.0244522-0.2031574-0.0733528c-0.0526428-0.0489388-0.0789623-0.1110001-0.0789623-0.1862602
		c0-0.075222,0.0250263-0.1993828,0.075222-0.3724804l0.3950272-1.358181
		c0.0627098-0.220705,0.0940647-0.3598957,0.0940647-0.4176445c0-0.0426083-0.0156784-0.0783501-0.0470333-0.1072235
		c-0.031353-0.0288029-0.0733528-0.0432568-0.1259937-0.0432568c-0.0451622,0-0.1380043,0.0112896-0.2784538,0.0338345v-0.1166096
		L24.8593693,17.331707z M24.8217583,16.1314869c0.0852184,0,0.156702,0.0295219,0.2144489,0.088419
		c0.0576763,0.0589714,0.0865135,0.1298065,0.0865135,0.2125797c0,0.0827751-0.0294857,0.1542568-0.0883827,0.2144508
		c-0.0589714,0.0601921-0.1298065,0.0902882-0.2125797,0.0902882s-0.1542568-0.0300961-0.2144489-0.0902882
		c-0.060194-0.060194-0.0903263-0.1316757-0.0903263-0.2144508c0-0.0827732,0.0294857-0.1536083,0.0884552-0.2125797
		C24.6643372,16.1610088,24.7364674,16.1314869,24.8217583,16.1314869z"/>
	<path id="XMLID_168_" class="st11" d="M26.5261345,17.331707l-0.4025059,1.3807602
		c0.3761845-0.5643501,0.6652813-0.9355373,0.867218-1.1136341c0.2018642-0.1780968,0.3956032-0.2671261,0.5812874-0.2671261
		c0.1002483,0,0.1830215,0.0338364,0.2483196,0.1015797c0.065155,0.0677071,0.097805,0.1542568,0.097805,0.2595749
		c0,0.1229382-0.0289097,0.2847099-0.086586,0.4853516l-0.3687057,1.2754421
		c-0.0426464,0.148037-0.0639324,0.2383251-0.0639324,0.2709026c0,0.0276165,0.0081272,0.050808,0.0244503,0.0696144
		c0.016325,0.0188046,0.033226,0.0282269,0.0507717,0.0282269c0.0225811,0,0.0514202-0.0125504,0.086586-0.0376492
		c0.1077995-0.0852184,0.2257404-0.2144489,0.3536034-0.3875103l0.0940647,0.0564156
		c-0.1880569,0.2684212-0.366188,0.4603271-0.5342541,0.5756416c-0.1178665,0.0777397-0.2232227,0.1166458-0.3159924,0.1166458
		c-0.0752945,0-0.1349125-0.0225811-0.1787071-0.067709c-0.0439396-0.0451622-0.0658741-0.1053543-0.0658741-0.1806126
		c0-0.097805,0.0338707-0.2646103,0.1016159-0.5003815l0.3536034-1.2190266
		c0.0426464-0.1504803,0.0640049-0.2683487,0.0640049-0.3536396c0-0.0400925-0.0131607-0.0727406-0.0394821-0.0978394
		c-0.026392-0.0250263-0.0583229-0.037611-0.0960064-0.037611c-0.0551586,0-0.1229019,0.0238743-0.2031574,0.0714817
		c-0.1480007,0.0902901-0.3028336,0.2401962-0.4646416,0.4496117c-0.1617355,0.2094517-0.3329639,0.4759312-0.5135422,0.7994747
		c-0.0953579,0.1730976-0.1743927,0.3611908-0.23703,0.5643864l-0.1505184,0.5003815h-0.4552193l0.5530243-1.896246
		c0.0652256-0.2281837,0.0978756-0.3649292,0.0978756-0.4100933c0-0.045126-0.0182667-0.0846424-0.0545845-0.118515
		c-0.0363884-0.0338707-0.0796814-0.0507717-0.1298046-0.0507717c-0.0250988,0-0.0677433,0.0050354-0.1279373,0.0150299
		l-0.1165733,0.0150661l-0.0188408-0.109129L26.5261345,17.331707z"/>
</g>
<g id="XMLID_2_">
</g>
<g id="XMLID_3_">
</g>
<g id="XMLID_4_">
</g>
<g id="XMLID_5_">
</g>
<g id="XMLID_6_">
</g>
<g id="XMLID_7_">
</g>
</svg>
