<?xml version="1.0" encoding="utf-8"?>
<!-- Generator: Adobe Illustrator 19.0.0, SVG Export Plug-In . SVG Version: 6.00 Build 0)  -->
<svg version="1.1" id="图层_1" xmlns="http://www.w3.org/2000/svg" xmlns:xlink="http://www.w3.org/1999/xlink" x="0px" y="0px"
	 viewBox="0 0 60 60" style="enable-background:new 0 0 60 60;" xml:space="preserve">
<style type="text/css">
	.st0{fill:#E5BE96;}
	.st1{fill:#D5AC81;}
	.st2{fill:#B7936D;}
	.st3{fill:#6C472E;}
	.st4{fill:#4F3322;}
	.st5{fill:#EDDCCC;}
	.st6{fill:#E3BDD6;}
	.st7{fill:#58B7C1;}
	.st8{fill:#D197BD;}
	.st9{fill:#1F92A1;}
</style>
<g id="XMLID_206_">
	<rect id="XMLID_49_" x="18.4225235" y="41.1235046" class="st0" width="3.8758171" height="15.262166"/>
	<rect id="XMLID_48_" x="21.2225266" y="41.1235046" class="st1" width="1.0758134" height="15.262166"/>
	<g id="XMLID_207_">
		<path id="XMLID_47_" class="st0" d="M18.1197281,56.6236572c0.4262753-1.0834122,1.5472069-1.9008751,2.6087952-1.9008751
			c1.1268826,0,2.0267887,0.6674767,2.1604977,1.5559769c0,0,0.2104053,0.7971916,0.0721188,1.6805305
			c0,0-0.0496101,0.5368843-0.6024723,0.5321045c0,0-0.575285,0-0.5823975-0.517971c0,0,0.014225-0.9861565-0.861021-1.2335014
			c-0.0476551-0.0130577-0.1099281-0.0242653-0.1867256-0.0242653c-0.1986122,0-0.6160164,0.2850571-0.7542076,0.6372681
			c-0.1818581,0.462616-0.1234798,1.2138062,0.0458031,1.5262527l0.596426,1.0970573
			c0.2628422,0.4830894,0.0837154,1.0882874-0.3998623,1.3510284c-0.150856,0.0822525-0.3142891,0.1211395-0.4748955,0.1211395
			c-0.3531818,0-0.6957417-0.1881866-0.8767147-0.5206108l-0.5964336-1.0989113
			C17.8026066,58.9696121,17.7392654,57.5912933,18.1197281,56.6236572z"/>
	</g>
</g>
<g id="XMLID_201_">
	<rect id="XMLID_46_" x="37.7420692" y="41.1235046" class="st1" width="3.8760133" height="15.262166"/>
	<rect id="XMLID_45_" x="37.7420692" y="41.1235046" class="st2" width="1.0759151" height="15.262166"/>
	<g id="XMLID_202_">
		<path id="XMLID_44_" class="st1" d="M41.9207726,56.6236572c-0.4261703-1.0834122-1.5472069-1.9008751-2.6087914-1.9008751
			c-1.1268845,0-2.026886,0.6674767-2.1604996,1.5559769c0,0-0.2105064,0.7971916-0.0721169,1.6805305
			c0,0,0.0497017,0.5368843,0.602375,0.5321045c0,0,0.5752792,0,0.5824928-0.517971c0,0-0.014225-0.9861565,0.8609276-1.2335014
			c0.0476532-0.0130577,0.1099281-0.0242653,0.186821-0.0242653c0.1985168,0,0.615921,0.2850571,0.7541122,0.6372681
			c0.1819534,0.462616,0.1235733,1.2138062-0.0457077,1.5262527l-0.5964279,1.0970573
			c-0.2627411,0.4830894-0.0837135,1.0882874,0.3998642,1.3510284c0.1507607,0.0822525,0.3142891,0.1211395,0.4748001,0.1211395
			c0.3532753,0,0.6957359-0.1881866,0.8767128-0.5206108l0.5964279-1.0989113
			C42.237896,58.9696121,42.3011436,57.5912933,41.9207726,56.6236572z"/>
	</g>
</g>
<g id="XMLID_180_">
	<path id="XMLID_43_" class="st3" d="M30.1577606,9.4976368l-0.0080872-2.3735356
		c-6.5132675,0-7.7637157,6.859036-6.1152554,13.1027374c0.8074207,3.0580635-1.5998325,5.1952724-1.5998325,5.1952724
		l0.5834656-0.2474422l0.2179108,1.4606667c0,0,6.1817226-1.8544846,6.1817226-1.970459
		c0-0.1158714,1.1591358-13.8703957,1.1591358-13.8703957L30.1577606,9.4976368z"/>
	<path id="XMLID_42_" class="st4" d="M30.0152817,9.4976368l0.0081882-2.3735356
		c6.5131664,0,7.7637157,6.859036,6.1151562,13.1027374c-0.8074226,3.0580635,1.5998306,5.1952724,1.5998306,5.1952724
		l-0.5833702-0.2474422l-0.2179108,1.4606667c0,0-6.1819115-1.8544846-6.1819115-1.970459
		c0-0.1158714-1.1590424-13.8703957-1.1590424-13.8703957L30.0152817,9.4976368z"/>
	<g id="XMLID_197_">
		<polygon id="XMLID_41_" class="st1" points="34.8482132,25.3264084 30.0325298,31.8728065 30.0263901,31.8820667 
			30.0202522,31.8820667 30.0202522,31.8728065 30.0263901,25.5087509 30.0263901,18.9622517 32.4372559,19.4449501 
			32.4372559,22.5141258 34.2052917,23.4842033 		"/>
	</g>
	<path id="XMLID_40_" class="st5" d="M32.4372559,19.4449501v1.007597c-0.5902958,0.7449512-1.3815365,1.0565186-2.404726,1.038002
		h-0.0061398v-2.5282974L32.4372559,19.4449501z"/>
	<g id="XMLID_194_">
		<polygon id="XMLID_39_" class="st0" points="30.0325298,31.8728065 30.0325298,31.8820667 30.0263901,31.8820667 
			30.0202522,31.8728065 25.20467,25.3264084 25.8475819,23.4842033 27.6155262,22.5141258 27.6155262,19.4449501 
			30.0263901,18.9622517 30.0263901,25.5087509 		"/>
	</g>
	<path id="XMLID_38_" class="st5" d="M30.0263901,18.9622517v2.5282974h-0.0061378
		c-1.0230942,0.0185165-1.8143349-0.2930508-2.404726-1.038002v-1.007597L30.0263901,18.9622517z"/>
	<g id="XMLID_185_">
		<g id="XMLID_186_">
			<g id="XMLID_190_">
				<g id="XMLID_191_">
					<path id="XMLID_37_" class="st0" d="M30.0217113,9.5197601l-0.0082817,11.5895405
						c-2.2673111,0.0459995-3.5384235-2.0990028-4.0285339-4.366312c0,0,0,0,0-0.0076981
						c-0.0459995-0.2068024-0.0842953-0.4059048-0.1147976-0.6128025c-0.0920029-0.5438032-0.1303005-1.0723066-0.1303005-1.5779066
						c0-0.5362015,0.0535984-1.0571032,0.1761036-1.539607c0.0459995-0.2298012,0.1072998-0.4442043,0.1839943-0.6587038
						c0.0535049-0.1609011,0.1225071-0.3217993,0.1990051-0.4673986
						C26.9501038,10.4619627,28.2139091,9.5197601,30.0217113,9.5197601z"/>
				</g>
			</g>
			<g id="XMLID_187_">
				<g id="XMLID_188_">
					<path id="XMLID_36_" class="st1" d="M34.303627,14.5445814c0,0.4826002-0.0382996,0.9958019-0.114994,1.5166082
						c-0.030407,0.199295-0.0688057,0.3983974-0.1071091,0.5974998c-0.0536919,0.2451-0.1148987,0.4902039-0.1838951,0.7277031
						c-0.0153999,0.0382996-0.0230026,0.0842972-0.0383034,0.1225986c-0.1379013,0.4672031-0.3139992,0.9192028-0.5362015,1.3328056
						c-0.6969032,1.3328056-1.7776871,2.2981052-3.3096943,2.2675037l0.0082817-11.5895405
						c0.6895008,0,1.2944069,0.1378994,1.8231049,0.3830004c0.8578091,0.4059048,1.5013103,1.1030045,1.9071178,1.9915104
						c0.0078888,0.0076017,0.0078888,0.0229998,0.0153008,0.0306015c0.0843964,0.1762962,0.1533928,0.3523989,0.2221985,0.5439005
						v0.0076017c0.0077019,0.0153971,0.0077019,0.0383968,0.0153961,0.0536985
						c0.0536995,0.1531992,0.0919952,0.3063021,0.1301041,0.4672031c0.0383987,0.1609945,0.0690002,0.3293991,0.0919952,0.4979
						C34.280632,13.8322754,34.303627,14.1845789,34.303627,14.5445814z"/>
				</g>
			</g>
		</g>
	</g>
	<path id="XMLID_35_" class="st4" d="M31.8572922,9.7384501c0,0,0.8628731,3.0264912,2.7560539,6.3105555l0.9010735-3.5930967
		l-2.1760902-2.9361486L31.8572922,9.7384501z"/>
	<g id="XMLID_181_">
		<path id="XMLID_34_" class="st3" d="M28.4271412,8.9499359l-3.4471092,2.2179966l-1.3650665,4.4046125l1.4166222,4.654294
			c-0.6439877-3.1345692,1.5284977-4.654294,1.5284977-4.654294c1.405899-0.7709732,2.5746822-1.9189053,3.4533443-2.9808817
			V8.8619328L28.4271412,8.9499359z"/>
		<path id="XMLID_33_" class="st4" d="M32.7073021,8.8619328h-2.6938725v3.7297306
			c1.1761951-1.4216843,1.9727039-2.8145218,1.9727039-2.8145218L32.7073021,8.8619328z"/>
	</g>
</g>
<circle id="XMLID_32_" class="st6" cx="20.1045151" cy="29.8338375" r="3.2457643"/>
<polygon id="XMLID_31_" class="st6" points="18.5816708,26.9678574 26.5599842,23.0933075 26.5599842,53.0435219 
	22.2983418,53.113884 25.6273327,46.0178375 22.2983418,34.8647957 "/>
<polygon id="XMLID_30_" class="st6" points="16.8587513,29.8338375 16.8587513,40.0269356 22.2983418,40.0269356 
	22.2983418,30.879734 "/>
<path id="XMLID_27_" class="st7" d="M22.5208359,62.1841049h-2.776907v-5.1876221c0,0-0.3951836-2.564949,2.5544128-3.8825989
	h7.7200565v9.0702209H22.5208359z"/>
<rect id="XMLID_26_" x="16.8587513" y="40.0269356" class="st8" width="4.3637762" height="1.0965713"/>
<rect id="XMLID_25_" x="21.2225266" y="40.0269356" class="st8" width="1.0758134" height="1.0965713"/>
<polygon id="XMLID_24_" class="st7" points="30.0183983,52.3551903 22.4635315,52.3551903 22.2983418,53.1137886 
	30.0183983,53.1137886 "/>
<circle id="XMLID_23_" class="st8" cx="39.9323845" cy="29.8338375" r="3.2457643"/>
<polygon id="XMLID_22_" class="st8" points="41.4552307,26.9678574 33.4769135,23.0845356 33.4769135,53.0435219 
	37.7384567,53.113884 33.685955,46.0178375 37.7384567,34.8647957 "/>
<polygon id="XMLID_21_" class="st8" points="43.1781464,29.8338375 43.1781464,40.0269356 37.7384567,40.0269356 
	37.7384567,30.879734 "/>
<path id="XMLID_18_" class="st9" d="M37.5160637,62.3165894h2.7769051v-5.2633972c0,0,0.3951836-2.6024132-2.554512-3.9393082
	h-7.7200584v9.2027054H37.5160637z"/>
<rect id="XMLID_17_" x="38.814373" y="40.0269356" class="st6" width="4.3637762" height="1.0965713"/>
<rect id="XMLID_16_" x="37.7384567" y="40.0269356" class="st6" width="1.0759151" height="1.0965713"/>
<polygon id="XMLID_15_" class="st9" points="30.0183983,52.3551903 37.5731697,52.3551903 37.7384567,53.1137886 
	30.0183983,53.1137886 "/>
<path id="XMLID_14_" class="st6" d="M22.2983418,34.8647957c0,0,3.5858879,10.8846436,0.1651897,17.4903946h7.5548668V34.1074677
	l-4.0962639-10.1442719l-6.8814507,8.1455498L22.2983418,34.8647957z"/>
<path id="XMLID_13_" class="st8" d="M37.738945,34.8647957c0,0-3.5857887,10.8846436-0.165184,17.4903946h-7.5548763V34.1074677
	l4.0962658-10.1442719l6.881546,8.1455498L37.738945,34.8647957z"/>
<g id="XMLID_1_">
</g>
<g id="XMLID_2_">
</g>
<g id="XMLID_3_">
</g>
<g id="XMLID_4_">
</g>
<g id="XMLID_5_">
</g>
<g id="XMLID_6_">
</g>
</svg>
