<?xml version="1.0" encoding="utf-8"?>
<!-- Generator: Adobe Illustrator 19.0.0, SVG Export Plug-In . SVG Version: 6.00 Build 0)  -->
<svg version="1.1" id="图层_1" xmlns="http://www.w3.org/2000/svg" xmlns:xlink="http://www.w3.org/1999/xlink" x="0px" y="0px"
	 viewBox="0 0 60 60" style="enable-background:new 0 0 60 60;" xml:space="preserve">
<style type="text/css">
	.st0{fill:#D0E7EF;}
	.st1{fill:#EDB0E7;}
</style>
<g id="XMLID_592_">
</g>
<g id="XMLID_595_">
</g>
<g id="XMLID_596_">
</g>
<g id="XMLID_597_">
</g>
<g id="XMLID_598_">
</g>
<g>
	<rect x="21.1" y="18.9" class="st0" width="16.4" height="0.8"/>
	<rect x="20.8" y="22.5" class="st0" width="16.9" height="0.8"/>
	<rect x="20.2" y="26" class="st0" width="16.7" height="0.8"/>
</g>
<g>
	<rect x="22" y="35" class="st1" width="16.4" height="0.8"/>
	<rect x="21.8" y="38.6" class="st1" width="16.9" height="0.8"/>
	<rect x="21.2" y="42.2" class="st1" width="16.7" height="0.8"/>
</g>
<path class="st0" d="M33.6,31.4l-4.1,2.1L28,32.8c-0.2-0.1-0.3-0.1-0.5-0.2l-2.2-1.1l-5.7-3c-5.4-2.9-5.5-7.5-0.1-10.4l7.8-4.1
	c0.6-0.3,1.3-0.4,2.1-0.4c0.7,0,1.4,0.2,2,0.4c1.1,0.6,1.1,1.5,0,2.1l-2,1l-3,1.6l-0.9,0.5l-1.9,1c-0.3,0.2-0.6,0.4-0.9,0.5
	c-0.2,0.1-0.4,0.3-0.6,0.5c-0.5,0.5-0.8,1-0.9,1.6c0,0.2,0,0.3,0,0.5c0,0.5,0.2,1.1,0.6,1.6c0.1,0.2,0.3,0.3,0.4,0.5
	c0.4,0.4,0.9,0.7,1.4,1l1,0.5l0.9,0.5l2,1.1c0.2,0.1,0.3,0.1,0.5,0.2l1.3,0.7L33.6,31.4z"/>
<path class="st1" d="M39.3,28.4l-5.7,3h0l-2.1,1.1c0,0,0,0,0,0l-1.9,1l-0.2,0.1c-0.1,0.1-0.3,0.1-0.5,0.2l-2.5,1.3l-0.9,0.5L24.8,36
	c-0.7,0.4-1.3,0.8-1.7,1.3c-0.1,0.1-0.2,0.3-0.3,0.5c-0.3,0.5-0.4,1-0.4,1.6c0,0.2,0.1,0.3,0.1,0.5c0.2,0.6,0.5,1.1,1.1,1.6
	c0.2,0.2,0.4,0.3,0.6,0.5c0.1,0.1,0.3,0.2,0.5,0.3l2.5,1.3l0.9,0.5l2.3,1.2l2.2,1.1c0.9,0.5,1.1,1.1,0.6,1.7
	c-0.1,0.2-0.3,0.3-0.6,0.5c-0.3,0.1-0.6,0.2-0.9,0.3c-1.1,0.2-2.3,0.1-3.2-0.3l-1.9-1l-5.9-3.1c-0.2-0.1-0.4-0.2-0.6-0.4
	c-1.4-0.9-2.4-1.9-3-3c-1.2-2.4,0-5.1,3.7-7.1l4.6-2.4l3.2-1.7c0,0,0,0,0.1,0l0.8-0.4l1.3-0.7c0.1-0.1,0.4-0.2,0.5-0.2l2-1.1
	l0.9-0.5l1-0.5c0.6-0.3,1.1-0.7,1.4-1c0.2-0.2,0.3-0.3,0.4-0.5c0.4-0.5,0.6-1,0.6-1.6c0-0.2,0-0.3,0-0.5c-0.1-0.5-0.4-1.1-0.9-1.6
	c-0.2-0.2-0.3-0.3-0.5-0.5c-0.3-0.2-0.5-0.4-0.9-0.5l-1.9-1l-0.9-0.5l-3-1.6l-2-1c-1.1-0.6-1.1-1.6,0-2.1c0.5-0.3,1.3-0.4,2-0.4
	c0.8,0,1.5,0.1,2.1,0.4l7.8,4.1c0.3,0.1,0.5,0.3,0.7,0.4c1.3,0.8,2.3,1.8,2.8,2.8C44.1,23.8,42.9,26.5,39.3,28.4z"/>
<path class="st0" d="M39.1,34.3l-5.5-2.9l-4.1,2.2l1.1,0.6c0.1,0.1,0.3,0.1,0.5,0.2l3.9,2.1c3.2,1.7,3.2,4.4,0.1,6.1l-7.8,4.1
	c-1.1,0.6-1.1,1.5,0,2.1c1.1,0.6,2.9,0.6,4.1,0l7.8-4.1C44.5,41.8,44.5,37.2,39.1,34.3z"/>
</svg>
