<?xml version="1.0" encoding="utf-8"?>
<!-- Generator: Adobe Illustrator 19.0.0, SVG Export Plug-In . SVG Version: 6.00 Build 0)  -->
<svg version="1.1" id="图层_1" xmlns="http://www.w3.org/2000/svg" xmlns:xlink="http://www.w3.org/1999/xlink" x="0px" y="0px"
	 viewBox="-119 121 60 60" style="enable-background:new -119 121 60 60;" xml:space="preserve">
<style type="text/css">
	.st0{fill:#002D4D;}
	.st1{fill:#696B6B;}
	.st2{fill:#56ADEF;}
	.st3{fill:#9FD5F7;}
</style>
<g id="XMLID_592_">
</g>
<g id="XMLID_595_">
</g>
<g id="XMLID_596_">
</g>
<g id="XMLID_597_">
</g>
<g id="XMLID_598_">
</g>
<g id="XMLID_6_">
</g>
<path class="st0" d="M-111.9,157.6"/>
<path class="st1" d="M-108.4,155.4c0.3,0.4,0.5,0.8,0.8,1.2c0.2,0.3,0.6,0.5,0.8,0.7c0.4-0.2,0.8-0.3,1.2-0.5
	c2.2-1.2,5.1-1.9,7.2-3.3c1.3-0.9,1.7-1.4,2.9-2.5c-0.1,3.8-0.6,6.2-1.3,10c-0.5,2.9-0.9,5.7-1.4,8.6c0.5,0.3,0.9,0.5,1.4,0.8
	c0.6,4,0.1,7.9-0.3,11.9c-0.1,0.9,0.1,2.3,0.1,3.2c0.2,1.8,0.2,7.6,0,9.4c-0.2,2-0.3,2.5-0.9,4.5c0.2,0.2,0.6,0.3,0.5,0.6
	c-0.3,0.6-1,0.8-1.4,1.2c-0.6,0.7-2.9,1.1-3.5,2c-0.1,0.2-0.1,0.6,0.1,0.7c0.9,0.7,3.4,0.5,4.4,0.3c0.8-0.2,1.3-0.6,2.1-0.9
	c0.4-0.2,0.8-0.3,1.2-0.3c0.2,0,0.1,0.5,0.2,0.5c1.1,0.2,1.8,0,2.8-0.4c0-0.2,0-1.2,0.1-1.4c0.2-0.8,0.1-0.4,0.3-0.5
	c0.6-2.1,0.3-2.1,0.6-4c1.1-4.1,1.5-13.7,1.8-19.1c0.2,1.5,0.3,3,0.7,4.5c0.1,0.6,0.6,1,0.7,1.6c0.1,0.3-0.1,0.7-0.1,1.1
	c0.2,1.5,0.5,3.8,0.8,5.4c0.2,1.3,0.4,5,0.6,6.4c0.1,1.5-0.1,2.7,0.6,4.2c-0.1,1.5-3.5,3.1-4.3,3.8c-0.2,0.2-0.2,0.9,0.1,1
	c0.7,0.3,1.6,0.3,2.3,0.3c2.6,0.1,3.4-1,5.3-2c0.2-0.1,0.5,0.4,0.7,0.3c0.5-0.2,1.2-0.6,1.7-0.8c0.3-0.9-0.1-1.7-0.2-2.6
	c0-0.2,0.7-0.1,0.7-0.3c0.1-0.8-0.3-1.9-0.2-2.8c0.3-3.8,0-10.7-0.4-14.5c-0.4-3.9-0.7-7.7-0.8-11.6c0.5-0.3,0.8-0.3,1.2-0.6
	c0.2-0.2,0.4-0.6,0.5-0.9c0.3,0,0.6,0.1,0.9,0.1c0.2,0,0.4,0,0.6,0.1c0.6-3.6,1.2-7.1,1.8-10.7c0.2-1.1,0.4-2.1,0.6-3.2
	c0.2-2.3,0.3-4.6,0.5-6.8c0.3-3.5,0.6-6.7-0.6-10.1c-0.9-2.5-4.4-3.1-6.6-3.7c-0.5-0.7-1.2-1.1-1.8-1.7c-0.2-0.2-0.1,0-0.4,0
	c0-0.3-0.1-1.2,0-1.5c0.2-0.6,0.9-0.9,1-1.6c0.1-0.9,0.2-1.8,0.2-2.7c-0.1-2.1-1-4.2-3.2-4.6c-0.7-0.1-1.5,0-2.3,0.1
	c-1,0.1-3.4,0.9-3.6,2.1c-0.4,0.5,0,0.9,0,1.3l0,0c0,0.6-0.2,1.2-0.3,1.9c0,0.2-0.1,0.4-0.1,0.7c0,0.2,0.2,0.5,0.2,0.7
	c0,0.3-0.2,0.5-0.2,0.8c0,0.6,0.3,1,0.4,1.5c0,0.2,0,0.5,0.1,0.7c0,0.2,0.2,0.3,0.2,0.5c0,0.3-0.1,0.5,0,0.8c0,0.2,0.2,0.3,0.3,0.4
	c0.5,0.3,1,0.3,1.6,0.3c0.3,0.4,0.5,0.8,0.5,1.3c-0.3,0.1-0.5,0.3-0.8,0.4c-1,0.3-3.1,0.6-4,1.1c-0.6,0.4-0.9,0.8-1.4,1.4
	c-0.8,1-1.5,2.1-2.2,3.1c-0.6,0.8-1.1,1.7-1.7,2.5c-0.6,0.9-1.1,1.9-1.9,2.6c-0.3,0.3-0.7,0.1-1.1,0.3c-2.2,0.9-4.3,1.7-6.4,2.6
	c-0.1,0-0.1,0.3-0.2,0.3c-0.3,0-0.6-0.2-0.9-0.3c-0.5-0.2-0.9-0.5-1.4-0.6c-0.3,0-0.6,0.1-0.8,0.3c-0.5,0.3-0.9,0.5-1.2,0.9
	c-0.1,0.1-0.2,0.5,0,0.5c0.5,0,0.9-0.5,1.3-0.6c0.2,0,0.6,0,0.5,0.2c-0.2,0.3-0.6,0.4-0.9,0.6c-0.4,0.4-0.9,0.7-1.2,1.2
	c-0.2,0.3-0.4,0.7-0.6,1c-0.1,0.3-0.3,0.5-0.3,0.8c0,0.2,0,0.5,0.2,0.6c0.2,0.1,0.4-0.3,0.6-0.3c0.2,0.1,0,0.4,0.1,0.5
	c0.1,0.2,0.3,0.3,0.4,0.5s0.1,0.4,0.3,0.5"/>
<path class="st2" d="M-89.3,161.5l7.3-0.4c-0.1,0.7,0,1.4-0.3,2c-0.4,0.7-0.5,1.9-0.5,2.5c0,0.7-0.7,1.3-1,2
	c-0.1,0.2-0.1,0.3-0.3,0.5c0.1,0.1,0.2,0.2,0.3,0.3c-0.3,0.2-2.1,1.4-2.2,1.5c-0.2,0.5,0.6,0.7,1,0.6c0.6-0.2,1-0.6,1.5-0.9
	c0.3-0.2,0.2,0.8-0.1,1l-0.7,0.5l-4.5,0.3L-89.3,161.5L-89.3,161.5z"/>
<path class="st3" d="M-88.9,137.3c-0.4,2.6-0.6,5.7-0.4,8.3c0.3-1.6,0.7-3.9,1-5.5c-0.1-0.4-0.2-0.7-0.3-1.1c0-0.2,0.1-0.5,0.3-0.7
	c0.4,0,0.4,0,0.6,0c0.3,0,0.8,0.5,0.8,1c-0.2,0.2-0.2,0.4-0.4,0.6c0,2.1,0,4.5,0,6.7c1-3.5,2.4-7.4,3.4-10.9c-1,1.2-2.5,2-4.3,2.6
	C-88.6,137.9-88.6,137.7-88.9,137.3L-88.9,137.3z"/>
</svg>
