<?xml version="1.0" encoding="utf-8"?>
<!-- Generator: Adobe Illustrator 19.0.0, SVG Export Plug-In . SVG Version: 6.00 Build 0)  -->
<svg version="1.1" id="图层_1" xmlns="http://www.w3.org/2000/svg" xmlns:xlink="http://www.w3.org/1999/xlink" x="0px" y="0px"
	 viewBox="-119 121 60 60" style="enable-background:new -119 121 60 60;" xml:space="preserve">
<style type="text/css">
	.st0{fill:#E5BE96;}
	.st1{fill:#D5AC81;}
	.st2{fill:#B7936D;}
	.st3{fill:#6C472E;}
	.st4{fill:#4F3322;}
	.st5{fill:#EDDCCC;}
	.st6{fill:#9FD5F7;}
	.st7{fill:#F9F9F9;}
	.st8{fill:#56ADEF;}
	.st9{fill:#58B7C1;}
	.st10{fill:#E2E2DE;}
	.st11{fill:#1F92A1;}
</style>
<g id="XMLID_592_">
</g>
<g id="XMLID_595_">
</g>
<g id="XMLID_596_">
</g>
<g id="XMLID_597_">
</g>
<g id="XMLID_598_">
</g>
<g id="XMLID_206_">
	<rect id="XMLID_49_" x="-102.1" y="157.4" class="st0" width="3.9" height="15.3"/>
	<rect id="XMLID_48_" x="-99.3" y="157.4" class="st1" width="1.1" height="15.3"/>
	<g id="XMLID_207_">
		<path id="XMLID_47_" class="st0" d="M-102.4,172.9c0.4-1.1,1.5-1.9,2.6-1.9c1.1,0,2,0.7,2.2,1.6c0,0,0.2,0.8,0.1,1.7
			c0,0,0,0.5-0.6,0.5c0,0-0.6,0-0.6-0.5c0,0,0-1-0.9-1.2c0,0-0.1,0-0.2,0c-0.2,0-0.6,0.3-0.8,0.6c-0.2,0.5-0.1,1.2,0,1.5l0.6,1.1
			c0.3,0.5,0.1,1.1-0.4,1.4c-0.2,0.1-0.3,0.1-0.5,0.1c-0.4,0-0.7-0.2-0.9-0.5l-0.6-1.1C-102.7,175.2-102.7,173.9-102.4,172.9z"/>
	</g>
</g>
<g id="XMLID_201_">
	<rect id="XMLID_46_" x="-82.7" y="157.4" class="st1" width="3.9" height="15.3"/>
	<rect id="XMLID_45_" x="-82.7" y="157.4" class="st2" width="1.1" height="15.3"/>
	<g id="XMLID_202_">
		<path id="XMLID_44_" class="st1" d="M-78.6,172.9c-0.4-1.1-1.5-1.9-2.6-1.9c-1.1,0-2,0.7-2.2,1.6c0,0-0.2,0.8-0.1,1.7
			c0,0,0,0.5,0.6,0.5c0,0,0.6,0,0.6-0.5c0,0,0-1,0.9-1.2c0,0,0.1,0,0.2,0c0.2,0,0.6,0.3,0.8,0.6c0.2,0.5,0.1,1.2,0,1.5l-0.6,1.1
			c-0.3,0.5-0.1,1.1,0.4,1.4c0.2,0.1,0.3,0.1,0.5,0.1c0.4,0,0.7-0.2,0.9-0.5l0.6-1.1C-78.2,175.2-78.2,173.9-78.6,172.9z"/>
	</g>
</g>
<g id="XMLID_180_">
	<path id="XMLID_43_" class="st3" d="M-90.3,125.8l0-2.4c-6.5,0-7.8,6.9-6.1,13.1c0.8,3.1-1.6,5.2-1.6,5.2l0.6-0.2l0.2,1.5
		c0,0,6.2-1.9,6.2-2c0-0.1,1.2-13.9,1.2-13.9L-90.3,125.8z"/>
	<path id="XMLID_42_" class="st4" d="M-90.5,125.8l0-2.4c6.5,0,7.8,6.9,6.1,13.1c-0.8,3.1,1.6,5.2,1.6,5.2l-0.6-0.2l-0.2,1.5
		c0,0-6.2-1.9-6.2-2c0-0.1-1.2-13.9-1.2-13.9L-90.5,125.8z"/>
	<g id="XMLID_197_">
		<polygon id="XMLID_41_" class="st1" points="-85.6,141.6 -90.5,148.2 -90.5,148.2 -90.5,148.2 -90.5,148.2 -90.5,141.8 
			-90.5,135.2 -88,135.7 -88,138.8 -86.3,139.8 		"/>
	</g>
	<path id="XMLID_40_" class="st5" d="M-88,135.7v1c-0.6,0.7-1.4,1.1-2.4,1h0v-2.5L-88,135.7z"/>
	<g id="XMLID_194_">
		<polygon id="XMLID_39_" class="st0" points="-90.5,148.2 -90.5,148.2 -90.5,148.2 -90.5,148.2 -95.3,141.6 -94.6,139.8 
			-92.9,138.8 -92.9,135.7 -90.5,135.2 -90.5,141.8 		"/>
	</g>
	<path id="XMLID_38_" class="st5" d="M-90.5,135.2v2.5h0c-1,0-1.8-0.3-2.4-1v-1L-90.5,135.2z"/>
	<g id="XMLID_185_">
		<g id="XMLID_186_">
			<g id="XMLID_190_">
				<g id="XMLID_191_">
					<path id="XMLID_37_" class="st0" d="M-90.5,125.8l0,11.6c-2.3,0-3.5-2.1-4-4.4c0,0,0,0,0,0c0-0.2-0.1-0.4-0.1-0.6
						c-0.1-0.5-0.1-1.1-0.1-1.6c0-0.5,0.1-1.1,0.2-1.5c0-0.2,0.1-0.4,0.2-0.7c0.1-0.2,0.1-0.3,0.2-0.5
						C-93.5,126.7-92.3,125.8-90.5,125.8z"/>
				</g>
			</g>
			<g id="XMLID_187_">
				<g id="XMLID_188_">
					<path id="XMLID_36_" class="st1" d="M-86.2,130.8c0,0.5,0,1-0.1,1.5c0,0.2-0.1,0.4-0.1,0.6c-0.1,0.2-0.1,0.5-0.2,0.7
						c0,0,0,0.1,0,0.1c-0.1,0.5-0.3,0.9-0.5,1.3c-0.7,1.3-1.8,2.3-3.3,2.3l0-11.6c0.7,0,1.3,0.1,1.8,0.4c0.9,0.4,1.5,1.1,1.9,2
						c0,0,0,0,0,0c0.1,0.2,0.2,0.4,0.2,0.5v0c0,0,0,0,0,0.1c0.1,0.2,0.1,0.3,0.1,0.5c0,0.2,0.1,0.3,0.1,0.5
						C-86.2,130.1-86.2,130.5-86.2,130.8z"/>
				</g>
			</g>
		</g>
	</g>
	<path id="XMLID_35_" class="st4" d="M-88.6,126c0,0,0.9,3,2.8,6.3l0.9-3.6l-2.2-2.9L-88.6,126z"/>
	<g id="XMLID_181_">
		<path id="XMLID_34_" class="st3" d="M-92.1,125.2l-3.4,2.2l-1.4,4.4l1.4,4.7c-0.6-3.1,1.5-4.7,1.5-4.7c1.4-0.8,2.6-1.9,3.5-3v-3.7
			L-92.1,125.2z"/>
		<path id="XMLID_33_" class="st4" d="M-87.8,125.1h-2.7v3.7c1.2-1.4,2-2.8,2-2.8L-87.8,125.1z"/>
	</g>
</g>
<circle id="XMLID_32_" class="st6" cx="-100.4" cy="146.1" r="3.2"/>
<polygon id="XMLID_31_" class="st6" points="-101.9,143.2 -93.9,139.4 -93.9,169.3 -98.2,169.4 -94.9,162.3 -98.2,151.1 "/>
<polygon id="XMLID_30_" class="st6" points="-103.6,146.1 -103.6,156.3 -98.2,156.3 -98.2,147.2 "/>
<path id="XMLID_27_" class="st7" d="M-98,178.5h-2.8v-5.2c0,0-0.4-2.6,2.6-3.9h7.7v9.1H-98z"/>
<rect id="XMLID_26_" x="-103.6" y="156.3" class="st8" width="4.4" height="1.1"/>
<rect id="XMLID_25_" x="-99.3" y="156.3" class="st8" width="1.1" height="1.1"/>
<polygon id="XMLID_24_" class="st9" points="-90.5,168.6 -98,168.6 -98.2,169.4 -90.5,169.4 "/>
<circle id="XMLID_23_" class="st8" cx="-80.6" cy="146.1" r="3.2"/>
<polygon id="XMLID_22_" class="st8" points="-79,143.2 -87,139.4 -87,169.3 -82.7,169.4 -86.8,162.3 -82.7,151.1 "/>
<polygon id="XMLID_21_" class="st8" points="-77.3,146.1 -77.3,156.3 -82.7,156.3 -82.7,147.2 "/>
<path id="XMLID_18_" class="st10" d="M-83,178.6h2.8v-5.3c0,0,0.4-2.6-2.6-3.9h-7.7v9.2H-83z"/>
<rect id="XMLID_17_" x="-81.7" y="156.3" class="st6" width="4.4" height="1.1"/>
<rect id="XMLID_16_" x="-82.7" y="156.3" class="st6" width="1.1" height="1.1"/>
<polygon id="XMLID_15_" class="st11" points="-90.5,168.6 -82.9,168.6 -82.7,169.4 -90.5,169.4 "/>
<path id="XMLID_14_" class="st6" d="M-98.2,151.1c0,0,3.6,10.9,0.2,17.5h7.6v-18.2l-4.1-10.1l-6.9,8.1L-98.2,151.1z"/>
<path id="XMLID_13_" class="st8" d="M-82.7,151.1c0,0-3.6,10.9-0.2,17.5h-7.6v-18.2l4.1-10.1l6.9,8.1L-82.7,151.1z"/>
<g id="XMLID_6_">
</g>
</svg>
